<svg width="32" height="32" viewBox="0 0 32 32" fill="none" xmlns="http://www.w3.org/2000/svg">
<g filter="url(#filter0_i_1114_4303)">
<path d="M0 5C0 2.23858 2.23858 0 5 0H27C29.7614 0 32 2.23858 32 5V27C32 29.7614 29.7614 32 27 32H5C2.23858 32 0 29.7614 0 27V5Z" fill="#8B5FD6"/>
</g>
<path d="M16.5092 22.07C17.2159 21.9767 17.7492 21.74 18.1092 21.36C18.4759 20.9733 18.6592 20.47 18.6592 19.85C18.6592 19.5967 18.6126 19.3767 18.5192 19.19C18.4326 18.9967 18.3059 18.8267 18.1392 18.68C17.9792 18.5333 17.7892 18.4067 17.5692 18.3C17.3492 18.1933 17.1092 18.0933 16.8492 18L16.5092 22.07ZM15.8692 11.5C15.4959 11.5467 15.1792 11.6267 14.9192 11.74C14.6592 11.8467 14.4459 11.98 14.2792 12.14C14.1126 12.3 13.9892 12.48 13.9092 12.68C13.8359 12.88 13.7992 13.09 13.7992 13.31C13.7992 13.5633 13.8426 13.7867 13.9292 13.98C14.0226 14.1667 14.1459 14.3367 14.2992 14.49C14.4592 14.6367 14.6459 14.77 14.8592 14.89C15.0726 15.0033 15.3059 15.11 15.5592 15.21L15.8692 11.5ZM17.0392 15.69C17.5192 15.8367 17.9959 16 18.4692 16.18C18.9426 16.3533 19.3659 16.58 19.7392 16.86C20.1192 17.14 20.4259 17.49 20.6592 17.91C20.8926 18.3233 21.0092 18.8433 21.0092 19.47C21.0092 20.09 20.9059 20.6733 20.6992 21.22C20.4926 21.76 20.1892 22.24 19.7892 22.66C19.3892 23.0733 18.8992 23.4133 18.3192 23.68C17.7392 23.94 17.0759 24.0933 16.3292 24.14L16.2092 25.61C16.2026 25.7633 16.1359 25.9033 16.0092 26.03C15.8892 26.1633 15.7359 26.23 15.5492 26.23H14.6392L14.8192 24.09C14.0392 23.9833 13.3059 23.77 12.6192 23.45C11.9326 23.13 11.3492 22.7333 10.8692 22.26L11.6292 21.13C11.6959 21.03 11.7826 20.95 11.8892 20.89C12.0026 20.8233 12.1226 20.79 12.2492 20.79C12.3959 20.79 12.5526 20.8433 12.7192 20.95C12.8859 21.05 13.0759 21.17 13.2892 21.31C13.5026 21.4433 13.7459 21.58 14.0192 21.72C14.2926 21.86 14.6159 21.9633 14.9892 22.03L15.3592 17.56C14.8859 17.4267 14.4159 17.27 13.9492 17.09C13.4892 16.91 13.0726 16.6733 12.6992 16.38C12.3326 16.08 12.0359 15.7033 11.8092 15.25C11.5826 14.7967 11.4692 14.23 11.4692 13.55C11.4692 13.0433 11.5692 12.55 11.7692 12.07C11.9692 11.5833 12.2626 11.15 12.6492 10.77C13.0426 10.39 13.5226 10.0767 14.0892 9.83C14.6559 9.58333 15.3059 9.44333 16.0392 9.41L16.1492 8.15C16.1626 7.99 16.2292 7.84667 16.3492 7.72C16.4692 7.59333 16.6259 7.53 16.8192 7.53H17.7292L17.5692 9.49C18.2759 9.60333 18.8859 9.80667 19.3992 10.1C19.9126 10.3867 20.3559 10.71 20.7292 11.07L20.1292 11.98C20.0426 12.1133 19.9526 12.2133 19.8592 12.28C19.7659 12.3467 19.6526 12.38 19.5192 12.38C19.4192 12.38 19.2992 12.35 19.1592 12.29C19.0192 12.2233 18.8626 12.1467 18.6892 12.06C18.5159 11.9667 18.3192 11.8733 18.0992 11.78C17.8859 11.6867 17.6492 11.61 17.3892 11.55L17.0392 15.69Z" fill="white"/>
<defs>
<filter id="filter0_i_1114_4303" x="0" y="0" width="32" height="33" filterUnits="userSpaceOnUse" color-interpolation-filters="sRGB">
<feFlood flood-opacity="0" result="BackgroundImageFix"/>
<feBlend mode="normal" in="SourceGraphic" in2="BackgroundImageFix" result="shape"/>
<feColorMatrix in="SourceAlpha" type="matrix" values="0 0 0 0 0 0 0 0 0 0 0 0 0 0 0 0 0 0 127 0" result="hardAlpha"/>
<feOffset dy="1"/>
<feGaussianBlur stdDeviation="0.5"/>
<feComposite in2="hardAlpha" operator="arithmetic" k2="-1" k3="1"/>
<feColorMatrix type="matrix" values="0 0 0 0 0 0 0 0 0 0 0 0 0 0 0 0 0 0 0.1 0"/>
<feBlend mode="normal" in2="shape" result="effect1_innerShadow_1114_4303"/>
</filter>
</defs>
</svg>
