<svg width="148" height="148" viewBox="0 0 148 148" fill="none" xmlns="http://www.w3.org/2000/svg">
<path d="M147.985 139.93C147.985 144.379 144.379 147.985 139.93 147.985H8.05141C3.60583 147.985 0 144.379 0 139.93V8.05442C0 3.60586 3.60583 0 8.05141 0H139.93C144.379 0 147.985 3.60586 147.985 8.05442V139.93Z" fill="#A97FF1"/>
<path d="M127.246 46.1615H125.801C122.586 46.1615 120.064 48.7133 120.064 51.9738V74.7616C120.064 80.0201 118.048 81.9734 112.634 81.9734C110.818 81.9734 108.939 81.7292 107.01 81.2439V51.9738C107.01 51.5004 106.938 51.0448 106.828 50.6011C106.587 48.9337 105.67 47.4151 104.208 46.4385L103.832 46.1883L103.422 46.0038C98.702 43.9045 93.4048 42.7969 88.0987 42.7969C75.1729 42.7969 67.4579 50.2409 67.4579 62.7112V85.5763C67.4579 85.8323 67.4997 86.0736 67.5295 86.3178C67.2555 90.7723 65.183 92.4963 60.1508 92.4963C58.3375 92.4963 56.4586 92.2491 54.5291 91.7668V62.4938C54.5291 62.0204 54.4577 61.5648 54.3475 61.1211C54.1034 59.4507 53.1892 57.932 51.7272 56.9554L51.3519 56.7083L50.941 56.5237C46.2215 54.4244 40.9243 53.3168 35.6182 53.3168C22.6954 53.3168 14.9805 60.7638 14.9805 73.2311V96.0962C14.9805 99.3091 17.4994 101.831 20.7153 101.831H22.091C25.3485 101.831 27.8974 99.3091 27.8974 96.0962V73.3055C27.8974 68.851 29.1925 66.0878 35.6182 66.0878C37.5269 66.0878 39.5666 66.3379 41.5318 66.7994V96.0962C41.5318 96.6531 41.6301 97.1771 41.773 97.6803C42.1452 99.6545 43.4167 101.319 45.251 102.054C49.7888 104.109 54.9341 105.199 60.1479 105.199C72.7045 105.199 80.4998 97.5672 80.4998 85.2845V62.4968C80.4998 62.2109 80.4552 61.9399 80.4195 61.669C80.6547 57.8874 82.23 55.5738 88.0929 55.5738C89.9986 55.5738 92.0412 55.8239 94.0034 56.2795V85.5793C94.0034 86.139 94.1017 86.6601 94.2446 87.1663C94.6168 89.1345 95.8882 90.802 97.7254 91.5375C102.26 93.595 107.406 94.6819 112.622 94.6819C125.176 94.6819 132.974 87.0503 132.974 74.7676V51.9798C132.986 48.7134 130.464 46.1615 127.246 46.1615Z" fill="white"/>
</svg>
