<svg width="171" height="44" viewBox="0 0 171 44" fill="none" xmlns="http://www.w3.org/2000/svg">
<path d="M44.718 11.8147H44.1428C42.8618 11.8147 41.8572 12.7143 41.8572 13.8638V21.8977C41.8572 23.7516 41.0542 24.4402 38.8979 24.4402C38.1744 24.4402 37.426 24.3541 36.6574 24.183V13.8638C36.6574 13.6969 36.6291 13.5363 36.5852 13.3799C36.4891 12.792 36.1238 12.2566 35.5415 11.9123L35.3919 11.8241L35.2282 11.759C33.3483 11.0189 31.2383 10.6284 29.1248 10.6284C23.9761 10.6284 20.903 13.2528 20.903 17.6493V25.7104C20.903 25.8007 20.9198 25.8858 20.9316 25.9718C20.8225 27.5423 19.9969 28.1501 17.9924 28.1501C17.2701 28.1501 16.5217 28.063 15.7532 27.8929V17.5726C15.7532 17.4057 15.7248 17.2451 15.6809 17.0887C15.5837 16.4998 15.2196 15.9644 14.6372 15.6201L14.4876 15.5329L14.324 15.4679C12.4441 14.7278 10.3341 14.3373 8.22051 14.3373C3.07304 14.3373 0 16.9627 0 21.3581V29.4193C0 30.552 1.00336 31.4411 2.2843 31.4411H2.83231C4.12985 31.4411 5.14513 30.552 5.14513 29.4193V21.3843C5.14513 19.8139 5.66102 18.8397 8.22051 18.8397C8.98077 18.8397 9.79322 18.9279 10.576 19.0906V29.4193C10.576 29.6156 10.6152 29.8003 10.6721 29.9778C10.8203 30.6737 11.3269 31.2606 12.0575 31.5199C13.8651 32.2442 15.9146 32.6284 17.9914 32.6284C22.993 32.6284 26.098 29.9379 26.098 25.6076V17.5737C26.098 17.4729 26.0802 17.3774 26.0659 17.2819C26.1596 15.9486 26.7872 15.133 29.1225 15.133C29.8816 15.133 30.6952 15.2212 31.4769 15.3818V25.7115C31.4769 25.9088 31.5159 26.0926 31.5728 26.271C31.7211 26.9649 32.2276 27.5528 32.9594 27.8121C34.7658 28.5375 36.8152 28.9206 38.8932 28.9206C43.8936 28.9206 47 26.2301 47 21.8998V13.8659C47.0047 12.7143 46.0001 11.8147 44.718 11.8147Z" fill="#A97FF1"/>
<path d="M70.1839 17.6206C68.5348 17.6206 67.1211 18.3549 66.2119 19.659C65.447 18.3541 64.1051 17.6206 62.435 17.6206C61.0293 17.6206 59.8251 18.1493 58.9466 19.1327V17.885H57V30.6256H58.9466V23.5593C58.9466 20.5803 60.6746 19.5188 62.2915 19.5188C64.005 19.5188 64.9884 20.6593 64.9884 22.6477V30.6248H66.9341V23.5585C66.9341 20.9905 68.1092 19.518 70.1589 19.518C71.9225 19.518 72.9759 20.6875 72.9759 22.6469V30.624H74.9224V22.6469C74.9232 19.5945 73.0622 17.6206 70.1839 17.6206Z" fill="#4D5155"/>
<path d="M88.5271 19.7743C87.36 18.392 85.6714 17.6206 83.7434 17.6206C80.0495 17.6206 77.1567 20.5343 77.1567 24.2541C77.1567 27.9746 80.0495 30.8883 83.7434 30.8883C85.6714 30.8883 87.3592 30.117 88.5271 28.7355V30.6248H90.4973V17.8842H88.5271V19.7743ZM88.5271 24.2549C88.5271 26.9107 86.4678 28.991 83.8402 28.991C81.1973 28.991 79.1274 26.9107 79.1274 24.2549C79.1274 21.5999 81.1965 19.5196 83.8402 19.5196C86.4678 19.5196 88.5271 21.5999 88.5271 24.2549Z" fill="#4D5155"/>
<path d="M99.527 17.6206C97.8852 17.6206 96.552 18.1985 95.6066 19.3044V17.885H93.6609V30.6256H95.6066V23.9196C95.6066 21.1646 97.0357 19.5196 99.4303 19.5196C101.405 19.5196 102.583 20.7431 102.583 22.7928V30.6264H104.554V22.7928C104.554 19.6509 102.581 17.6206 99.527 17.6206Z" fill="#4D5155"/>
<path d="M116.234 24.5908C116.234 27.3457 114.805 28.9908 112.409 28.9908C110.435 28.9908 109.257 27.7673 109.257 25.7184V17.8848H107.287V25.7184C107.287 28.8594 109.26 30.8889 112.314 30.8889C113.954 30.8889 115.288 30.3118 116.234 29.206V30.6254H118.18V17.8848H116.234V24.5908Z" fill="#4D5155"/>
<path d="M131.951 19.7743C130.784 18.392 129.096 17.6206 127.167 17.6206C123.474 17.6206 120.581 20.5343 120.581 24.2541C120.581 27.9746 123.474 30.8883 127.167 30.8883C129.096 30.8883 130.783 30.117 131.951 28.7355V30.6248H133.921V17.8842H131.951V19.7743ZM131.951 24.2549C131.951 26.9107 129.892 28.991 127.264 28.991C124.621 28.991 122.552 26.9107 122.552 24.2549C122.552 21.5999 124.621 19.5196 127.264 19.5196C129.892 19.5196 131.951 21.5999 131.951 24.2549Z" fill="#4D5155"/>
<path d="M143.812 17.6204C141.868 17.6204 140.181 18.4038 139.029 19.8071V13.0874H137.081V30.6254H139.029V28.703C140.181 30.1055 141.867 30.8889 143.812 30.8889C147.506 30.8889 150.399 27.9752 150.399 24.2547C150.399 20.5349 147.506 17.6204 143.812 17.6204ZM143.741 19.5194C146.383 19.5194 148.453 21.5997 148.453 24.2547C148.453 26.9105 146.384 28.9908 143.741 28.9908C141.099 28.9908 139.03 26.9105 139.03 24.2547C139.03 21.5997 141.099 19.5194 143.741 19.5194Z" fill="#4D5155"/>
<path d="M154.802 12.3682H152.856V30.6259H154.802V12.3682Z" fill="#4D5155"/>
<path d="M163.777 17.6206C159.96 17.6206 157.191 20.4102 157.191 24.2541C157.191 28.0979 160 30.8883 163.873 30.8883C166.291 30.8883 168.313 29.8341 169.421 27.9972L169.616 27.6748L167.904 26.6624L167.719 27.0018C167.039 28.2462 165.609 28.9902 163.897 28.9902C161.486 28.9902 159.663 27.5047 159.244 25.2519H170.053V24.8779C170.053 24.7901 170.058 24.7014 170.064 24.6135C170.07 24.5096 170.077 24.4056 170.077 24.3016C170.075 21.0639 167.867 17.6206 163.777 17.6206ZM163.777 19.5196C165.637 19.5196 167.62 20.702 168.032 23.3304H159.235C159.616 21.0341 161.395 19.5196 163.777 19.5196Z" fill="#4D5155"/>
</svg>
