<svg width="217" height="57" viewBox="0 0 217 57" fill="none" xmlns="http://www.w3.org/2000/svg">
<path d="M81.9363 20.7311C79.7231 20.7311 77.8257 21.7658 76.6055 23.6035C75.5789 21.7646 73.7778 20.7311 71.5365 20.7311C69.6499 20.7311 68.0338 21.4762 66.8547 22.8618V21.1036H64.2422V39.057H66.8547V29.0995C66.8547 24.9017 69.1739 23.4059 71.3439 23.4059C73.6437 23.4059 74.9634 25.013 74.9634 27.815V39.0558H77.5748V29.0984C77.5748 25.4798 79.1519 23.4047 81.9028 23.4047C84.2697 23.4047 85.6835 25.0527 85.6835 27.8138V39.0547H88.296V27.8138C88.2971 23.5126 85.7993 20.7311 81.9363 20.7311Z" fill="white"/>
<path d="M106.557 23.7659C104.991 21.818 102.724 20.7311 100.137 20.7311C95.1793 20.7311 91.2969 24.837 91.2969 30.0786C91.2969 35.3214 95.1793 39.4272 100.137 39.4272C102.724 39.4272 104.99 38.3403 106.557 36.3935V39.0558H109.201V21.1025H106.557V23.7659ZM106.557 30.0797C106.557 33.8221 103.793 36.7536 100.267 36.7536C96.7197 36.7536 93.9418 33.8221 93.9418 30.0797C93.9418 26.3384 96.7186 23.407 100.267 23.407C103.793 23.407 106.557 26.3384 106.557 30.0797Z" fill="white"/>
<path d="M121.318 20.7311C119.115 20.7311 117.326 21.5454 116.057 23.1037V21.1036H113.445V39.057H116.057V29.6072C116.057 25.7251 117.975 23.407 121.188 23.407C123.839 23.407 125.42 25.1311 125.42 28.0194V39.0581H128.065V28.0194C128.065 23.5921 125.417 20.7311 121.318 20.7311Z" fill="white"/>
<path d="M143.742 30.5535C143.742 34.4356 141.824 36.7537 138.609 36.7537C135.96 36.7537 134.378 35.0296 134.378 32.1424V21.1038H131.734V32.1424C131.734 36.5686 134.382 39.4285 138.481 39.4285C140.683 39.4285 142.473 38.6153 143.742 37.057V39.0571H146.354V21.1038H143.742V30.5535V30.5535Z" fill="white"/>
<path d="M164.834 23.7659C163.268 21.818 161.002 20.7311 158.413 20.7311C153.457 20.7311 149.574 24.837 149.574 30.0786C149.574 35.3214 153.457 39.4272 158.413 39.4272C161.002 39.4272 163.267 38.3403 164.834 36.3935V39.0558H167.478V21.1025H164.834V23.7659ZM164.834 30.0797C164.834 33.8221 162.071 36.7536 158.544 36.7536C154.997 36.7536 152.219 33.8221 152.219 30.0797C152.219 26.3384 154.996 23.407 158.544 23.407C162.071 23.407 164.834 26.3384 164.834 30.0797Z" fill="white"/>
<path d="M180.756 20.7311C178.146 20.7311 175.882 21.8351 174.336 23.8125V14.3435H171.723V39.057H174.336V36.3482C175.882 38.3244 178.145 39.4284 180.756 39.4284C185.713 39.4284 189.596 35.3225 189.596 30.0798C189.596 24.8381 185.713 20.7311 180.756 20.7311ZM180.661 23.407C184.206 23.407 186.984 26.3385 186.984 30.0798C186.984 33.8222 184.207 36.7536 180.661 36.7536C177.115 36.7536 174.337 33.8222 174.337 30.0798C174.337 26.3385 177.114 23.407 180.661 23.407Z" fill="white"/>
<path d="M195.502 13.3298H192.891V39.0576H195.502V13.3298Z" fill="white"/>
<path d="M207.551 20.7311C202.429 20.7311 198.711 24.662 198.711 30.0786C198.711 35.4951 202.482 39.4272 207.68 39.4272C210.925 39.4272 213.639 37.9416 215.126 35.3532L215.388 34.8988L213.09 33.4723L212.841 33.9505C211.928 35.7041 210.01 36.7524 207.712 36.7524C204.477 36.7524 202.03 34.6592 201.467 31.4847H215.973V30.9577C215.973 30.8339 215.981 30.7089 215.989 30.5851C215.997 30.4386 216.006 30.2921 216.006 30.1456C216.004 25.5831 213.041 20.7311 207.551 20.7311ZM207.551 23.407C210.048 23.407 212.709 25.0732 213.262 28.777H201.455C201.966 25.5411 204.354 23.407 207.551 23.407Z" fill="white"/>
<path d="M53.7619 53.9277C53.7619 55.6246 52.4518 57 50.8357 57H2.92503C1.30998 57 0 55.6246 0 53.9277V3.62501C0 1.92815 1.30998 0.552734 2.92503 0.552734H50.8357C52.4518 0.552734 53.7619 1.92815 53.7619 3.62501V53.9277Z" fill="#A97FF1"/>
<path d="M46.2266 18.1594H45.7019C44.5336 18.1594 43.6174 19.1327 43.6174 20.3764V29.0686C43.6174 31.0744 42.885 31.8195 40.9184 31.8195C40.2585 31.8195 39.576 31.7263 38.875 31.5412V20.3764C38.875 20.1958 38.849 20.0221 38.809 19.8528C38.7214 19.2168 38.3882 18.6376 37.8571 18.265L37.7207 18.1696L37.5715 18.0992C35.8569 17.2985 33.9325 16.876 32.0048 16.876C27.3089 16.876 24.5061 19.7154 24.5061 24.4721V33.1937C24.5061 33.2914 24.5213 33.3834 24.5321 33.4766C24.4326 35.1757 23.6797 35.8333 21.8515 35.8333C21.1927 35.8333 20.5101 35.739 19.8092 35.5551V24.3892C19.8092 24.2086 19.7832 24.0348 19.7432 23.8656C19.6545 23.2284 19.3224 22.6491 18.7913 22.2766L18.6549 22.1824L18.5056 22.1119C16.7911 21.3112 14.8666 20.8887 12.939 20.8887C8.24418 20.8887 5.44141 23.7293 5.44141 28.4848V37.2065C5.44141 38.432 6.35653 39.394 7.52481 39.394H8.02462C9.20805 39.394 10.134 38.432 10.134 37.2065V28.5132C10.134 26.814 10.6046 25.7601 12.939 25.7601C13.6324 25.7601 14.3734 25.8555 15.0873 26.0315V37.2065C15.0873 37.4189 15.123 37.6188 15.175 37.8107C15.3102 38.5637 15.7721 39.1986 16.4385 39.4792C18.0871 40.2629 19.9563 40.6786 21.8505 40.6786C26.4122 40.6786 29.2442 37.7676 29.2442 33.0824V24.3903C29.2442 24.2813 29.228 24.1779 29.215 24.0746C29.3004 22.6321 29.8727 21.7496 32.0027 21.7496C32.695 21.7496 33.4371 21.845 34.1499 22.0188V33.1949C34.1499 33.4084 34.1856 33.6072 34.2375 33.8003C34.3728 34.551 34.8347 35.1871 35.5021 35.4676C37.1496 36.2524 39.0189 36.667 40.9141 36.667C45.4747 36.667 48.3079 33.756 48.3079 29.0709V20.3787C48.3122 19.1328 47.3959 18.1594 46.2266 18.1594Z" fill="white"/>
</svg>
