<svg width="30" height="31" viewBox="0 0 30 31" fill="none" xmlns="http://www.w3.org/2000/svg">
<path d="M29.618 29.3128C29.618 30.2446 28.8963 31 28.0059 31H1.61143C0.72168 31 0 30.2446 0 29.3128V1.68725C0 0.755359 0.72168 0 1.61143 0H28.0059C28.8963 0 29.618 0.755359 29.618 1.68725V29.3128Z" fill="#A97FF1"/>
<path d="M25.4665 9.66943H25.1775C24.5339 9.66943 24.0291 10.204 24.0291 10.887V15.6606C24.0291 16.7622 23.6256 17.1713 22.5422 17.1713C22.1787 17.1713 21.8027 17.1202 21.4165 17.0185V10.887C21.4165 10.7878 21.4022 10.6924 21.3801 10.5994C21.3319 10.2501 21.1483 9.93204 20.8557 9.72745L20.7806 9.67504L20.6984 9.63638C19.7538 9.19663 18.6936 8.9646 17.6316 8.9646C15.0446 8.9646 13.5005 10.524 13.5005 13.1363V17.9261C13.5005 17.9797 13.5089 18.0303 13.5148 18.0814C13.46 19.0145 13.0452 19.3757 12.0381 19.3757C11.6751 19.3757 11.2991 19.3239 10.9129 19.2229V13.0907C10.9129 12.9916 10.8986 12.8961 10.8766 12.8032C10.8277 12.4533 10.6448 12.1351 10.3521 11.9305L10.277 11.8788L10.1948 11.8401C9.25021 11.4004 8.19003 11.1683 7.12805 11.1683C4.54164 11.1683 2.99756 12.7283 2.99756 15.34V20.1298C2.99756 20.8028 3.50171 21.3312 4.14533 21.3312H4.42068C5.07265 21.3312 5.58278 20.8028 5.58278 20.1298V15.3556C5.58278 14.4224 5.84199 13.8436 7.12805 13.8436C7.51005 13.8436 7.91829 13.896 8.31161 13.9927V20.1298C8.31161 20.2465 8.33127 20.3562 8.35988 20.4616C8.43437 20.8752 8.68886 21.2239 9.05596 21.3779C9.96419 21.8083 10.994 22.0366 12.0375 22.0366C14.5506 22.0366 16.1108 20.4379 16.1108 17.865V13.0914C16.1108 13.0315 16.1018 12.9747 16.0947 12.9179C16.1418 12.1258 16.457 11.6411 17.6304 11.6411C18.0119 11.6411 18.4207 11.6935 18.8134 11.789V17.9267C18.8134 18.044 18.8331 18.1531 18.8617 18.2592C18.9362 18.6715 19.1906 19.0208 19.5583 19.1748C20.466 19.6059 21.4957 19.8335 22.5398 19.8335C25.0524 19.8335 26.6132 18.2349 26.6132 15.6619V10.8883C26.6155 10.204 26.1108 9.66943 25.4665 9.66943Z" fill="white"/>
</svg>
