<svg width="30" height="30" viewBox="0 0 30 30" fill="none" xmlns="http://www.w3.org/2000/svg">
<circle cx="15" cy="15" r="14.5" fill="#F8F9FA" stroke="#ADB5BD"/>
<path d="M25.7588 8.78334H25.466C24.8141 8.78334 24.3028 9.37744 24.3028 10.1365V15.4419C24.3028 16.6661 23.8941 17.1209 22.7967 17.1209C22.4285 17.1209 22.0476 17.0641 21.6565 16.9511V10.1365C21.6565 10.0263 21.642 9.92025 21.6197 9.81695C21.5708 9.42874 21.3848 9.0752 21.0885 8.84782L21.0124 8.78958L20.9291 8.74661C19.9723 8.25788 18.8985 8 17.8228 8C15.2024 8 13.6384 9.73308 13.6384 12.6364V17.9597C13.6384 18.0193 13.6469 18.0755 13.6529 18.1323C13.5974 19.1694 13.1772 19.5708 12.1571 19.5708C11.7895 19.5708 11.4086 19.5133 11.0174 19.401V12.5858C11.0174 12.4755 11.003 12.3695 10.9806 12.2662C10.9311 11.8773 10.7458 11.5237 10.4494 11.2963L10.3734 11.2388L10.29 11.1958C9.33329 10.7071 8.25943 10.4492 7.18376 10.4492C4.56399 10.4492 3 12.183 3 15.0856V20.4089C3 21.1569 3.51065 21.7441 4.16257 21.7441H4.44147C5.10185 21.7441 5.61857 21.1569 5.61857 20.4089V15.1029C5.61857 14.0658 5.88112 13.4225 7.18376 13.4225C7.57069 13.4225 7.98419 13.4807 8.38259 13.5882V20.4089C8.38259 20.5386 8.4025 20.6606 8.43148 20.7777C8.50693 21.2373 8.7647 21.6248 9.13654 21.7961C10.0565 22.2744 11.0995 22.5281 12.1565 22.5281C14.702 22.5281 16.2823 20.7514 16.2823 17.8918V12.5864C16.2823 12.5199 16.2733 12.4568 16.266 12.3937C16.3137 11.5133 16.6331 10.9747 17.8216 10.9747C18.2079 10.9747 18.622 11.0329 19.0198 11.139V17.9604C19.0198 18.0907 19.0397 18.212 19.0687 18.3299C19.1442 18.7881 19.4019 19.1763 19.7743 19.3476C20.6937 19.8266 21.7368 20.0796 22.7943 20.0796C25.3392 20.0796 26.9202 18.3029 26.9202 15.4433V10.1379C26.9226 9.37745 26.4113 8.78334 25.7588 8.78334Z" fill="#A97FF1"/>
</svg>
