<svg width="139" height="94" viewBox="0 0 139 94" fill="none" xmlns="http://www.w3.org/2000/svg">
<path d="M16.113 77.1357C14.097 77.1357 12.369 78.0327 11.259 79.6267C10.324 78.0317 8.68401 77.1357 6.64301 77.1357C4.92501 77.1357 3.453 77.7817 2.379 78.9837V77.4587H0V93.0317H2.379V84.3937C2.379 80.7517 4.49001 79.4557 6.46701 79.4557C8.56201 79.4557 9.76401 80.8498 9.76401 83.2798V93.0307H12.142V84.3937C12.142 81.2557 13.579 79.4557 16.084 79.4557C18.24 79.4557 19.527 80.8858 19.527 83.2798V93.0307H21.905V83.2798C21.906 79.5468 19.632 77.1357 16.113 77.1357Z" fill="white"/>
<path d="M38.5337 79.7668C37.1067 78.0778 35.0427 77.1348 32.6867 77.1348C28.1717 77.1348 24.6367 80.6968 24.6367 85.2428C24.6367 89.7908 28.1727 93.3518 32.6867 93.3518C35.0427 93.3518 37.1067 92.4098 38.5337 90.7198V93.0298H40.9417V77.4568H38.5337V79.7668ZM38.5337 85.2438C38.5337 88.4898 36.0167 91.0328 32.8047 91.0328C29.5747 91.0328 27.0447 88.4898 27.0447 85.2438C27.0447 81.9988 29.5747 79.4558 32.8047 79.4558C36.0167 79.4558 38.5337 81.9988 38.5337 85.2438Z" fill="white"/>
<path d="M51.9786 77.1357C49.9726 77.1357 48.3426 77.8408 47.1866 79.1938V77.4587H44.8086V93.0317H47.1866V84.8347C47.1866 81.4677 48.9336 79.4568 51.8606 79.4568C54.2746 79.4568 55.7146 80.9528 55.7146 83.4568V93.0317H58.1236V83.4568C58.1236 79.6158 55.7116 77.1357 51.9786 77.1357Z" fill="white"/>
<path d="M72.4019 85.655C72.4019 89.022 70.6539 91.033 67.7269 91.033C65.3139 91.033 63.8729 89.538 63.8729 87.033V77.458H61.4648V87.033C61.4648 90.873 63.8769 93.353 67.6099 93.353C69.6149 93.353 71.2449 92.647 72.4019 91.295V93.03H74.7798V77.457H72.4019V85.655Z" fill="white"/>
<path d="M91.6129 79.7668C90.1849 78.0778 88.1219 77.1348 85.7649 77.1348C81.2499 77.1348 77.7148 80.6968 77.7148 85.2428C77.7148 89.7908 81.2509 93.3518 85.7649 93.3518C88.1209 93.3518 90.1849 92.4098 91.6129 90.7198V93.0298H94.0199V77.4568H91.6129V79.7668ZM91.6129 85.2438C91.6129 88.4898 89.0949 91.0328 85.8829 91.0328C82.6529 91.0328 80.1229 88.4898 80.1229 85.2438C80.1229 81.9988 82.6529 79.4558 85.8829 79.4558C89.0949 79.4558 91.6129 81.9988 91.6129 85.2438Z" fill="white"/>
<path d="M106.11 77.1357C103.733 77.1357 101.671 78.0927 100.263 79.8077V71.5947H97.8828V93.0317H100.263V90.6817C101.671 92.3967 103.733 93.3537 106.11 93.3537C110.624 93.3537 114.161 89.7917 114.161 85.2447C114.161 80.6967 110.624 77.1357 106.11 77.1357ZM106.023 79.4557C109.252 79.4557 111.781 81.9987 111.781 85.2437C111.781 88.4897 109.252 91.0327 106.023 91.0327C102.793 91.0327 100.264 88.4897 100.264 85.2437C100.263 81.9987 102.792 79.4557 106.023 79.4557Z" fill="white"/>
<path d="M119.539 70.7148H117.16V93.0308H119.539V70.7148Z" fill="white"/>
<path d="M130.516 77.1357C125.85 77.1357 122.465 80.5457 122.465 85.2437C122.465 89.9427 125.901 93.3528 130.633 93.3528C133.588 93.3528 136.061 92.0647 137.414 89.8197L137.652 89.4237L135.56 88.1877L135.333 88.6017C134.501 90.1227 132.753 91.0327 130.661 91.0327C127.714 91.0327 125.485 89.2177 124.972 86.4637H138.185V86.0067C138.185 85.8997 138.191 85.7907 138.199 85.6837C138.207 85.5567 138.215 85.4297 138.215 85.3027C138.215 81.3437 135.516 77.1357 130.516 77.1357ZM130.516 79.4557C132.789 79.4557 135.213 80.9007 135.717 84.1137H124.965C125.428 81.3067 127.604 79.4557 130.516 79.4557Z" fill="white"/>
<path d="M99.4969 57.473C99.4969 59.3 98.0158 60.781 96.1888 60.781H42.0229C40.1959 60.781 38.7148 59.301 38.7148 57.473V3.30798C38.7148 1.48098 40.1959 0 42.0229 0H96.1888C98.0148 0 99.4969 1.47998 99.4969 3.30798V57.473Z" fill="#A97FF1"/>
<path d="M90.981 18.9581H90.386C89.066 18.9581 88.031 20.0071 88.031 21.3451V30.7051C88.031 32.8651 87.204 33.6671 84.979 33.6671C84.233 33.6671 83.461 33.5671 82.67 33.3681V21.3451C82.67 21.1491 82.639 20.9611 82.594 20.7781C82.494 20.0951 82.119 19.4721 81.52 19.0721L81.365 18.9691L81.197 18.8941C79.259 18.0331 77.083 17.5781 74.904 17.5781C69.595 17.5781 66.426 20.6361 66.426 25.7571V35.1481C66.426 35.2541 66.443 35.3551 66.456 35.4571C66.343 37.2831 65.491 37.9901 63.427 37.9901C62.681 37.9901 61.909 37.8891 61.118 37.6911V25.6681C61.118 25.4731 61.088 25.2861 61.043 25.1041C60.943 24.4201 60.569 23.7951 59.968 23.3951L59.814 23.2911L59.645 23.2161C57.707 22.3551 55.532 21.9001 53.353 21.9001C48.044 21.9001 44.875 24.9591 44.875 30.0811V39.4711C44.875 40.7911 45.91 41.8261 47.231 41.8261H47.795C49.133 41.8261 50.181 40.7911 50.181 39.4711V30.1111C50.181 28.2811 50.711 27.1471 53.352 27.1471C54.135 27.1471 54.973 27.2501 55.78 27.4381V39.4711C55.78 39.7001 55.821 39.9151 55.88 40.1231C56.033 40.9331 56.555 41.6161 57.309 41.9181C59.173 42.7631 61.286 43.2091 63.427 43.2091C68.583 43.2091 71.786 40.0751 71.786 35.0281V25.6691C71.786 25.5511 71.768 25.4381 71.753 25.3241C71.85 23.7731 72.499 22.8251 74.904 22.8251C75.686 22.8251 76.526 22.9291 77.332 23.1161V35.1491C77.332 35.3771 77.373 35.5911 77.43 35.7971C77.583 36.6081 78.105 37.2931 78.86 37.5961C80.724 38.4411 82.837 38.8881 84.978 38.8881C90.134 38.8881 93.337 35.7531 93.337 30.7071V21.3471C93.338 20.0071 92.302 18.9581 90.981 18.9581Z" fill="white"/>
</svg>
