<svg width="610" height="323" viewBox="0 0 610 323" fill="none" xmlns="http://www.w3.org/2000/svg">
<ellipse opacity="0.9" cx="299" cy="273.78" rx="299" ry="26.22" fill="url(#paint0_radial_2764_47035)"/>
<ellipse opacity="0.9" cx="491.741" cy="302.76" rx="117.3" ry="20.24" fill="url(#paint1_radial_2764_47035)"/>
<path d="M296.904 247.1V35.2C296.904 34.0954 296.008 33.2 294.904 33.2H271.764C270.659 33.2 269.764 32.3046 269.764 31.2V9.28H301.964V247.1H296.904Z" fill="#495057"/>
<path fill-rule="evenodd" clip-rule="evenodd" d="M238.944 33.2C233.117 33.66 219.808 37.708 213.184 50.22C206.56 62.732 157.524 173.04 155.684 185.46C153.906 197.462 155.565 227.507 155.678 229.514C155.682 229.589 155.69 229.654 155.703 229.727C156.666 235.132 161.277 246.003 172.244 247.1H145.564H84.8446H71.6003C70.9259 247.1 70.2516 247.025 69.6121 246.811C64.6311 245.144 56.1165 239.62 55.4076 228.286C55.4057 228.256 55.4048 228.246 55.4044 228.216C55.39 227.26 54.9522 197.731 55.4047 188.68C55.9555 177.663 102.402 69.4494 112.838 50.3409C112.888 50.2502 112.937 50.1772 113.001 50.0955C125.396 34.1042 139.296 31.0589 146.484 33.2H238.944Z" fill="#A880F2"/>
<path d="M260.564 1C258.264 1 253.48 2.472 252.744 8.36L247.572 31.6339C247.369 32.5489 246.557 33.2 245.62 33.2H238.944H146.484L152.411 7.67051C152.446 7.51737 152.499 7.36873 152.572 7.22947C153.727 5.02531 156.617 1 159.824 1H260.564Z" fill="#A880F2"/>
<path fill-rule="evenodd" clip-rule="evenodd" d="M260.564 1H267.764C268.868 1 269.764 1.89543 269.764 3V9.28V31.2C269.764 32.3046 270.659 33.2 271.764 33.2H294.904C296.008 33.2 296.904 34.0954 296.904 35.2V247.1H242.624C242.624 247.1 242.624 245.26 242.164 242.04C240.477 232.38 231.768 213.152 208.584 213.52C186.615 213.869 178.607 233.796 177.045 245.278C176.905 246.308 176.044 247.1 175.004 247.1H172.244C161.277 246.003 156.666 235.132 155.703 229.727C155.69 229.654 155.682 229.589 155.678 229.514C155.565 227.507 153.906 197.462 155.684 185.46C157.524 173.04 206.56 62.732 213.184 50.22C219.808 37.708 233.117 33.66 238.944 33.2H245.62C246.557 33.2 247.369 32.5489 247.572 31.6339L252.744 8.36C253.48 2.472 258.264 1 260.564 1Z" fill="#A880F2"/>
<path fill-rule="evenodd" clip-rule="evenodd" d="M172.244 247.1H175.004C176.044 247.1 176.905 246.308 177.045 245.278C178.607 233.796 186.615 213.869 208.584 213.52C231.768 213.152 240.477 232.38 242.164 242.04C242.624 245.26 242.624 247.1 242.624 247.1H232.964C233.27 254.59 229.492 270.277 211.97 273.292C211.862 273.311 211.749 273.32 211.639 273.32H193.404C186.658 272.4 172.98 265.868 172.244 247.1ZM208.584 263.2C200.2 263.2 193.404 255.992 193.404 247.1C193.404 238.208 200.2 231 208.584 231C216.968 231 223.764 238.208 223.764 247.1C223.764 255.992 216.968 263.2 208.584 263.2Z" fill="#495057"/>
<path d="M145.564 247.1C145.87 254.433 142.187 269.894 125.054 273.283C124.93 273.308 124.801 273.32 124.675 273.32H105.269C105.146 273.32 105.028 273.31 104.908 273.286C98.2569 271.969 85.2093 264.972 84.8446 247.1H145.564Z" fill="#495057"/>
<path d="M399.483 247.1C399.789 254.593 395.916 270.201 378.007 272.839C377.913 272.853 377.816 272.86 377.721 272.86H358.264C358.144 272.86 358.028 272.85 357.91 272.828C351.112 271.516 338.034 264.614 338.764 247.1H399.483Z" fill="#495057"/>
<path fill-rule="evenodd" clip-rule="evenodd" d="M472.623 213.06C497.279 213.796 505.283 236.06 506.203 247.1H497.463C497.003 255.227 492.219 271.756 476.763 272.86H457.241C457.07 272.86 456.904 272.84 456.739 272.794C450.231 270.984 437.547 263.453 436.989 247.1H439.963C440.576 235.447 447.967 212.324 472.623 213.06ZM473.543 263.2C465.159 263.2 458.363 255.992 458.363 247.1C458.363 238.208 465.159 231 473.543 231C481.927 231 488.723 238.208 488.723 247.1C488.723 255.992 481.927 263.2 473.543 263.2Z" fill="#495057"/>
<path d="M252.744 8.36L253.24 8.42202L253.237 8.44543L253.232 8.46847L252.744 8.36ZM242.164 242.04L242.656 241.954L242.658 241.962L242.659 241.969L242.164 242.04ZM439.963 247.1L440.462 247.126L440.438 247.6H439.963V247.1ZM497.463 247.1L496.964 247.072L496.99 246.6H497.463V247.1ZM476.763 272.86L476.799 273.359L476.781 273.36H476.763V272.86ZM232.964 247.1L232.464 247.12L232.443 246.6H232.964V247.1ZM193.404 273.32V273.82H193.37L193.337 273.815L193.404 273.32ZM55.4047 188.68L55.9041 188.705L55.4047 188.68ZM146.484 33.2V33.7H146.411L146.342 33.6792L146.484 33.2ZM152.411 7.67051L151.924 7.55745L152.411 7.67051ZM152.572 7.22947L153.015 7.46147L152.572 7.22947ZM112.838 50.3409L112.399 50.1012L112.838 50.3409ZM113.001 50.0955L112.606 49.7892L113.001 50.0955ZM55.4076 228.286L55.9066 228.255L55.4076 228.286ZM55.4044 228.216L55.9043 228.209L55.4044 228.216ZM69.6121 246.811L69.7708 246.336L69.6121 246.811ZM104.908 273.286L105.005 272.796L104.908 273.286ZM125.054 273.283L125.151 273.774L125.151 273.774L125.054 273.283ZM357.91 272.828L358.005 272.337L357.91 272.828ZM456.739 272.794L456.873 272.312L456.739 272.794ZM378.007 272.839L378.08 273.334L378.007 272.839ZM247.572 31.6339L248.06 31.7423L247.572 31.6339ZM177.045 245.278L176.55 245.21L177.045 245.278ZM211.97 273.292L211.885 272.799L211.97 273.292ZM155.678 229.514L155.179 229.543L155.678 229.514ZM155.703 229.727L156.195 229.64L155.703 229.727ZM267.764 1.5H260.564V0.5H267.764V1.5ZM260.564 1.5C259.502 1.5 257.835 1.84418 256.354 2.88147C254.892 3.90642 253.59 5.62162 253.24 8.42202L252.248 8.29798C252.634 5.21038 254.092 3.24558 255.78 2.06253C257.451 0.891818 259.326 0.5 260.564 0.5V1.5ZM253.232 8.46847L248.06 31.7423L247.084 31.5254L252.256 8.25153L253.232 8.46847ZM245.62 33.7H238.944V32.7H245.62V33.7ZM238.983 33.6984C233.256 34.1506 220.141 38.1469 213.626 50.4539L212.742 49.9861C219.475 37.2691 232.978 33.1694 238.905 32.7016L238.983 33.6984ZM213.626 50.4539C210.325 56.6888 196.419 87.373 183.099 118.074C176.441 133.419 169.934 148.758 164.977 161.036C162.498 167.175 160.409 172.545 158.882 176.766C157.348 181.006 156.4 184.04 156.179 185.533L155.19 185.387C155.428 183.775 156.415 180.645 157.941 176.426C159.474 172.189 161.569 166.806 164.05 160.661C169.011 148.372 175.522 133.024 182.181 117.675C195.495 86.989 209.419 56.2632 212.742 49.9861L213.626 50.4539ZM156.179 185.533C155.297 191.486 155.265 201.955 155.472 211.224C155.678 220.478 156.121 228.485 156.177 229.486L155.179 229.543C155.122 228.537 154.679 220.517 154.472 211.247C154.266 201.991 154.293 191.437 155.19 185.387L156.179 185.533ZM156.195 229.64C156.665 232.279 158.032 236.272 160.622 239.729C163.205 243.179 166.984 246.071 172.294 246.602L172.194 247.598C166.538 247.032 162.527 243.941 159.822 240.329C157.123 236.726 155.703 232.581 155.211 229.815L156.195 229.64ZM172.244 246.6H175.004V247.6H172.244V246.6ZM176.55 245.21C177.339 239.408 179.755 231.467 184.765 224.92C189.787 218.357 197.417 213.197 208.576 213.02L208.592 214.02C197.782 214.192 190.424 219.17 185.559 225.528C180.682 231.902 178.313 239.666 177.541 245.345L176.55 245.21ZM208.576 213.02C220.328 212.834 228.436 217.621 233.81 223.688C239.169 229.739 241.801 237.052 242.656 241.954L241.671 242.126C240.841 237.368 238.274 230.237 233.061 224.351C227.862 218.481 220.024 213.838 208.592 214.02L208.576 213.02ZM242.659 241.969C242.891 243.592 243.007 244.87 243.065 245.744C243.094 246.181 243.109 246.518 243.116 246.746C243.12 246.86 243.122 246.947 243.123 247.007C243.123 247.036 243.124 247.059 243.124 247.075C243.124 247.082 243.124 247.088 243.124 247.093C243.124 247.095 243.124 247.096 243.124 247.098C243.124 247.098 243.124 247.099 243.124 247.099C243.124 247.099 243.124 247.1 243.124 247.1C243.124 247.1 243.124 247.1 243.124 247.1C243.124 247.1 243.124 247.1 242.624 247.1C242.124 247.1 242.124 247.1 242.124 247.1C242.124 247.1 242.124 247.1 242.124 247.1C242.124 247.1 242.124 247.1 242.124 247.1C242.124 247.1 242.124 247.1 242.124 247.1C242.124 247.099 242.124 247.098 242.124 247.097C242.124 247.094 242.124 247.089 242.124 247.082C242.124 247.07 242.124 247.05 242.123 247.023C242.122 246.969 242.121 246.887 242.117 246.778C242.11 246.561 242.096 246.236 242.068 245.811C242.011 244.96 241.897 243.708 241.669 242.111L242.659 241.969ZM242.624 246.6H296.904V247.6H242.624V246.6ZM296.404 247.1V35.2H297.404V247.1H296.404ZM294.904 33.7H271.764V32.7H294.904V33.7ZM269.264 31.2V9.28H270.264V31.2H269.264ZM269.264 9.28V3H270.264V9.28H269.264ZM558.223 15.28V241.1H557.223V15.28H558.223ZM551.723 247.6H506.203V246.6H551.723V247.6ZM505.705 247.142C505.251 241.695 503.044 233.463 497.912 226.513C492.793 219.582 484.763 213.923 472.608 213.56L472.638 212.56C485.139 212.933 493.439 218.774 498.716 225.919C503.979 233.045 506.235 241.465 506.701 247.058L505.705 247.142ZM472.608 213.56C460.47 213.197 452.609 218.695 447.687 225.721C442.747 232.771 440.766 241.368 440.462 247.126L439.464 247.074C439.774 241.179 441.795 232.387 446.868 225.147C451.957 217.883 460.12 212.187 472.638 212.56L472.608 213.56ZM269.764 8.78H301.964V9.78H269.764V8.78ZM301.964 8.78H551.723V9.78H301.964V8.78ZM301.464 247.1V9.28H302.464V247.1H301.464ZM301.964 247.6H296.904V246.6H301.964V247.6ZM458.863 247.1C458.863 255.744 465.463 262.7 473.543 262.7V263.7C464.856 263.7 457.863 256.24 457.863 247.1H458.863ZM473.543 262.7C481.623 262.7 488.223 255.744 488.223 247.1H489.223C489.223 256.24 482.23 263.7 473.543 263.7V262.7ZM488.223 247.1C488.223 238.456 481.623 231.5 473.543 231.5V230.5C482.23 230.5 489.223 237.96 489.223 247.1H488.223ZM473.543 231.5C465.463 231.5 458.863 238.456 458.863 247.1H457.863C457.863 237.96 464.856 230.5 473.543 230.5V231.5ZM193.904 247.1C193.904 255.744 200.504 262.7 208.584 262.7V263.7C199.897 263.7 192.904 256.24 192.904 247.1H193.904ZM208.584 262.7C216.664 262.7 223.264 255.744 223.264 247.1H224.264C224.264 256.24 217.271 263.7 208.584 263.7V262.7ZM223.264 247.1C223.264 238.456 216.664 231.5 208.584 231.5V230.5C217.271 230.5 224.264 237.96 224.264 247.1H223.264ZM208.584 231.5C200.504 231.5 193.904 238.456 193.904 247.1H192.904C192.904 237.96 199.897 230.5 208.584 230.5V231.5ZM506.203 247.6H497.463V246.6H506.203V247.6ZM497.962 247.128C497.729 251.253 496.401 257.5 493.165 262.872C489.919 268.257 484.73 272.792 476.799 273.359L476.727 272.361C484.252 271.824 489.183 267.542 492.308 262.355C495.442 257.154 496.737 251.074 496.964 247.072L497.962 247.128ZM476.763 273.36H457.241V272.36H476.763V273.36ZM439.963 247.6H436.989V246.6H439.963V247.6ZM456.605 273.276C449.978 271.433 437.057 263.77 436.489 247.117L437.489 247.083C438.036 263.137 450.484 270.536 456.873 272.312L456.605 273.276ZM436.989 247.6H399.483V246.6H436.989V247.6ZM399.983 247.08C400.139 250.908 399.231 256.785 396.002 262.052C392.761 267.338 387.19 271.992 378.08 273.334L377.934 272.345C386.733 271.048 392.053 266.579 395.149 261.529C398.258 256.459 399.133 250.786 398.984 247.12L399.983 247.08ZM377.721 273.36H358.264V272.36H377.721V273.36ZM399.483 247.6H338.764V246.6H399.483V247.6ZM338.764 247.6H301.964V246.6H338.764V247.6ZM357.816 273.319C354.332 272.646 349.267 270.551 345.158 266.391C341.035 262.217 337.893 255.979 338.264 247.079L339.263 247.121C338.904 255.735 341.936 261.706 345.87 265.688C349.817 269.686 354.691 271.697 358.005 272.337L357.816 273.319ZM233.464 247.08C233.62 250.904 232.736 256.797 229.583 262.129C226.418 267.479 220.973 272.25 212.055 273.785L211.885 272.799C220.489 271.319 225.694 266.739 228.722 261.619C231.762 256.481 232.614 250.785 232.464 247.12L233.464 247.08ZM211.639 273.82H193.404V272.82H211.639V273.82ZM193.337 273.815C186.421 272.872 172.493 266.195 171.745 247.12L172.744 247.08C173.468 265.541 186.894 271.928 193.472 272.825L193.337 273.815ZM232.964 246.6H242.624V247.6H232.964V246.6ZM172.244 247.6H145.564V246.6H172.244V247.6ZM146.064 247.079C146.22 250.826 145.36 256.622 142.281 261.922C139.192 267.24 133.872 272.049 125.151 273.774L124.957 272.793C133.37 271.129 138.458 266.513 141.416 261.419C144.386 256.309 145.214 250.707 145.065 247.121L146.064 247.079ZM124.675 273.82H105.269V272.82H124.675V273.82ZM104.811 273.777C98.0058 272.429 84.7157 265.287 84.3447 247.11L85.3445 247.09C85.703 264.657 98.5081 271.509 105.005 272.796L104.811 273.777ZM84.8446 247.6H71.6003V246.6H84.8446V247.6ZM69.4534 247.285C64.3627 245.581 55.6349 239.929 54.9085 228.317L55.9066 228.255C56.5981 239.31 64.8995 244.706 69.7708 246.336L69.4534 247.285ZM54.9044 228.224C54.8903 227.278 54.4518 197.727 54.9053 188.655L55.9041 188.705C55.4526 197.735 55.8898 227.242 55.9043 228.209L54.9044 228.224ZM54.9053 188.655C54.9426 187.91 55.1689 186.798 55.5427 185.392C55.9192 183.976 56.4549 182.229 57.1281 180.199C58.4747 176.138 60.378 170.925 62.6767 164.925C67.2743 152.925 73.4603 137.763 79.9539 122.351C92.9363 91.5379 107.167 59.6821 112.399 50.1012L113.277 50.5805C108.074 60.1082 93.8631 91.9136 80.8754 122.739C74.3839 138.146 68.2026 153.297 63.6105 165.283C61.3142 171.276 59.4169 176.474 58.0773 180.514C57.4073 182.534 56.8785 184.26 56.5091 185.649C56.1369 187.049 55.9357 188.073 55.9041 188.705L54.9053 188.655ZM112.606 49.7892C125.082 33.6941 139.178 30.5019 146.627 32.7208L146.342 33.6792C139.415 31.6158 125.711 34.5143 113.396 50.4018L112.606 49.7892ZM145.997 33.0869L151.924 7.55745L152.898 7.78358L146.971 33.3131L145.997 33.0869ZM152.129 6.99747C152.723 5.86293 153.762 4.26192 155.073 2.93657C156.37 1.62512 158.017 0.5 159.824 0.5V1.5C158.424 1.5 157.023 2.38754 155.784 3.63978C154.559 4.87813 153.575 6.39185 153.015 7.46147L152.129 6.99747ZM159.824 0.5H260.564V1.5H159.824V0.5ZM238.944 33.7H146.484V32.7H238.944V33.7ZM145.564 247.6H84.8446V246.6H145.564V247.6ZM151.924 7.55745C151.968 7.36762 152.034 7.17836 152.129 6.99747L153.015 7.46147C152.964 7.5591 152.925 7.66713 152.898 7.78358L151.924 7.55745ZM112.399 50.1012C112.464 49.9827 112.529 49.8875 112.606 49.7892L113.396 50.4018C113.345 50.4669 113.311 50.5176 113.277 50.5805L112.399 50.1012ZM54.9085 228.317C54.9068 228.289 54.9051 228.268 54.9044 228.224L55.9043 228.209C55.9045 228.219 55.9046 228.223 55.9048 228.226C55.9049 228.228 55.905 228.23 55.9053 228.235C55.9055 228.238 55.9057 228.24 55.9059 228.244C55.9061 228.247 55.9063 228.251 55.9066 228.255L54.9085 228.317ZM71.6003 247.6C70.8903 247.6 70.159 247.521 69.4534 247.285L69.7708 246.336C70.3443 246.528 70.9615 246.6 71.6003 246.6V247.6ZM105.269 273.82C105.118 273.82 104.967 273.807 104.811 273.777L105.005 272.796C105.089 272.812 105.175 272.82 105.269 272.82V273.82ZM125.151 273.774C124.994 273.805 124.833 273.82 124.675 273.82V272.82C124.769 272.82 124.866 272.811 124.957 272.793L125.151 273.774ZM271.764 33.7C270.383 33.7 269.264 32.5807 269.264 31.2H270.264C270.264 32.0284 270.935 32.7 271.764 32.7V33.7ZM358.264 273.36C358.116 273.36 357.968 273.348 357.816 273.319L358.005 272.337C358.088 272.353 358.172 272.36 358.264 272.36V273.36ZM457.241 273.36C457.03 273.36 456.819 273.335 456.605 273.276L456.873 272.312C456.99 272.345 457.11 272.36 457.241 272.36V273.36ZM557.223 15.28C557.223 12.2424 554.76 9.78 551.723 9.78V8.78C555.312 8.78 558.223 11.6901 558.223 15.28H557.223ZM296.404 35.2C296.404 34.3716 295.732 33.7 294.904 33.7V32.7C296.284 32.7 297.404 33.8193 297.404 35.2H296.404ZM378.08 273.334C377.961 273.351 377.84 273.36 377.721 273.36V272.36C377.792 272.36 377.865 272.355 377.934 272.345L378.08 273.334ZM248.06 31.7423C247.806 32.8862 246.791 33.7 245.62 33.7V32.7C246.323 32.7 246.931 32.2117 247.084 31.5254L248.06 31.7423ZM175.004 246.6C175.781 246.6 176.442 246.007 176.55 245.21L177.541 245.345C177.369 246.61 176.308 247.6 175.004 247.6V246.6ZM212.055 273.785C211.918 273.808 211.777 273.82 211.639 273.82V272.82C211.721 272.82 211.805 272.813 211.885 272.799L212.055 273.785ZM558.223 241.1C558.223 244.69 555.313 247.6 551.723 247.6V246.6C554.76 246.6 557.223 244.138 557.223 241.1H558.223ZM156.177 229.486C156.181 229.541 156.186 229.586 156.195 229.64L155.211 229.815C155.194 229.721 155.184 229.636 155.179 229.543L156.177 229.486ZM267.764 0.5C269.145 0.5 270.264 1.61929 270.264 3H269.264C269.264 2.17157 268.592 1.5 267.764 1.5V0.5Z" fill="#343A40"/>
<path fill-rule="evenodd" clip-rule="evenodd" d="M551.723 247.1C555.036 247.1 557.723 244.414 557.723 241.1V15.2803C557.723 11.9666 555.036 9.28027 551.723 9.28027H303.964C302.859 9.28027 301.964 10.1757 301.964 11.2803V245.1C301.964 246.205 302.859 247.1 303.964 247.1H338.764H399.483H436.989H439.963C440.576 235.447 447.967 212.324 472.623 213.06C495.988 213.758 504.399 233.788 505.999 245.278C506.142 246.309 507.003 247.1 508.043 247.1H551.723Z" fill="#F2F2F2" stroke="#A880F2"/>
<path d="M115.208 191.44V196.96H90.3681V191.44H115.208Z" fill="#495057"/>
<path d="M90.3681 196.96H115.208V198.8H114.288H91.2881H90.3681V196.96Z" fill="white"/>
<path d="M114.288 198.8V202.48H91.2881V198.8H114.288Z" fill="#495057"/>
<path d="M91.2881 202.48H114.288V204.32H113.368H92.2081H91.2881V202.48Z" fill="white"/>
<path d="M113.368 204.32V208.92H92.2081V204.32H113.368Z" fill="#495057"/>
<path d="M147.328 191.44C147.88 191.44 148.328 191.888 148.328 192.44V202.48C148.481 204.627 147.96 208.92 144.648 208.92H119.428C118.876 208.92 118.428 208.473 118.428 207.92V197.88C118.275 195.734 118.796 191.44 122.108 191.44H147.328Z" fill="white"/>
<path d="M87.5282 208.92C88.0804 208.92 88.5282 208.473 88.5282 207.92V197.88C88.5282 195.734 87.6082 191.44 83.9282 191.44H62.8483C62.296 191.44 61.8483 191.888 61.8483 192.44V203.4C61.6949 205.24 62.2163 208.92 65.5283 208.92H87.5282Z" fill="white"/>
<path d="M108.304 71.8398C107.697 71.8398 106.302 72.2998 105.574 74.1398C105.2 75.0862 100.316 86.7009 94.4632 100.597C88.937 113.718 82.5474 128.872 78.2754 139C77.5171 140.533 76.6374 143.6 79.1853 143.6H152.437H164.722C165.48 143.6 167.27 142.956 168.362 140.38C168.901 139.108 173.378 128.446 178.796 115.54C184.307 102.41 190.792 86.9569 195.095 76.7041C195.169 76.5268 195.218 76.3432 195.231 76.1514C195.326 74.7547 195.105 72.3799 193.58 71.8903C193.453 71.8496 193.319 71.8398 193.185 71.8398H119.679H108.304Z" fill="#E4DBF5"/>
<path d="M106.25 73.9521C106.973 72.1121 107.97 72.3088 108.573 72.3088H119.209C119.635 72.3088 120.05 72.445 120.393 72.6973L177.16 114.422C177.903 114.968 178.176 115.952 177.821 116.804C172.717 129.05 168.582 138.969 168.067 140.192C166.983 142.768 165.207 142.952 164.454 142.952H152.923C152.492 142.952 152.072 142.813 151.727 142.555L96.4716 101.343C95.7359 100.794 95.4684 99.8141 95.8225 98.9673C101.362 85.7179 105.891 74.8655 106.25 73.9521Z" fill="#F2F2F2"/>
<path d="M231.12 196.04V195.54H231.145L231.171 195.543L231.12 196.04ZM260.378 229.153L259.882 229.214L260.378 229.153ZM189.432 137.693L189.889 137.896L189.432 137.693ZM292.34 58.2002V229H291.34V58.2002H292.34ZM289.84 231.5H262.422V230.5H289.84V231.5ZM259.882 229.214C259.196 223.661 257.035 215.987 252.517 209.455C248.008 202.936 241.161 197.564 231.07 196.538L231.171 195.543C241.61 196.604 248.699 202.177 253.34 208.886C257.971 215.583 260.174 223.421 260.875 229.092L259.882 229.214ZM231.12 196.54H191.26V195.54H231.12V196.54ZM188.76 194.04V138.504H189.76V194.04H188.76ZM188.975 137.49L224.616 57.186L225.53 57.5917L189.889 137.896L188.975 137.49ZM226.901 55.7002H289.84V56.7002H226.901V55.7002ZM224.616 57.186C225.017 56.2826 225.912 55.7002 226.901 55.7002V56.7002C226.308 56.7002 225.77 57.0496 225.53 57.5917L224.616 57.186ZM191.26 196.54C189.88 196.54 188.76 195.421 188.76 194.04H189.76C189.76 194.869 190.432 195.54 191.26 195.54V196.54ZM262.422 231.5C261.107 231.5 260.04 230.492 259.882 229.214L260.875 229.092C260.974 229.896 261.639 230.5 262.422 230.5V231.5ZM292.34 229C292.34 230.381 291.221 231.5 289.84 231.5V230.5C290.668 230.5 291.34 229.829 291.34 229H292.34ZM188.76 138.504C188.76 138.155 188.833 137.809 188.975 137.49L189.889 137.896C189.804 138.087 189.76 138.294 189.76 138.504H188.76ZM291.34 58.2002C291.34 57.3718 290.668 56.7002 289.84 56.7002V55.7002C291.221 55.7002 292.34 56.8195 292.34 58.2002H291.34Z" fill="#444B51"/>
<path d="M264.778 151.42C264.226 151.42 263.778 151.868 263.778 152.42V160.08C263.778 160.632 264.226 161.08 264.778 161.08H279.324C279.686 161.08 280.046 160.987 280.341 160.776C282.482 159.248 284.854 155.811 280.416 151.873C280.076 151.571 279.63 151.42 279.176 151.42H264.778Z" fill="#E4DBF5"/>
<path d="M280.81 71.8398C284.122 71.8398 285.257 74.9065 285.41 76.4398V139C285.41 141.765 283.246 143.123 281.967 143.532C281.811 143.582 281.647 143.6 281.484 143.6H225.61V139.92C225.61 138.291 224.649 137.504 224.003 137.238C223.852 137.175 223.688 137.16 223.524 137.16H215.49C213.794 137.16 213.01 138.464 212.778 139.268C212.741 139.395 212.73 139.526 212.73 139.658V143.6H204.803C204.57 143.6 204.336 143.562 204.123 143.468C200.466 141.852 201.567 137.095 202.61 134.86C210.584 115.54 226.714 76.4398 227.45 74.5998C228.146 72.8614 229.991 72.0811 230.968 71.8709C231.076 71.8478 231.186 71.8398 231.296 71.8398H280.81Z" fill="#E4DBF5"/>
<path d="M193.402 247.1C193.402 255.992 200.198 263.2 208.582 263.2C216.965 263.2 223.762 255.992 223.762 247.1C223.762 238.208 216.965 231 208.582 231C200.198 231 193.402 238.208 193.402 247.1Z" fill="white"/>
<path d="M458.367 247.1C458.367 255.992 465.163 263.2 473.547 263.2C481.93 263.2 488.727 255.992 488.727 247.1C488.727 238.208 481.93 231 473.547 231C465.163 231 458.367 238.208 458.367 247.1Z" fill="white"/>
<path d="M538.84 231C542.154 231 544.84 228.314 544.84 225V30.9199C544.84 27.6062 542.154 24.9199 538.84 24.9199H316.841C315.736 24.9199 314.841 25.8154 314.841 26.9199V229C314.841 230.104 315.736 231 316.841 231H432.919C433.818 231 434.599 230.406 434.881 229.552C438.294 219.236 449.81 201.209 472.62 201.56C495.452 201.911 507.527 219.614 511.245 229.624C511.549 230.441 512.312 231 513.183 231H538.84Z" fill="#E4DBF5" stroke="#A880F2"/>
<path d="M212.722 143.6V139.658C212.722 139.526 212.732 139.395 212.769 139.268C213.001 138.464 213.785 137.16 215.482 137.16H223.515C223.679 137.16 223.843 137.176 223.995 137.238C224.641 137.504 225.602 138.292 225.602 139.92V143.6V162.92C225.602 163.687 225.234 165.22 223.762 165.22H215.482C214.562 165.22 212.722 164.576 212.722 162V152.8H207.888C207.443 152.8 207.002 152.661 206.691 152.343C205.516 151.144 204.438 148.941 206.68 146.808C207.002 146.501 207.443 146.36 207.888 146.36H212.722V143.6Z" fill="#495057"/>
<path d="M427.814 95.6648H427.293C426.136 95.6648 425.229 96.4006 425.229 97.3397V103.912C425.229 105.429 424.504 105.992 422.554 105.992C421.901 105.992 421.224 105.921 420.531 105.782V97.3401C420.531 97.2292 420.516 97.1213 420.49 97.0165C420.426 96.5066 420.076 96.0396 419.523 95.744L419.388 95.6719L419.24 95.6191C417.542 95.0142 415.636 94.6943 413.726 94.6943C409.075 94.6943 406.298 96.8415 406.298 100.437V107.03C406.298 107.117 406.314 107.201 406.329 107.284C406.221 108.545 405.466 109.025 403.67 109.025C403.017 109.025 402.34 108.955 401.647 108.815V100.374C401.647 100.266 401.631 100.162 401.607 100.059C401.546 99.546 401.196 99.0754 400.639 98.7778L400.504 98.7057L400.356 98.6526C398.658 98.0476 396.752 97.7282 394.842 97.7282C390.191 97.7282 387.414 99.8753 387.414 103.472V110.064C387.414 110.991 388.321 111.718 389.479 111.718H389.973C391.146 111.718 392.064 110.991 392.064 110.064V103.492C392.064 102.208 392.528 101.411 394.842 101.411C395.528 101.411 396.263 101.483 396.97 101.615V110.064C396.97 110.186 396.988 110.305 397.018 110.419C397.114 111.034 397.607 111.557 398.309 111.782C399.943 112.375 401.794 112.688 403.671 112.688C408.189 112.688 410.995 110.488 410.995 106.945V100.374C410.995 100.285 410.98 100.199 410.964 100.114C411.053 99.0339 411.63 98.3776 413.727 98.3776C414.412 98.3776 415.148 98.4497 415.855 98.5817V107.03C415.855 107.152 415.872 107.27 415.903 107.384C415.998 108 416.491 108.523 417.194 108.749C418.827 109.341 420.679 109.655 422.555 109.655C427.074 109.655 429.88 107.454 429.88 103.912V97.3401C429.878 96.4006 428.971 95.6648 427.814 95.6648Z" fill="#A97FF1"/>
<path d="M586.345 137.843L585.985 137.759C585.184 137.575 584.44 137.939 584.29 138.588L583.24 143.135C582.998 144.184 582.406 144.458 581.057 144.146C580.606 144.042 580.149 143.885 579.692 143.678L581.04 137.838C581.057 137.762 581.064 137.685 581.063 137.608C581.1 137.245 580.933 136.866 580.598 136.573L580.515 136.502L580.422 136.442C579.344 135.752 578.076 135.227 576.755 134.922C573.538 134.179 571.274 135.221 570.7 137.708L569.647 142.268C569.633 142.329 569.631 142.389 569.628 142.449C569.352 143.304 568.753 143.516 567.511 143.229C567.059 143.125 566.602 142.967 566.145 142.76L567.493 136.921C567.51 136.847 567.516 136.772 567.515 136.697C567.555 136.333 567.388 135.951 567.05 135.656L566.969 135.585L566.875 135.524C565.797 134.835 564.529 134.309 563.208 134.005C559.991 133.262 557.727 134.303 557.153 136.791L556.1 141.352C555.952 141.993 556.463 142.64 557.264 142.825L557.606 142.904C558.417 143.091 559.168 142.735 559.316 142.094L560.366 137.548C560.571 136.659 561.02 136.183 562.62 136.552C563.095 136.662 563.591 136.829 564.059 137.033L562.71 142.877C562.69 142.962 562.684 143.047 562.687 143.13C562.655 143.571 562.912 144.012 563.362 144.279C564.398 144.951 565.628 145.463 566.926 145.763C570.051 146.484 572.344 145.41 572.91 142.959L573.959 138.414C573.973 138.352 573.976 138.291 573.979 138.229C574.213 137.497 574.717 137.135 576.168 137.47C576.642 137.579 577.139 137.746 577.607 137.951L576.258 143.795C576.238 143.879 576.232 143.963 576.234 144.047C576.202 144.488 576.459 144.929 576.91 145.197C577.945 145.868 579.175 146.381 580.473 146.68C583.599 147.402 585.891 146.328 586.457 143.877L587.507 139.331C587.656 138.681 587.146 138.028 586.345 137.843Z" fill="#A97FF1"/>
<path d="M515.05 15.0993L514.688 15.1698C513.881 15.3266 513.349 15.9622 513.476 16.6166L514.366 21.1967C514.572 22.2535 514.143 22.7444 512.784 23.0085C512.329 23.097 511.848 23.1395 511.346 23.1359L510.202 17.2533C510.187 17.176 510.162 17.1029 510.13 17.0333C510.016 16.6867 509.709 16.4087 509.284 16.2775L509.179 16.2457L509.07 16.2288C507.804 16.0373 506.432 16.0727 505.102 16.3313C501.86 16.9614 500.216 18.8338 500.703 21.3396L501.596 25.9341C501.608 25.9948 501.63 26.0508 501.652 26.1066C501.748 27.0001 501.287 27.4372 500.035 27.6804C499.58 27.7689 499.099 27.8111 498.597 27.8079L497.453 21.9255C497.439 21.8504 497.414 21.7796 497.383 21.7117C497.271 21.3622 496.963 21.0816 496.535 20.9497L496.431 20.9178L496.321 20.9008C495.055 20.7092 493.684 20.7448 492.353 21.0035C489.112 21.6336 487.467 23.506 487.955 26.0123L488.848 30.6065C488.973 31.2523 489.703 31.6362 490.51 31.4794L490.855 31.4124C491.672 31.2535 492.213 30.6225 492.088 29.9767L491.198 25.3967C491.023 24.5015 491.239 23.8835 492.852 23.57C493.33 23.4771 493.852 23.4278 494.362 23.4243L495.507 29.3119C495.523 29.397 495.552 29.4771 495.588 29.5524C495.739 29.9683 496.153 30.2661 496.673 30.3273C497.892 30.5194 499.224 30.4872 500.532 30.2329C503.68 29.6209 505.338 27.7074 504.858 25.2382L503.968 20.6592C503.956 20.5969 503.933 20.5393 503.911 20.482C503.827 19.7175 504.14 19.1821 505.601 18.898C506.079 18.8051 506.601 18.7557 507.112 18.7519L508.256 24.6395C508.273 24.7244 508.301 24.8041 508.337 24.8793C508.487 25.2956 508.902 25.5937 509.422 25.6556C510.641 25.8475 511.973 25.8154 513.281 25.5612C516.43 24.9491 518.087 23.0351 517.607 20.5664L516.717 15.9869C516.589 15.3324 515.857 14.9425 515.05 15.0993Z" fill="#A97FF1"/>
<path d="M416.16 300.813C416.16 301.897 417.023 302.783 418.106 302.812L501.476 305.06C501.476 271.151 501.476 251.569 501.476 217.66L418.201 215.971C417.08 215.948 416.16 216.85 416.16 217.971V300.813Z" fill="#F2F2F2"/>
<path d="M501.476 217.66L580.183 214.127H500.582L501.476 217.66Z" fill="#E4DBF5"/>
<path d="M580.183 214.127L591.01 177.446C591.389 176.165 590.428 174.88 589.092 174.88H508.246C507.36 174.88 506.58 175.463 506.329 176.313L498.23 203.686C498.128 204.03 498.121 204.396 498.209 204.744L500.582 214.127H580.183Z" fill="#F2F2F2"/>
<path d="M501.476 305.06L578.295 300.762C579.354 300.703 580.183 299.827 580.183 298.765V214.127L501.476 217.66V305.06Z" fill="#F2F2F2"/>
<path d="M501.476 305.06L501.463 305.56L501.483 305.56L501.504 305.559L501.476 305.06ZM500.582 214.127L500.098 214.25L500.098 214.25L500.582 214.127ZM498.209 204.744L497.724 204.866L498.209 204.744ZM506.329 176.313L506.808 176.454L506.329 176.313ZM578.295 300.762L578.267 300.263L578.295 300.762ZM591.01 177.446L591.49 177.588L591.01 177.446ZM418.106 302.812L418.093 303.312L418.106 302.812ZM418.201 215.971L418.211 215.471L418.201 215.971ZM418.093 303.312L501.463 305.56L501.49 304.56L418.12 302.312L418.093 303.312ZM501.504 305.559L578.323 301.262L578.267 300.263L501.448 304.561L501.504 305.559ZM580.161 213.627L501.454 217.16L501.498 218.159L580.205 214.626L580.161 213.627ZM415.66 217.971V300.813H416.66V217.971H415.66ZM501.486 217.16L418.211 215.471L418.191 216.471L501.466 218.16L501.486 217.16ZM580.663 214.268L591.49 177.588L590.531 177.305L579.703 213.985L580.663 214.268ZM589.092 174.38H508.246V175.38H589.092V174.38ZM505.849 176.171L497.751 203.544L498.71 203.828L506.808 176.454L505.849 176.171ZM501.976 305.06C501.976 304.994 501.976 304.927 501.976 304.861C501.976 304.795 501.976 304.729 501.976 304.663C501.976 304.597 501.976 304.531 501.976 304.465C501.976 304.399 501.976 304.333 501.976 304.268C501.976 304.202 501.976 304.136 501.976 304.07C501.976 304.005 501.976 303.939 501.976 303.874C501.976 303.808 501.976 303.742 501.976 303.677C501.976 303.612 501.976 303.546 501.976 303.481C501.976 303.415 501.976 303.35 501.976 303.285C501.976 303.22 501.976 303.154 501.976 303.089C501.976 303.024 501.976 302.959 501.976 302.894C501.976 302.829 501.976 302.764 501.976 302.699C501.976 302.634 501.976 302.569 501.976 302.504C501.976 302.439 501.976 302.374 501.976 302.31C501.976 302.245 501.976 302.18 501.976 302.116C501.976 302.051 501.976 301.986 501.976 301.922C501.976 301.857 501.976 301.793 501.976 301.728C501.976 301.664 501.976 301.6 501.976 301.535C501.976 301.471 501.976 301.407 501.976 301.342C501.976 301.278 501.976 301.214 501.976 301.15C501.976 301.086 501.976 301.022 501.976 300.958C501.976 300.894 501.976 300.83 501.976 300.766C501.976 300.702 501.976 300.638 501.976 300.574C501.976 300.51 501.976 300.447 501.976 300.383C501.976 300.319 501.976 300.255 501.976 300.192C501.976 300.128 501.976 300.065 501.976 300.001C501.976 299.938 501.976 299.874 501.976 299.811C501.976 299.747 501.976 299.684 501.976 299.62C501.976 299.557 501.976 299.494 501.976 299.431C501.976 299.367 501.976 299.304 501.976 299.241C501.976 299.178 501.976 299.115 501.976 299.052C501.976 298.989 501.976 298.926 501.976 298.863C501.976 298.8 501.976 298.737 501.976 298.674C501.976 298.611 501.976 298.548 501.976 298.486C501.976 298.423 501.976 298.36 501.976 298.297C501.976 298.235 501.976 298.172 501.976 298.11C501.976 298.047 501.976 297.985 501.976 297.922C501.976 297.86 501.976 297.797 501.976 297.735C501.976 297.672 501.976 297.61 501.976 297.548C501.976 297.485 501.976 297.423 501.976 297.361C501.976 297.299 501.976 297.237 501.976 297.175C501.976 297.112 501.976 297.05 501.976 296.988C501.976 296.926 501.976 296.864 501.976 296.802C501.976 296.741 501.976 296.679 501.976 296.617C501.976 296.555 501.976 296.493 501.976 296.431C501.976 296.37 501.976 296.308 501.976 296.246C501.976 296.185 501.976 296.123 501.976 296.062C501.976 296 501.976 295.938 501.976 295.877C501.976 295.816 501.976 295.754 501.976 295.693C501.976 295.631 501.976 295.57 501.976 295.509C501.976 295.447 501.976 295.386 501.976 295.325C501.976 295.264 501.976 295.203 501.976 295.141C501.976 295.08 501.976 295.019 501.976 294.958C501.976 294.897 501.976 294.836 501.976 294.775C501.976 294.714 501.976 294.653 501.976 294.593C501.976 294.532 501.976 294.471 501.976 294.41C501.976 294.349 501.976 294.289 501.976 294.228C501.976 294.167 501.976 294.107 501.976 294.046C501.976 293.985 501.976 293.925 501.976 293.864C501.976 293.804 501.976 293.743 501.976 293.683C501.976 293.622 501.976 293.562 501.976 293.502C501.976 293.441 501.976 293.381 501.976 293.321C501.976 293.26 501.976 293.2 501.976 293.14C501.976 293.08 501.976 293.02 501.976 292.959C501.976 292.899 501.976 292.839 501.976 292.779C501.976 292.719 501.976 292.659 501.976 292.599C501.976 292.539 501.976 292.479 501.976 292.42C501.976 292.36 501.976 292.3 501.976 292.24C501.976 292.18 501.976 292.121 501.976 292.061C501.976 292.001 501.976 291.942 501.976 291.882C501.976 291.822 501.976 291.763 501.976 291.703C501.976 291.644 501.976 291.584 501.976 291.525C501.976 291.465 501.976 291.406 501.976 291.346C501.976 291.287 501.976 291.228 501.976 291.168C501.976 291.109 501.976 291.05 501.976 290.991C501.976 290.931 501.976 290.872 501.976 290.813C501.976 290.754 501.976 290.695 501.976 290.636C501.976 290.577 501.976 290.517 501.976 290.458C501.976 290.399 501.976 290.341 501.976 290.282C501.976 290.223 501.976 290.164 501.976 290.105C501.976 290.046 501.976 289.987 501.976 289.929C501.976 289.87 501.976 289.811 501.976 289.752C501.976 289.694 501.976 289.635 501.976 289.576C501.976 289.518 501.976 289.459 501.976 289.401C501.976 289.342 501.976 289.283 501.976 289.225C501.976 289.166 501.976 289.108 501.976 289.05C501.976 288.991 501.976 288.933 501.976 288.875C501.976 288.816 501.976 288.758 501.976 288.7C501.976 288.641 501.976 288.583 501.976 288.525C501.976 288.467 501.976 288.409 501.976 288.35C501.976 288.292 501.976 288.234 501.976 288.176C501.976 288.118 501.976 288.06 501.976 288.002C501.976 287.944 501.976 287.886 501.976 287.828C501.976 287.77 501.976 287.713 501.976 287.655C501.976 287.597 501.976 287.539 501.976 287.481C501.976 287.424 501.976 287.366 501.976 287.308C501.976 287.25 501.976 287.193 501.976 287.135C501.976 287.077 501.976 287.02 501.976 286.962C501.976 286.905 501.976 286.847 501.976 286.79C501.976 286.732 501.976 286.675 501.976 286.617C501.976 286.56 501.976 286.502 501.976 286.445C501.976 286.388 501.976 286.33 501.976 286.273C501.976 286.216 501.976 286.159 501.976 286.101C501.976 286.044 501.976 285.987 501.976 285.93C501.976 285.873 501.976 285.815 501.976 285.758C501.976 285.701 501.976 285.644 501.976 285.587C501.976 285.53 501.976 285.473 501.976 285.416C501.976 285.359 501.976 285.302 501.976 285.245C501.976 285.188 501.976 285.131 501.976 285.075C501.976 285.018 501.976 284.961 501.976 284.904C501.976 284.847 501.976 284.791 501.976 284.734C501.976 284.677 501.976 284.62 501.976 284.564C501.976 284.507 501.976 284.45 501.976 284.394C501.976 284.337 501.976 284.281 501.976 284.224C501.976 284.168 501.976 284.111 501.976 284.055C501.976 283.998 501.976 283.942 501.976 283.885C501.976 283.829 501.976 283.772 501.976 283.716C501.976 283.66 501.976 283.603 501.976 283.547C501.976 283.491 501.976 283.434 501.976 283.378C501.976 283.322 501.976 283.266 501.976 283.21C501.976 283.153 501.976 283.097 501.976 283.041C501.976 282.985 501.976 282.929 501.976 282.873C501.976 282.817 501.976 282.761 501.976 282.705C501.976 282.649 501.976 282.593 501.976 282.537C501.976 282.481 501.976 282.425 501.976 282.369C501.976 282.313 501.976 282.257 501.976 282.201C501.976 282.145 501.976 282.09 501.976 282.034C501.976 281.978 501.976 281.922 501.976 281.867C501.976 281.811 501.976 281.755 501.976 281.699C501.976 281.644 501.976 281.588 501.976 281.533C501.976 281.477 501.976 281.421 501.976 281.366C501.976 281.31 501.976 281.255 501.976 281.199C501.976 281.144 501.976 281.088 501.976 281.033C501.976 280.977 501.976 280.922 501.976 280.866C501.976 280.811 501.976 280.755 501.976 280.7C501.976 280.645 501.976 280.589 501.976 280.534C501.976 280.479 501.976 280.423 501.976 280.368C501.976 280.313 501.976 280.258 501.976 280.203C501.976 280.147 501.976 280.092 501.976 280.037C501.976 279.982 501.976 279.927 501.976 279.872C501.976 279.816 501.976 279.761 501.976 279.706C501.976 279.651 501.976 279.596 501.976 279.541C501.976 279.486 501.976 279.431 501.976 279.376C501.976 279.321 501.976 279.266 501.976 279.211C501.976 279.157 501.976 279.102 501.976 279.047C501.976 278.992 501.976 278.937 501.976 278.882C501.976 278.827 501.976 278.773 501.976 278.718C501.976 278.663 501.976 278.608 501.976 278.554C501.976 278.499 501.976 278.444 501.976 278.389C501.976 278.335 501.976 278.28 501.976 278.225C501.976 278.171 501.976 278.116 501.976 278.062C501.976 278.007 501.976 277.952 501.976 277.898C501.976 277.843 501.976 277.789 501.976 277.734C501.976 277.68 501.976 277.625 501.976 277.571C501.976 277.516 501.976 277.462 501.976 277.408C501.976 277.353 501.976 277.299 501.976 277.244C501.976 277.19 501.976 277.136 501.976 277.081C501.976 277.027 501.976 276.973 501.976 276.918C501.976 276.864 501.976 276.81 501.976 276.756C501.976 276.701 501.976 276.647 501.976 276.593C501.976 276.539 501.976 276.485 501.976 276.43C501.976 276.376 501.976 276.322 501.976 276.268C501.976 276.214 501.976 276.16 501.976 276.106C501.976 276.052 501.976 275.998 501.976 275.943C501.976 275.889 501.976 275.835 501.976 275.781C501.976 275.727 501.976 275.673 501.976 275.619C501.976 275.565 501.976 275.512 501.976 275.458C501.976 275.404 501.976 275.35 501.976 275.296C501.976 275.242 501.976 275.188 501.976 275.134C501.976 275.08 501.976 275.027 501.976 274.973C501.976 274.919 501.976 274.865 501.976 274.811C501.976 274.758 501.976 274.704 501.976 274.65C501.976 274.596 501.976 274.543 501.976 274.489C501.976 274.435 501.976 274.382 501.976 274.328C501.976 274.274 501.976 274.221 501.976 274.167C501.976 274.113 501.976 274.06 501.976 274.006C501.976 273.952 501.976 273.899 501.976 273.845C501.976 273.792 501.976 273.738 501.976 273.685C501.976 273.631 501.976 273.578 501.976 273.524C501.976 273.471 501.976 273.417 501.976 273.364C501.976 273.31 501.976 273.257 501.976 273.203C501.976 273.15 501.976 273.096 501.976 273.043C501.976 272.99 501.976 272.936 501.976 272.883C501.976 272.829 501.976 272.776 501.976 272.723C501.976 272.669 501.976 272.616 501.976 272.563C501.976 272.509 501.976 272.456 501.976 272.403C501.976 272.35 501.976 272.296 501.976 272.243C501.976 272.19 501.976 272.137 501.976 272.083C501.976 272.03 501.976 271.977 501.976 271.924C501.976 271.87 501.976 271.817 501.976 271.764C501.976 271.711 501.976 271.658 501.976 271.605C501.976 271.552 501.976 271.498 501.976 271.445C501.976 271.392 501.976 271.339 501.976 271.286C501.976 271.233 501.976 271.18 501.976 271.127C501.976 271.074 501.976 271.021 501.976 270.968C501.976 270.915 501.976 270.862 501.976 270.809C501.976 270.756 501.976 270.703 501.976 270.65C501.976 270.597 501.976 270.544 501.976 270.491C501.976 270.438 501.976 270.385 501.976 270.332C501.976 270.279 501.976 270.226 501.976 270.173C501.976 270.12 501.976 270.067 501.976 270.014C501.976 269.962 501.976 269.909 501.976 269.856C501.976 269.803 501.976 269.75 501.976 269.697C501.976 269.644 501.976 269.592 501.976 269.539C501.976 269.486 501.976 269.433 501.976 269.38C501.976 269.328 501.976 269.275 501.976 269.222C501.976 269.169 501.976 269.117 501.976 269.064C501.976 269.011 501.976 268.958 501.976 268.906C501.976 268.853 501.976 268.8 501.976 268.747C501.976 268.695 501.976 268.642 501.976 268.589C501.976 268.537 501.976 268.484 501.976 268.431C501.976 268.379 501.976 268.326 501.976 268.273C501.976 268.221 501.976 268.168 501.976 268.115C501.976 268.063 501.976 268.01 501.976 267.958C501.976 267.905 501.976 267.852 501.976 267.8C501.976 267.747 501.976 267.695 501.976 267.642C501.976 267.589 501.976 267.537 501.976 267.484C501.976 267.432 501.976 267.379 501.976 267.327C501.976 267.274 501.976 267.221 501.976 267.169C501.976 267.116 501.976 267.064 501.976 267.011C501.976 266.959 501.976 266.906 501.976 266.854C501.976 266.801 501.976 266.749 501.976 266.696C501.976 266.644 501.976 266.591 501.976 266.539C501.976 266.486 501.976 266.434 501.976 266.382C501.976 266.329 501.976 266.277 501.976 266.224C501.976 266.172 501.976 266.119 501.976 266.067C501.976 266.014 501.976 265.962 501.976 265.91C501.976 265.857 501.976 265.805 501.976 265.752C501.976 265.7 501.976 265.648 501.976 265.595C501.976 265.543 501.976 265.49 501.976 265.438C501.976 265.386 501.976 265.333 501.976 265.281C501.976 265.229 501.976 265.176 501.976 265.124C501.976 265.071 501.976 265.019 501.976 264.967C501.976 264.914 501.976 264.862 501.976 264.81C501.976 264.757 501.976 264.705 501.976 264.653C501.976 264.6 501.976 264.548 501.976 264.496C501.976 264.443 501.976 264.391 501.976 264.339C501.976 264.286 501.976 264.234 501.976 264.182C501.976 264.13 501.976 264.077 501.976 264.025C501.976 263.973 501.976 263.92 501.976 263.868C501.976 263.816 501.976 263.763 501.976 263.711C501.976 263.659 501.976 263.607 501.976 263.554C501.976 263.502 501.976 263.45 501.976 263.398C501.976 263.345 501.976 263.293 501.976 263.241C501.976 263.188 501.976 263.136 501.976 263.084C501.976 263.032 501.976 262.979 501.976 262.927C501.976 262.875 501.976 262.823 501.976 262.77C501.976 262.718 501.976 262.666 501.976 262.614C501.976 262.561 501.976 262.509 501.976 262.457C501.976 262.405 501.976 262.352 501.976 262.3C501.976 262.248 501.976 262.196 501.976 262.143C501.976 262.091 501.976 262.039 501.976 261.987C501.976 261.934 501.976 261.882 501.976 261.83C501.976 261.778 501.976 261.725 501.976 261.673C501.976 261.621 501.976 261.569 501.976 261.517C501.976 261.464 501.976 261.412 501.976 261.36C501.976 261.308 501.976 261.255 501.976 261.203C501.976 261.151 501.976 261.099 501.976 261.046C501.976 260.994 501.976 260.942 501.976 260.89C501.976 260.837 501.976 260.785 501.976 260.733C501.976 260.681 501.976 260.628 501.976 260.576C501.976 260.524 501.976 260.472 501.976 260.42C501.976 260.367 501.976 260.315 501.976 260.263C501.976 260.211 501.976 260.158 501.976 260.106C501.976 260.054 501.976 260.002 501.976 259.949C501.976 259.897 501.976 259.845 501.976 259.793C501.976 259.74 501.976 259.688 501.976 259.636C501.976 259.583 501.976 259.531 501.976 259.479C501.976 259.427 501.976 259.374 501.976 259.322C501.976 259.27 501.976 259.218 501.976 259.165C501.976 259.113 501.976 259.061 501.976 259.008C501.976 258.956 501.976 258.904 501.976 258.852C501.976 258.799 501.976 258.747 501.976 258.695C501.976 258.642 501.976 258.59 501.976 258.538C501.976 258.485 501.976 258.433 501.976 258.381C501.976 258.329 501.976 258.276 501.976 258.224C501.976 258.172 501.976 258.119 501.976 258.067C501.976 258.015 501.976 257.962 501.976 257.91C501.976 257.858 501.976 257.805 501.976 257.753C501.976 257.701 501.976 257.648 501.976 257.596C501.976 257.543 501.976 257.491 501.976 257.439C501.976 257.386 501.976 257.334 501.976 257.282C501.976 257.229 501.976 257.177 501.976 257.124C501.976 257.072 501.976 257.02 501.976 256.967C501.976 256.915 501.976 256.862 501.976 256.81C501.976 256.758 501.976 256.705 501.976 256.653C501.976 256.6 501.976 256.548 501.976 256.495C501.976 256.443 501.976 256.391 501.976 256.338C501.976 256.286 501.976 256.233 501.976 256.181C501.976 256.128 501.976 256.076 501.976 256.023C501.976 255.971 501.976 255.918 501.976 255.866C501.976 255.813 501.976 255.761 501.976 255.708C501.976 255.656 501.976 255.603 501.976 255.551C501.976 255.498 501.976 255.446 501.976 255.393C501.976 255.341 501.976 255.288 501.976 255.235C501.976 255.183 501.976 255.13 501.976 255.078C501.976 255.025 501.976 254.973 501.976 254.92C501.976 254.867 501.976 254.815 501.976 254.762C501.976 254.71 501.976 254.657 501.976 254.604C501.976 254.552 501.976 254.499 501.976 254.446C501.976 254.394 501.976 254.341 501.976 254.288C501.976 254.236 501.976 254.183 501.976 254.13C501.976 254.078 501.976 254.025 501.976 253.972C501.976 253.92 501.976 253.867 501.976 253.814C501.976 253.761 501.976 253.709 501.976 253.656C501.976 253.603 501.976 253.55 501.976 253.498C501.976 253.445 501.976 253.392 501.976 253.339C501.976 253.286 501.976 253.234 501.976 253.181C501.976 253.128 501.976 253.075 501.976 253.022C501.976 252.97 501.976 252.917 501.976 252.864C501.976 252.811 501.976 252.758 501.976 252.705C501.976 252.652 501.976 252.599 501.976 252.547C501.976 252.494 501.976 252.441 501.976 252.388C501.976 252.335 501.976 252.282 501.976 252.229C501.976 252.176 501.976 252.123 501.976 252.07C501.976 252.017 501.976 251.964 501.976 251.911C501.976 251.858 501.976 251.805 501.976 251.752C501.976 251.699 501.976 251.646 501.976 251.593C501.976 251.54 501.976 251.487 501.976 251.434C501.976 251.381 501.976 251.327 501.976 251.274C501.976 251.221 501.976 251.168 501.976 251.115C501.976 251.062 501.976 251.009 501.976 250.956C501.976 250.902 501.976 250.849 501.976 250.796C501.976 250.743 501.976 250.69 501.976 250.636C501.976 250.583 501.976 250.53 501.976 250.477C501.976 250.423 501.976 250.37 501.976 250.317C501.976 250.264 501.976 250.21 501.976 250.157C501.976 250.104 501.976 250.05 501.976 249.997C501.976 249.944 501.976 249.89 501.976 249.837C501.976 249.783 501.976 249.73 501.976 249.677C501.976 249.623 501.976 249.57 501.976 249.516C501.976 249.463 501.976 249.41 501.976 249.356C501.976 249.303 501.976 249.249 501.976 249.196C501.976 249.142 501.976 249.089 501.976 249.035C501.976 248.982 501.976 248.928 501.976 248.874C501.976 248.821 501.976 248.767 501.976 248.714C501.976 248.66 501.976 248.606 501.976 248.553C501.976 248.499 501.976 248.445 501.976 248.392C501.976 248.338 501.976 248.284 501.976 248.231C501.976 248.177 501.976 248.123 501.976 248.07C501.976 248.016 501.976 247.962 501.976 247.908C501.976 247.854 501.976 247.801 501.976 247.747C501.976 247.693 501.976 247.639 501.976 247.585C501.976 247.532 501.976 247.478 501.976 247.424C501.976 247.37 501.976 247.316 501.976 247.262C501.976 247.208 501.976 247.154 501.976 247.1C501.976 247.046 501.976 246.992 501.976 246.938C501.976 246.884 501.976 246.83 501.976 246.776C501.976 246.722 501.976 246.668 501.976 246.614C501.976 246.56 501.976 246.506 501.976 246.452C501.976 246.398 501.976 246.343 501.976 246.289C501.976 246.235 501.976 246.181 501.976 246.127C501.976 246.072 501.976 246.018 501.976 245.964C501.976 245.91 501.976 245.855 501.976 245.801C501.976 245.747 501.976 245.693 501.976 245.638C501.976 245.584 501.976 245.53 501.976 245.475C501.976 245.421 501.976 245.366 501.976 245.312C501.976 245.258 501.976 245.203 501.976 245.149C501.976 245.094 501.976 245.04 501.976 244.985C501.976 244.931 501.976 244.876 501.976 244.822C501.976 244.767 501.976 244.713 501.976 244.658C501.976 244.603 501.976 244.549 501.976 244.494C501.976 244.44 501.976 244.385 501.976 244.33C501.976 244.276 501.976 244.221 501.976 244.166C501.976 244.111 501.976 244.057 501.976 244.002C501.976 243.947 501.976 243.892 501.976 243.837C501.976 243.783 501.976 243.728 501.976 243.673C501.976 243.618 501.976 243.563 501.976 243.508C501.976 243.453 501.976 243.398 501.976 243.343C501.976 243.288 501.976 243.233 501.976 243.178C501.976 243.123 501.976 243.068 501.976 243.013C501.976 242.958 501.976 242.903 501.976 242.848C501.976 242.793 501.976 242.738 501.976 242.683C501.976 242.628 501.976 242.572 501.976 242.517C501.976 242.462 501.976 242.407 501.976 242.351C501.976 242.296 501.976 242.241 501.976 242.186C501.976 242.13 501.976 242.075 501.976 242.02C501.976 241.964 501.976 241.909 501.976 241.853C501.976 241.798 501.976 241.743 501.976 241.687C501.976 241.632 501.976 241.576 501.976 241.521C501.976 241.465 501.976 241.41 501.976 241.354C501.976 241.298 501.976 241.243 501.976 241.187C501.976 241.132 501.976 241.076 501.976 241.02C501.976 240.965 501.976 240.909 501.976 240.853C501.976 240.797 501.976 240.742 501.976 240.686C501.976 240.63 501.976 240.574 501.976 240.518C501.976 240.462 501.976 240.407 501.976 240.351C501.976 240.295 501.976 240.239 501.976 240.183C501.976 240.127 501.976 240.071 501.976 240.015C501.976 239.959 501.976 239.903 501.976 239.847C501.976 239.791 501.976 239.735 501.976 239.679C501.976 239.622 501.976 239.566 501.976 239.51C501.976 239.454 501.976 239.398 501.976 239.341C501.976 239.285 501.976 239.229 501.976 239.173C501.976 239.116 501.976 239.06 501.976 239.004C501.976 238.947 501.976 238.891 501.976 238.834C501.976 238.778 501.976 238.722 501.976 238.665C501.976 238.609 501.976 238.552 501.976 238.496C501.976 238.439 501.976 238.382 501.976 238.326C501.976 238.269 501.976 238.213 501.976 238.156C501.976 238.099 501.976 238.043 501.976 237.986C501.976 237.929 501.976 237.872 501.976 237.816C501.976 237.759 501.976 237.702 501.976 237.645C501.976 237.588 501.976 237.531 501.976 237.474C501.976 237.418 501.976 237.361 501.976 237.304C501.976 237.247 501.976 237.19 501.976 237.133C501.976 237.076 501.976 237.018 501.976 236.961C501.976 236.904 501.976 236.847 501.976 236.79C501.976 236.733 501.976 236.676 501.976 236.618C501.976 236.561 501.976 236.504 501.976 236.447C501.976 236.389 501.976 236.332 501.976 236.275C501.976 236.217 501.976 236.16 501.976 236.102C501.976 236.045 501.976 235.987 501.976 235.93C501.976 235.872 501.976 235.815 501.976 235.757C501.976 235.7 501.976 235.642 501.976 235.585C501.976 235.527 501.976 235.469 501.976 235.412C501.976 235.354 501.976 235.296 501.976 235.238C501.976 235.181 501.976 235.123 501.976 235.065C501.976 235.007 501.976 234.949 501.976 234.891C501.976 234.833 501.976 234.775 501.976 234.717C501.976 234.659 501.976 234.601 501.976 234.543C501.976 234.485 501.976 234.427 501.976 234.369C501.976 234.311 501.976 234.253 501.976 234.195C501.976 234.137 501.976 234.078 501.976 234.02C501.976 233.962 501.976 233.903 501.976 233.845C501.976 233.787 501.976 233.728 501.976 233.67C501.976 233.612 501.976 233.553 501.976 233.495C501.976 233.436 501.976 233.378 501.976 233.319C501.976 233.261 501.976 233.202 501.976 233.143C501.976 233.085 501.976 233.026 501.976 232.967C501.976 232.909 501.976 232.85 501.976 232.791C501.976 232.732 501.976 232.674 501.976 232.615C501.976 232.556 501.976 232.497 501.976 232.438C501.976 232.379 501.976 232.32 501.976 232.261C501.976 232.202 501.976 232.143 501.976 232.084C501.976 232.025 501.976 231.966 501.976 231.907C501.976 231.848 501.976 231.788 501.976 231.729C501.976 231.67 501.976 231.611 501.976 231.551C501.976 231.492 501.976 231.433 501.976 231.373C501.976 231.314 501.976 231.254 501.976 231.195C501.976 231.136 501.976 231.076 501.976 231.016C501.976 230.957 501.976 230.897 501.976 230.838C501.976 230.778 501.976 230.718 501.976 230.659C501.976 230.599 501.976 230.539 501.976 230.479C501.976 230.42 501.976 230.36 501.976 230.3C501.976 230.24 501.976 230.18 501.976 230.12C501.976 230.06 501.976 230 501.976 229.94C501.976 229.88 501.976 229.82 501.976 229.76C501.976 229.7 501.976 229.64 501.976 229.58C501.976 229.52 501.976 229.459 501.976 229.399C501.976 229.339 501.976 229.278 501.976 229.218C501.976 229.158 501.976 229.097 501.976 229.037C501.976 228.976 501.976 228.916 501.976 228.855C501.976 228.795 501.976 228.734 501.976 228.674C501.976 228.613 501.976 228.552 501.976 228.492C501.976 228.431 501.976 228.37 501.976 228.31C501.976 228.249 501.976 228.188 501.976 228.127C501.976 228.066 501.976 228.005 501.976 227.944C501.976 227.883 501.976 227.822 501.976 227.761C501.976 227.7 501.976 227.639 501.976 227.578C501.976 227.517 501.976 227.456 501.976 227.395C501.976 227.334 501.976 227.272 501.976 227.211C501.976 227.15 501.976 227.088 501.976 227.027C501.976 226.966 501.976 226.904 501.976 226.843C501.976 226.781 501.976 226.72 501.976 226.658C501.976 226.597 501.976 226.535 501.976 226.473C501.976 226.412 501.976 226.35 501.976 226.288C501.976 226.226 501.976 226.165 501.976 226.103C501.976 226.041 501.976 225.979 501.976 225.917C501.976 225.855 501.976 225.793 501.976 225.731C501.976 225.669 501.976 225.607 501.976 225.545C501.976 225.483 501.976 225.421 501.976 225.359C501.976 225.296 501.976 225.234 501.976 225.172C501.976 225.11 501.976 225.047 501.976 224.985C501.976 224.923 501.976 224.86 501.976 224.798C501.976 224.735 501.976 224.673 501.976 224.61C501.976 224.547 501.976 224.485 501.976 224.422C501.976 224.36 501.976 224.297 501.976 224.234C501.976 224.171 501.976 224.108 501.976 224.046C501.976 223.983 501.976 223.92 501.976 223.857C501.976 223.794 501.976 223.731 501.976 223.668C501.976 223.605 501.976 223.542 501.976 223.479C501.976 223.415 501.976 223.352 501.976 223.289C501.976 223.226 501.976 223.163 501.976 223.099C501.976 223.036 501.976 222.972 501.976 222.909C501.976 222.846 501.976 222.782 501.976 222.719C501.976 222.655 501.976 222.591 501.976 222.528C501.976 222.464 501.976 222.401 501.976 222.337C501.976 222.273 501.976 222.209 501.976 222.145C501.976 222.082 501.976 222.018 501.976 221.954C501.976 221.89 501.976 221.826 501.976 221.762C501.976 221.698 501.976 221.634 501.976 221.57C501.976 221.506 501.976 221.441 501.976 221.377C501.976 221.313 501.976 221.249 501.976 221.184C501.976 221.12 501.976 221.056 501.976 220.991C501.976 220.927 501.976 220.862 501.976 220.798C501.976 220.733 501.976 220.669 501.976 220.604C501.976 220.539 501.976 220.475 501.976 220.41C501.976 220.345 501.976 220.28 501.976 220.216C501.976 220.151 501.976 220.086 501.976 220.021C501.976 219.956 501.976 219.891 501.976 219.826C501.976 219.761 501.976 219.696 501.976 219.631C501.976 219.565 501.976 219.5 501.976 219.435C501.976 219.37 501.976 219.304 501.976 219.239C501.976 219.174 501.976 219.108 501.976 219.043C501.976 218.977 501.976 218.912 501.976 218.846C501.976 218.781 501.976 218.715 501.976 218.649C501.976 218.583 501.976 218.518 501.976 218.452C501.976 218.386 501.976 218.32 501.976 218.254C501.976 218.189 501.976 218.123 501.976 218.057C501.976 217.991 501.976 217.924 501.976 217.858C501.976 217.792 501.976 217.726 501.976 217.66H500.976C500.976 217.726 500.976 217.792 500.976 217.858C500.976 217.924 500.976 217.991 500.976 218.057C500.976 218.123 500.976 218.189 500.976 218.254C500.976 218.32 500.976 218.386 500.976 218.452C500.976 218.518 500.976 218.583 500.976 218.649C500.976 218.715 500.976 218.781 500.976 218.846C500.976 218.912 500.976 218.977 500.976 219.043C500.976 219.108 500.976 219.174 500.976 219.239C500.976 219.304 500.976 219.37 500.976 219.435C500.976 219.5 500.976 219.565 500.976 219.631C500.976 219.696 500.976 219.761 500.976 219.826C500.976 219.891 500.976 219.956 500.976 220.021C500.976 220.086 500.976 220.151 500.976 220.216C500.976 220.28 500.976 220.345 500.976 220.41C500.976 220.475 500.976 220.539 500.976 220.604C500.976 220.669 500.976 220.733 500.976 220.798C500.976 220.862 500.976 220.927 500.976 220.991C500.976 221.056 500.976 221.12 500.976 221.184C500.976 221.249 500.976 221.313 500.976 221.377C500.976 221.441 500.976 221.506 500.976 221.57C500.976 221.634 500.976 221.698 500.976 221.762C500.976 221.826 500.976 221.89 500.976 221.954C500.976 222.018 500.976 222.082 500.976 222.145C500.976 222.209 500.976 222.273 500.976 222.337C500.976 222.401 500.976 222.464 500.976 222.528C500.976 222.591 500.976 222.655 500.976 222.719C500.976 222.782 500.976 222.846 500.976 222.909C500.976 222.972 500.976 223.036 500.976 223.099C500.976 223.163 500.976 223.226 500.976 223.289C500.976 223.352 500.976 223.415 500.976 223.479C500.976 223.542 500.976 223.605 500.976 223.668C500.976 223.731 500.976 223.794 500.976 223.857C500.976 223.92 500.976 223.983 500.976 224.046C500.976 224.108 500.976 224.171 500.976 224.234C500.976 224.297 500.976 224.36 500.976 224.422C500.976 224.485 500.976 224.547 500.976 224.61C500.976 224.673 500.976 224.735 500.976 224.798C500.976 224.86 500.976 224.923 500.976 224.985C500.976 225.047 500.976 225.11 500.976 225.172C500.976 225.234 500.976 225.296 500.976 225.359C500.976 225.421 500.976 225.483 500.976 225.545C500.976 225.607 500.976 225.669 500.976 225.731C500.976 225.793 500.976 225.855 500.976 225.917C500.976 225.979 500.976 226.041 500.976 226.103C500.976 226.165 500.976 226.226 500.976 226.288C500.976 226.35 500.976 226.412 500.976 226.473C500.976 226.535 500.976 226.597 500.976 226.658C500.976 226.72 500.976 226.781 500.976 226.843C500.976 226.904 500.976 226.966 500.976 227.027C500.976 227.088 500.976 227.15 500.976 227.211C500.976 227.272 500.976 227.334 500.976 227.395C500.976 227.456 500.976 227.517 500.976 227.578C500.976 227.639 500.976 227.7 500.976 227.761C500.976 227.822 500.976 227.883 500.976 227.944C500.976 228.005 500.976 228.066 500.976 228.127C500.976 228.188 500.976 228.249 500.976 228.31C500.976 228.37 500.976 228.431 500.976 228.492C500.976 228.552 500.976 228.613 500.976 228.674C500.976 228.734 500.976 228.795 500.976 228.855C500.976 228.916 500.976 228.976 500.976 229.037C500.976 229.097 500.976 229.158 500.976 229.218C500.976 229.278 500.976 229.339 500.976 229.399C500.976 229.459 500.976 229.52 500.976 229.58C500.976 229.64 500.976 229.7 500.976 229.76C500.976 229.82 500.976 229.88 500.976 229.94C500.976 230 500.976 230.06 500.976 230.12C500.976 230.18 500.976 230.24 500.976 230.3C500.976 230.36 500.976 230.42 500.976 230.479C500.976 230.539 500.976 230.599 500.976 230.659C500.976 230.718 500.976 230.778 500.976 230.838C500.976 230.897 500.976 230.957 500.976 231.016C500.976 231.076 500.976 231.136 500.976 231.195C500.976 231.254 500.976 231.314 500.976 231.373C500.976 231.433 500.976 231.492 500.976 231.551C500.976 231.611 500.976 231.67 500.976 231.729C500.976 231.788 500.976 231.848 500.976 231.907C500.976 231.966 500.976 232.025 500.976 232.084C500.976 232.143 500.976 232.202 500.976 232.261C500.976 232.32 500.976 232.379 500.976 232.438C500.976 232.497 500.976 232.556 500.976 232.615C500.976 232.674 500.976 232.732 500.976 232.791C500.976 232.85 500.976 232.909 500.976 232.967C500.976 233.026 500.976 233.085 500.976 233.143C500.976 233.202 500.976 233.261 500.976 233.319C500.976 233.378 500.976 233.436 500.976 233.495C500.976 233.553 500.976 233.612 500.976 233.67C500.976 233.728 500.976 233.787 500.976 233.845C500.976 233.903 500.976 233.962 500.976 234.02C500.976 234.078 500.976 234.137 500.976 234.195C500.976 234.253 500.976 234.311 500.976 234.369C500.976 234.427 500.976 234.485 500.976 234.543C500.976 234.601 500.976 234.659 500.976 234.717C500.976 234.775 500.976 234.833 500.976 234.891C500.976 234.949 500.976 235.007 500.976 235.065C500.976 235.123 500.976 235.181 500.976 235.238C500.976 235.296 500.976 235.354 500.976 235.412C500.976 235.469 500.976 235.527 500.976 235.585C500.976 235.642 500.976 235.7 500.976 235.757C500.976 235.815 500.976 235.872 500.976 235.93C500.976 235.987 500.976 236.045 500.976 236.102C500.976 236.16 500.976 236.217 500.976 236.275C500.976 236.332 500.976 236.389 500.976 236.447C500.976 236.504 500.976 236.561 500.976 236.618C500.976 236.676 500.976 236.733 500.976 236.79C500.976 236.847 500.976 236.904 500.976 236.961C500.976 237.018 500.976 237.076 500.976 237.133C500.976 237.19 500.976 237.247 500.976 237.304C500.976 237.361 500.976 237.418 500.976 237.474C500.976 237.531 500.976 237.588 500.976 237.645C500.976 237.702 500.976 237.759 500.976 237.816C500.976 237.872 500.976 237.929 500.976 237.986C500.976 238.043 500.976 238.099 500.976 238.156C500.976 238.213 500.976 238.269 500.976 238.326C500.976 238.382 500.976 238.439 500.976 238.496C500.976 238.552 500.976 238.609 500.976 238.665C500.976 238.722 500.976 238.778 500.976 238.834C500.976 238.891 500.976 238.947 500.976 239.004C500.976 239.06 500.976 239.116 500.976 239.173C500.976 239.229 500.976 239.285 500.976 239.341C500.976 239.398 500.976 239.454 500.976 239.51C500.976 239.566 500.976 239.622 500.976 239.679C500.976 239.735 500.976 239.791 500.976 239.847C500.976 239.903 500.976 239.959 500.976 240.015C500.976 240.071 500.976 240.127 500.976 240.183C500.976 240.239 500.976 240.295 500.976 240.351C500.976 240.407 500.976 240.462 500.976 240.518C500.976 240.574 500.976 240.63 500.976 240.686C500.976 240.742 500.976 240.797 500.976 240.853C500.976 240.909 500.976 240.965 500.976 241.02C500.976 241.076 500.976 241.132 500.976 241.187C500.976 241.243 500.976 241.298 500.976 241.354C500.976 241.41 500.976 241.465 500.976 241.521C500.976 241.576 500.976 241.632 500.976 241.687C500.976 241.743 500.976 241.798 500.976 241.853C500.976 241.909 500.976 241.964 500.976 242.02C500.976 242.075 500.976 242.13 500.976 242.186C500.976 242.241 500.976 242.296 500.976 242.351C500.976 242.407 500.976 242.462 500.976 242.517C500.976 242.572 500.976 242.628 500.976 242.683C500.976 242.738 500.976 242.793 500.976 242.848C500.976 242.903 500.976 242.958 500.976 243.013C500.976 243.068 500.976 243.123 500.976 243.178C500.976 243.233 500.976 243.288 500.976 243.343C500.976 243.398 500.976 243.453 500.976 243.508C500.976 243.563 500.976 243.618 500.976 243.673C500.976 243.728 500.976 243.783 500.976 243.837C500.976 243.892 500.976 243.947 500.976 244.002C500.976 244.057 500.976 244.111 500.976 244.166C500.976 244.221 500.976 244.276 500.976 244.33C500.976 244.385 500.976 244.44 500.976 244.494C500.976 244.549 500.976 244.603 500.976 244.658C500.976 244.713 500.976 244.767 500.976 244.822C500.976 244.876 500.976 244.931 500.976 244.985C500.976 245.04 500.976 245.094 500.976 245.149C500.976 245.203 500.976 245.258 500.976 245.312C500.976 245.366 500.976 245.421 500.976 245.475C500.976 245.53 500.976 245.584 500.976 245.638C500.976 245.693 500.976 245.747 500.976 245.801C500.976 245.855 500.976 245.91 500.976 245.964C500.976 246.018 500.976 246.072 500.976 246.127C500.976 246.181 500.976 246.235 500.976 246.289C500.976 246.343 500.976 246.398 500.976 246.452C500.976 246.506 500.976 246.56 500.976 246.614C500.976 246.668 500.976 246.722 500.976 246.776C500.976 246.83 500.976 246.884 500.976 246.938C500.976 246.992 500.976 247.046 500.976 247.1C500.976 247.154 500.976 247.208 500.976 247.262C500.976 247.316 500.976 247.37 500.976 247.424C500.976 247.478 500.976 247.532 500.976 247.585C500.976 247.639 500.976 247.693 500.976 247.747C500.976 247.801 500.976 247.854 500.976 247.908C500.976 247.962 500.976 248.016 500.976 248.07C500.976 248.123 500.976 248.177 500.976 248.231C500.976 248.284 500.976 248.338 500.976 248.392C500.976 248.445 500.976 248.499 500.976 248.553C500.976 248.606 500.976 248.66 500.976 248.714C500.976 248.767 500.976 248.821 500.976 248.874C500.976 248.928 500.976 248.982 500.976 249.035C500.976 249.089 500.976 249.142 500.976 249.196C500.976 249.249 500.976 249.303 500.976 249.356C500.976 249.41 500.976 249.463 500.976 249.516C500.976 249.57 500.976 249.623 500.976 249.677C500.976 249.73 500.976 249.783 500.976 249.837C500.976 249.89 500.976 249.944 500.976 249.997C500.976 250.05 500.976 250.104 500.976 250.157C500.976 250.21 500.976 250.264 500.976 250.317C500.976 250.37 500.976 250.423 500.976 250.477C500.976 250.53 500.976 250.583 500.976 250.636C500.976 250.69 500.976 250.743 500.976 250.796C500.976 250.849 500.976 250.902 500.976 250.956C500.976 251.009 500.976 251.062 500.976 251.115C500.976 251.168 500.976 251.221 500.976 251.274C500.976 251.327 500.976 251.381 500.976 251.434C500.976 251.487 500.976 251.54 500.976 251.593C500.976 251.646 500.976 251.699 500.976 251.752C500.976 251.805 500.976 251.858 500.976 251.911C500.976 251.964 500.976 252.017 500.976 252.07C500.976 252.123 500.976 252.176 500.976 252.229C500.976 252.282 500.976 252.335 500.976 252.388C500.976 252.441 500.976 252.494 500.976 252.547C500.976 252.599 500.976 252.652 500.976 252.705C500.976 252.758 500.976 252.811 500.976 252.864C500.976 252.917 500.976 252.97 500.976 253.022C500.976 253.075 500.976 253.128 500.976 253.181C500.976 253.234 500.976 253.286 500.976 253.339C500.976 253.392 500.976 253.445 500.976 253.498C500.976 253.55 500.976 253.603 500.976 253.656C500.976 253.709 500.976 253.761 500.976 253.814C500.976 253.867 500.976 253.92 500.976 253.972C500.976 254.025 500.976 254.078 500.976 254.13C500.976 254.183 500.976 254.236 500.976 254.288C500.976 254.341 500.976 254.394 500.976 254.446C500.976 254.499 500.976 254.552 500.976 254.604C500.976 254.657 500.976 254.71 500.976 254.762C500.976 254.815 500.976 254.867 500.976 254.92C500.976 254.973 500.976 255.025 500.976 255.078C500.976 255.13 500.976 255.183 500.976 255.235C500.976 255.288 500.976 255.341 500.976 255.393C500.976 255.446 500.976 255.498 500.976 255.551C500.976 255.603 500.976 255.656 500.976 255.708C500.976 255.761 500.976 255.813 500.976 255.866C500.976 255.918 500.976 255.971 500.976 256.023C500.976 256.076 500.976 256.128 500.976 256.181C500.976 256.233 500.976 256.286 500.976 256.338C500.976 256.391 500.976 256.443 500.976 256.495C500.976 256.548 500.976 256.6 500.976 256.653C500.976 256.705 500.976 256.758 500.976 256.81C500.976 256.862 500.976 256.915 500.976 256.967C500.976 257.02 500.976 257.072 500.976 257.124C500.976 257.177 500.976 257.229 500.976 257.282C500.976 257.334 500.976 257.386 500.976 257.439C500.976 257.491 500.976 257.543 500.976 257.596C500.976 257.648 500.976 257.701 500.976 257.753C500.976 257.805 500.976 257.858 500.976 257.91C500.976 257.962 500.976 258.015 500.976 258.067C500.976 258.119 500.976 258.172 500.976 258.224C500.976 258.276 500.976 258.329 500.976 258.381C500.976 258.433 500.976 258.485 500.976 258.538C500.976 258.59 500.976 258.642 500.976 258.695C500.976 258.747 500.976 258.799 500.976 258.852C500.976 258.904 500.976 258.956 500.976 259.008C500.976 259.061 500.976 259.113 500.976 259.165C500.976 259.218 500.976 259.27 500.976 259.322C500.976 259.374 500.976 259.427 500.976 259.479C500.976 259.531 500.976 259.583 500.976 259.636C500.976 259.688 500.976 259.74 500.976 259.793C500.976 259.845 500.976 259.897 500.976 259.949C500.976 260.002 500.976 260.054 500.976 260.106C500.976 260.158 500.976 260.211 500.976 260.263C500.976 260.315 500.976 260.367 500.976 260.42C500.976 260.472 500.976 260.524 500.976 260.576C500.976 260.628 500.976 260.681 500.976 260.733C500.976 260.785 500.976 260.837 500.976 260.89C500.976 260.942 500.976 260.994 500.976 261.046C500.976 261.099 500.976 261.151 500.976 261.203C500.976 261.255 500.976 261.308 500.976 261.36C500.976 261.412 500.976 261.464 500.976 261.517C500.976 261.569 500.976 261.621 500.976 261.673C500.976 261.725 500.976 261.778 500.976 261.83C500.976 261.882 500.976 261.934 500.976 261.987C500.976 262.039 500.976 262.091 500.976 262.143C500.976 262.196 500.976 262.248 500.976 262.3C500.976 262.352 500.976 262.405 500.976 262.457C500.976 262.509 500.976 262.561 500.976 262.614C500.976 262.666 500.976 262.718 500.976 262.77C500.976 262.823 500.976 262.875 500.976 262.927C500.976 262.979 500.976 263.032 500.976 263.084C500.976 263.136 500.976 263.188 500.976 263.241C500.976 263.293 500.976 263.345 500.976 263.398C500.976 263.45 500.976 263.502 500.976 263.554C500.976 263.607 500.976 263.659 500.976 263.711C500.976 263.763 500.976 263.816 500.976 263.868C500.976 263.92 500.976 263.973 500.976 264.025C500.976 264.077 500.976 264.13 500.976 264.182C500.976 264.234 500.976 264.286 500.976 264.339C500.976 264.391 500.976 264.443 500.976 264.496C500.976 264.548 500.976 264.6 500.976 264.653C500.976 264.705 500.976 264.757 500.976 264.81C500.976 264.862 500.976 264.914 500.976 264.967C500.976 265.019 500.976 265.071 500.976 265.124C500.976 265.176 500.976 265.229 500.976 265.281C500.976 265.333 500.976 265.386 500.976 265.438C500.976 265.49 500.976 265.543 500.976 265.595C500.976 265.648 500.976 265.7 500.976 265.752C500.976 265.805 500.976 265.857 500.976 265.91C500.976 265.962 500.976 266.014 500.976 266.067C500.976 266.119 500.976 266.172 500.976 266.224C500.976 266.277 500.976 266.329 500.976 266.382C500.976 266.434 500.976 266.486 500.976 266.539C500.976 266.591 500.976 266.644 500.976 266.696C500.976 266.749 500.976 266.801 500.976 266.854C500.976 266.906 500.976 266.959 500.976 267.011C500.976 267.064 500.976 267.116 500.976 267.169C500.976 267.221 500.976 267.274 500.976 267.327C500.976 267.379 500.976 267.432 500.976 267.484C500.976 267.537 500.976 267.589 500.976 267.642C500.976 267.695 500.976 267.747 500.976 267.8C500.976 267.852 500.976 267.905 500.976 267.958C500.976 268.01 500.976 268.063 500.976 268.115C500.976 268.168 500.976 268.221 500.976 268.273C500.976 268.326 500.976 268.379 500.976 268.431C500.976 268.484 500.976 268.537 500.976 268.589C500.976 268.642 500.976 268.695 500.976 268.747C500.976 268.8 500.976 268.853 500.976 268.906C500.976 268.958 500.976 269.011 500.976 269.064C500.976 269.117 500.976 269.169 500.976 269.222C500.976 269.275 500.976 269.328 500.976 269.38C500.976 269.433 500.976 269.486 500.976 269.539C500.976 269.592 500.976 269.644 500.976 269.697C500.976 269.75 500.976 269.803 500.976 269.856C500.976 269.909 500.976 269.962 500.976 270.014C500.976 270.067 500.976 270.12 500.976 270.173C500.976 270.226 500.976 270.279 500.976 270.332C500.976 270.385 500.976 270.438 500.976 270.491C500.976 270.544 500.976 270.597 500.976 270.65C500.976 270.703 500.976 270.756 500.976 270.809C500.976 270.862 500.976 270.915 500.976 270.968C500.976 271.021 500.976 271.074 500.976 271.127C500.976 271.18 500.976 271.233 500.976 271.286C500.976 271.339 500.976 271.392 500.976 271.445C500.976 271.498 500.976 271.552 500.976 271.605C500.976 271.658 500.976 271.711 500.976 271.764C500.976 271.817 500.976 271.87 500.976 271.924C500.976 271.977 500.976 272.03 500.976 272.083C500.976 272.137 500.976 272.19 500.976 272.243C500.976 272.296 500.976 272.35 500.976 272.403C500.976 272.456 500.976 272.509 500.976 272.563C500.976 272.616 500.976 272.669 500.976 272.723C500.976 272.776 500.976 272.829 500.976 272.883C500.976 272.936 500.976 272.99 500.976 273.043C500.976 273.096 500.976 273.15 500.976 273.203C500.976 273.257 500.976 273.31 500.976 273.364C500.976 273.417 500.976 273.471 500.976 273.524C500.976 273.578 500.976 273.631 500.976 273.685C500.976 273.738 500.976 273.792 500.976 273.845C500.976 273.899 500.976 273.952 500.976 274.006C500.976 274.06 500.976 274.113 500.976 274.167C500.976 274.221 500.976 274.274 500.976 274.328C500.976 274.382 500.976 274.435 500.976 274.489C500.976 274.543 500.976 274.596 500.976 274.65C500.976 274.704 500.976 274.758 500.976 274.811C500.976 274.865 500.976 274.919 500.976 274.973C500.976 275.027 500.976 275.08 500.976 275.134C500.976 275.188 500.976 275.242 500.976 275.296C500.976 275.35 500.976 275.404 500.976 275.458C500.976 275.512 500.976 275.565 500.976 275.619C500.976 275.673 500.976 275.727 500.976 275.781C500.976 275.835 500.976 275.889 500.976 275.943C500.976 275.998 500.976 276.052 500.976 276.106C500.976 276.16 500.976 276.214 500.976 276.268C500.976 276.322 500.976 276.376 500.976 276.43C500.976 276.485 500.976 276.539 500.976 276.593C500.976 276.647 500.976 276.701 500.976 276.756C500.976 276.81 500.976 276.864 500.976 276.918C500.976 276.973 500.976 277.027 500.976 277.081C500.976 277.136 500.976 277.19 500.976 277.244C500.976 277.299 500.976 277.353 500.976 277.408C500.976 277.462 500.976 277.516 500.976 277.571C500.976 277.625 500.976 277.68 500.976 277.734C500.976 277.789 500.976 277.843 500.976 277.898C500.976 277.952 500.976 278.007 500.976 278.062C500.976 278.116 500.976 278.171 500.976 278.225C500.976 278.28 500.976 278.335 500.976 278.389C500.976 278.444 500.976 278.499 500.976 278.554C500.976 278.608 500.976 278.663 500.976 278.718C500.976 278.773 500.976 278.827 500.976 278.882C500.976 278.937 500.976 278.992 500.976 279.047C500.976 279.102 500.976 279.157 500.976 279.211C500.976 279.266 500.976 279.321 500.976 279.376C500.976 279.431 500.976 279.486 500.976 279.541C500.976 279.596 500.976 279.651 500.976 279.706C500.976 279.761 500.976 279.816 500.976 279.872C500.976 279.927 500.976 279.982 500.976 280.037C500.976 280.092 500.976 280.147 500.976 280.203C500.976 280.258 500.976 280.313 500.976 280.368C500.976 280.423 500.976 280.479 500.976 280.534C500.976 280.589 500.976 280.645 500.976 280.7C500.976 280.755 500.976 280.811 500.976 280.866C500.976 280.922 500.976 280.977 500.976 281.033C500.976 281.088 500.976 281.144 500.976 281.199C500.976 281.255 500.976 281.31 500.976 281.366C500.976 281.421 500.976 281.477 500.976 281.533C500.976 281.588 500.976 281.644 500.976 281.699C500.976 281.755 500.976 281.811 500.976 281.867C500.976 281.922 500.976 281.978 500.976 282.034C500.976 282.09 500.976 282.145 500.976 282.201C500.976 282.257 500.976 282.313 500.976 282.369C500.976 282.425 500.976 282.481 500.976 282.537C500.976 282.593 500.976 282.649 500.976 282.705C500.976 282.761 500.976 282.817 500.976 282.873C500.976 282.929 500.976 282.985 500.976 283.041C500.976 283.097 500.976 283.153 500.976 283.21C500.976 283.266 500.976 283.322 500.976 283.378C500.976 283.434 500.976 283.491 500.976 283.547C500.976 283.603 500.976 283.66 500.976 283.716C500.976 283.772 500.976 283.829 500.976 283.885C500.976 283.942 500.976 283.998 500.976 284.055C500.976 284.111 500.976 284.168 500.976 284.224C500.976 284.281 500.976 284.337 500.976 284.394C500.976 284.45 500.976 284.507 500.976 284.564C500.976 284.62 500.976 284.677 500.976 284.734C500.976 284.791 500.976 284.847 500.976 284.904C500.976 284.961 500.976 285.018 500.976 285.075C500.976 285.131 500.976 285.188 500.976 285.245C500.976 285.302 500.976 285.359 500.976 285.416C500.976 285.473 500.976 285.53 500.976 285.587C500.976 285.644 500.976 285.701 500.976 285.758C500.976 285.815 500.976 285.873 500.976 285.93C500.976 285.987 500.976 286.044 500.976 286.101C500.976 286.159 500.976 286.216 500.976 286.273C500.976 286.33 500.976 286.388 500.976 286.445C500.976 286.502 500.976 286.56 500.976 286.617C500.976 286.675 500.976 286.732 500.976 286.79C500.976 286.847 500.976 286.905 500.976 286.962C500.976 287.02 500.976 287.077 500.976 287.135C500.976 287.193 500.976 287.25 500.976 287.308C500.976 287.366 500.976 287.424 500.976 287.481C500.976 287.539 500.976 287.597 500.976 287.655C500.976 287.713 500.976 287.77 500.976 287.828C500.976 287.886 500.976 287.944 500.976 288.002C500.976 288.06 500.976 288.118 500.976 288.176C500.976 288.234 500.976 288.292 500.976 288.35C500.976 288.409 500.976 288.467 500.976 288.525C500.976 288.583 500.976 288.641 500.976 288.7C500.976 288.758 500.976 288.816 500.976 288.875C500.976 288.933 500.976 288.991 500.976 289.05C500.976 289.108 500.976 289.166 500.976 289.225C500.976 289.283 500.976 289.342 500.976 289.401C500.976 289.459 500.976 289.518 500.976 289.576C500.976 289.635 500.976 289.694 500.976 289.752C500.976 289.811 500.976 289.87 500.976 289.929C500.976 289.987 500.976 290.046 500.976 290.105C500.976 290.164 500.976 290.223 500.976 290.282C500.976 290.341 500.976 290.399 500.976 290.458C500.976 290.517 500.976 290.577 500.976 290.636C500.976 290.695 500.976 290.754 500.976 290.813C500.976 290.872 500.976 290.931 500.976 290.991C500.976 291.05 500.976 291.109 500.976 291.168C500.976 291.228 500.976 291.287 500.976 291.346C500.976 291.406 500.976 291.465 500.976 291.525C500.976 291.584 500.976 291.644 500.976 291.703C500.976 291.763 500.976 291.822 500.976 291.882C500.976 291.942 500.976 292.001 500.976 292.061C500.976 292.121 500.976 292.18 500.976 292.24C500.976 292.3 500.976 292.36 500.976 292.42C500.976 292.479 500.976 292.539 500.976 292.599C500.976 292.659 500.976 292.719 500.976 292.779C500.976 292.839 500.976 292.899 500.976 292.959C500.976 293.02 500.976 293.08 500.976 293.14C500.976 293.2 500.976 293.26 500.976 293.321C500.976 293.381 500.976 293.441 500.976 293.502C500.976 293.562 500.976 293.622 500.976 293.683C500.976 293.743 500.976 293.804 500.976 293.864C500.976 293.925 500.976 293.985 500.976 294.046C500.976 294.107 500.976 294.167 500.976 294.228C500.976 294.289 500.976 294.349 500.976 294.41C500.976 294.471 500.976 294.532 500.976 294.593C500.976 294.653 500.976 294.714 500.976 294.775C500.976 294.836 500.976 294.897 500.976 294.958C500.976 295.019 500.976 295.08 500.976 295.141C500.976 295.203 500.976 295.264 500.976 295.325C500.976 295.386 500.976 295.447 500.976 295.509C500.976 295.57 500.976 295.631 500.976 295.693C500.976 295.754 500.976 295.816 500.976 295.877C500.976 295.938 500.976 296 500.976 296.062C500.976 296.123 500.976 296.185 500.976 296.246C500.976 296.308 500.976 296.37 500.976 296.431C500.976 296.493 500.976 296.555 500.976 296.617C500.976 296.679 500.976 296.741 500.976 296.802C500.976 296.864 500.976 296.926 500.976 296.988C500.976 297.05 500.976 297.112 500.976 297.175C500.976 297.237 500.976 297.299 500.976 297.361C500.976 297.423 500.976 297.485 500.976 297.548C500.976 297.61 500.976 297.672 500.976 297.735C500.976 297.797 500.976 297.86 500.976 297.922C500.976 297.985 500.976 298.047 500.976 298.11C500.976 298.172 500.976 298.235 500.976 298.297C500.976 298.36 500.976 298.423 500.976 298.486C500.976 298.548 500.976 298.611 500.976 298.674C500.976 298.737 500.976 298.8 500.976 298.863C500.976 298.926 500.976 298.989 500.976 299.052C500.976 299.115 500.976 299.178 500.976 299.241C500.976 299.304 500.976 299.367 500.976 299.431C500.976 299.494 500.976 299.557 500.976 299.62C500.976 299.684 500.976 299.747 500.976 299.811C500.976 299.874 500.976 299.938 500.976 300.001C500.976 300.065 500.976 300.128 500.976 300.192C500.976 300.255 500.976 300.319 500.976 300.383C500.976 300.447 500.976 300.51 500.976 300.574C500.976 300.638 500.976 300.702 500.976 300.766C500.976 300.83 500.976 300.894 500.976 300.958C500.976 301.022 500.976 301.086 500.976 301.15C500.976 301.214 500.976 301.278 500.976 301.342C500.976 301.407 500.976 301.471 500.976 301.535C500.976 301.6 500.976 301.664 500.976 301.728C500.976 301.793 500.976 301.857 500.976 301.922C500.976 301.986 500.976 302.051 500.976 302.116C500.976 302.18 500.976 302.245 500.976 302.31C500.976 302.374 500.976 302.439 500.976 302.504C500.976 302.569 500.976 302.634 500.976 302.699C500.976 302.764 500.976 302.829 500.976 302.894C500.976 302.959 500.976 303.024 500.976 303.089C500.976 303.154 500.976 303.22 500.976 303.285C500.976 303.35 500.976 303.415 500.976 303.481C500.976 303.546 500.976 303.612 500.976 303.677C500.976 303.742 500.976 303.808 500.976 303.874C500.976 303.939 500.976 304.005 500.976 304.07C500.976 304.136 500.976 304.202 500.976 304.268C500.976 304.333 500.976 304.399 500.976 304.465C500.976 304.531 500.976 304.597 500.976 304.663C500.976 304.729 500.976 304.795 500.976 304.861C500.976 304.927 500.976 304.994 500.976 305.06H501.976ZM580.683 298.765V214.127H579.683V298.765H580.683ZM497.724 204.866L500.098 214.25L501.067 214.004L498.694 204.621L497.724 204.866ZM500.098 214.25L500.991 217.782L501.961 217.537L501.067 214.004L500.098 214.25ZM580.183 213.627H500.582V214.627H580.183V213.627ZM500.976 217.66V305.06H501.976V217.66H500.976ZM497.751 203.544C497.624 203.975 497.614 204.431 497.724 204.866L498.694 204.621C498.628 204.36 498.633 204.086 498.71 203.828L497.751 203.544ZM508.246 174.38C507.139 174.38 506.163 175.109 505.849 176.171L506.808 176.454C506.997 175.817 507.582 175.38 508.246 175.38V174.38ZM578.323 301.262C579.647 301.187 580.683 300.092 580.683 298.765H579.683C579.683 299.561 579.061 300.219 578.267 300.263L578.323 301.262ZM591.49 177.588C591.963 175.986 590.762 174.38 589.092 174.38V175.38C590.094 175.38 590.815 176.344 590.531 177.305L591.49 177.588ZM418.12 302.312C417.307 302.291 416.66 301.626 416.66 300.813H415.66C415.66 302.167 416.739 303.276 418.093 303.312L418.12 302.312ZM416.66 217.971C416.66 217.13 417.35 216.454 418.191 216.471L418.211 215.471C416.811 215.443 415.66 216.57 415.66 217.971H416.66Z" fill="#A880F2"/>
<path d="M421.359 295.138C421.359 296.222 422.223 297.109 423.306 297.138L493.826 299.025C494.951 299.055 495.879 298.145 495.879 297.019C495.879 269.52 495.879 252.791 495.879 225.267C495.879 224.178 495.008 223.282 493.92 223.26L423.4 221.841C422.28 221.818 421.359 222.72 421.359 223.84V295.138Z" fill="#E4DBF5"/>
<path d="M506.922 296.959C506.922 298.107 507.887 299.026 509.033 298.962L573.113 295.384C574.173 295.325 575.002 294.449 575.002 293.388V241.669V225.64C575.002 224.535 574.106 223.64 573.002 223.64H508.922C507.817 223.64 506.922 224.542 506.922 225.646C506.922 252.995 506.922 269.64 506.922 296.959Z" fill="#E4DBF5"/>
<path d="M580.752 215.331C580.408 214.602 579.659 214.151 578.853 214.187L501.477 217.66L512.637 241.976C512.973 242.709 513.717 243.168 514.524 243.14L580.184 240.867L589.512 240.361C590.93 240.284 591.819 238.795 591.213 237.51L580.752 215.331Z" fill="#F2F2F2" stroke="#A880F2"/>
<rect x="422.309" y="38.1436" width="45.8254" height="46.2661" rx="10" transform="rotate(-28 422.309 38.1436)" fill="#341B14"/>
<path d="M462.666 64.9806C462.882 64.6752 468.77 57.2572 470.135 53.9583C471.535 50.5461 471.282 46.8695 469.386 43.3041L460.499 26.5907L460.239 26.6339C452.345 26.5438 444.872 30.8028 444.503 30.9988C444.209 31.1555 436.499 34.9689 432.159 41.5641L432.052 41.7167L440.978 58.5043C442.874 62.0699 445.78 64.3357 449.392 65.0833C452.89 65.7958 462.332 65.0629 462.666 64.9806Z" fill="#341B14"/>
<path d="M462.277 64.1717C462.277 64.1717 453.033 64.8181 449.728 64.1744C446.176 63.3952 443.509 61.1668 441.777 57.9084L433.151 41.6853C437.329 35.2837 444.951 31.587 444.951 31.587C444.951 31.587 452.278 27.3356 459.922 27.4509L468.511 43.6046C470.243 46.8632 470.6 50.3199 469.259 53.7003C467.981 56.87 462.277 64.1717 462.277 64.1717ZM442.864 57.3303C444.486 60.3808 446.9 62.2987 449.928 62.9119C452.678 63.495 459.682 63.0615 461.613 62.9239C462.807 61.3997 467.114 55.7303 468.138 53.2297C469.322 50.3765 469.046 47.2333 467.46 44.2521L458.982 28.3063C450.695 31.7345 441.539 37.1361 437.887 47.9708L442.864 57.3303Z" fill="#FFB406"/>
<rect x="493.469" y="165.081" width="30.6994" height="30.6994" rx="5" transform="rotate(8 493.469 165.081)" fill="#72103D"/>
<path d="M514.774 179.358L518.072 179.822C518.123 179.829 518.192 179.809 518.207 179.863C518.227 179.925 518.155 179.966 518.113 180.005C517.818 180.273 517.516 180.54 517.213 180.807C516.667 181.291 516.108 181.758 515.583 182.252C515.482 182.341 515.438 182.335 515.39 182.21C515.254 181.815 515.126 181.414 514.999 181.012C514.988 180.963 514.962 180.919 514.924 180.886C514.886 180.853 514.839 180.832 514.789 180.828C514.68 180.82 514.573 180.798 514.464 180.782C514.385 180.771 514.353 180.796 514.378 180.88C514.502 181.252 514.627 181.616 514.752 181.987L514.988 182.662C515.015 182.732 514.979 182.779 514.921 182.823C514.434 183.255 513.947 183.681 513.459 184.114C513.147 184.394 512.829 184.667 512.518 184.947C512.478 184.984 512.431 185.011 512.379 185.026C512.327 185.04 512.272 185.042 512.219 185.031L507.578 184.379C507.391 184.352 507.384 184.344 507.495 184.19C507.843 183.701 508.191 183.218 508.539 182.729C508.87 182.26 509.201 181.79 509.538 181.329C509.876 180.86 510.212 180.406 510.55 179.938C510.788 179.61 511.018 179.281 511.248 178.952C511.272 178.92 511.304 178.896 511.341 178.883C511.379 178.869 511.419 178.868 511.457 178.878L514.25 179.27C514.428 179.31 514.601 179.334 514.774 179.358Z" fill="#F9F9F9"/>
<path d="M520.787 178.677C520.024 179.344 519.269 180.004 518.513 180.665C517.892 181.205 517.278 181.753 516.658 182.292C516.629 182.312 516.608 182.342 516.599 182.376C516.59 182.41 516.594 182.446 516.609 182.477C516.711 182.794 516.815 183.111 516.919 183.419C517.038 183.775 517.158 184.124 517.27 184.479C517.337 184.687 517.402 184.903 517.468 185.112C517.489 185.174 517.459 185.177 517.422 185.179C517.383 185.18 517.344 185.177 517.306 185.17L516.151 185.007C515.862 184.967 515.87 184.961 515.793 184.677C515.702 184.325 515.59 183.97 515.477 183.622C515.447 183.522 515.386 183.587 515.345 183.618C515.146 183.782 514.945 183.953 514.745 184.117C514.329 184.464 513.92 184.804 513.511 185.152C513.479 185.183 513.439 185.204 513.397 185.215C513.354 185.226 513.309 185.226 513.266 185.214C513.173 185.194 513.071 185.187 512.978 185.173C512.891 185.161 512.874 185.129 512.949 185.066C513.14 184.909 513.319 184.735 513.517 184.586C513.877 184.326 514.206 184.026 514.554 183.751C515.143 183.273 515.708 182.763 516.305 182.286C516.653 182.011 516.995 181.727 517.336 181.443C517.811 181.053 518.273 180.638 518.748 180.248C519.372 179.73 519.997 179.214 520.614 178.696C520.675 178.639 520.711 178.644 520.787 178.677Z" fill="#F9F9F9"/>
<path d="M506.188 184.736L492.822 182.858C492.811 182.858 492.801 182.855 492.791 182.85C492.781 182.845 492.773 182.838 492.766 182.829C492.76 182.82 492.755 182.81 492.753 182.8C492.751 182.789 492.751 182.778 492.754 182.767C492.762 182.709 492.798 182.714 492.841 182.721L519.486 186.465C519.527 186.47 519.568 186.478 519.607 186.49C519.642 186.502 519.678 186.507 519.664 186.557C519.652 186.592 519.633 186.619 519.597 186.614C519.547 186.607 519.495 186.607 519.445 186.6L506.188 184.736Z" fill="#F9F9F9"/>
<path d="M496.102 177.852L492.886 181.828L507.217 183.842L509.999 179.805L496.102 177.852Z" fill="#F9F9F9"/>
<rect x="436.668" y="123.331" width="38.64" height="39.0115" rx="8" transform="rotate(-10 436.668 123.331)" fill="#004B89"/>
<path d="M444.81 138.51L443.113 138.81L444.011 143.898C444.13 144.577 444.892 144.763 445.258 144.772L474.73 139.575L474.618 138.939L446.842 143.836C445.994 143.986 445.682 143.458 445.632 143.175L444.81 138.51Z" fill="#F9F9F9" stroke="#F9F9F9"/>
<path d="M446.338 142.16L445.59 137.919L446.226 137.807L446.974 142.047C447.004 142.217 447.152 142.234 447.223 142.222L474.787 137.362L474.899 137.998L447.335 142.858C446.657 142.978 446.387 142.442 446.338 142.16Z" fill="#F9F9F9"/>
<rect x="529.734" y="74.1377" width="44.121" height="44.5452" rx="8" transform="rotate(10 529.734 74.1377)" fill="#D53027"/>
<path d="M562.577 102.299L566.357 100.112L568.153 100.429L563.929 102.972L564.319 105.764L562.733 105.485L562.426 102.854L562.394 102.567L562.577 102.299Z" fill="#233E80"/>
<path d="M530.864 93.8213L527.128 99.1768L560.668 105.091L564.405 99.7353L530.864 93.8213Z" fill="white" stroke="white"/>
<path d="M537.74 193.28C539.518 193.28 540.96 191.838 540.96 190.06C540.96 188.281 539.518 186.84 537.74 186.84C535.961 186.84 534.52 188.281 534.52 190.06C534.52 191.838 535.961 193.28 537.74 193.28Z" fill="#3ECAD3"/>
<path d="M509.218 84.7204C511.505 84.7204 513.358 82.8669 513.358 80.5804C513.358 78.294 511.505 76.4404 509.218 76.4404C506.932 76.4404 505.078 78.294 505.078 80.5804C505.078 82.8669 506.932 84.7204 509.218 84.7204Z" fill="#3ECAD3"/>
<path d="M415.737 214.543C415.989 215.37 416.744 215.942 417.609 215.959L501.475 217.66L500.582 214.127L498.074 204.212L489.843 175.862C489.595 175.008 488.812 174.42 487.923 174.42H406.208C404.865 174.42 403.903 175.718 404.295 177.003L415.737 214.543Z" fill="#F2F2F2" stroke="#A880F2"/>
<path d="M397.438 305.959C397.438 307.039 398.296 307.925 399.376 307.958L439.826 309.202C439.826 291.463 439.826 281.219 439.826 263.48L397.438 262.474V305.959Z" fill="#F2F2F2"/>
<path d="M439.826 309.202L472.378 307.024C473.428 306.953 474.244 306.081 474.244 305.028V261.632L439.826 263.48V309.202Z" fill="#F2F2F2"/>
<path d="M439.826 263.48L474.244 261.632L422.253 261.36L397.438 262.474L439.826 263.48Z" fill="#F2F2F2"/>
<path d="M397.438 262.474V305.959C397.438 307.039 398.296 307.925 399.376 307.958L439.826 309.202M397.438 262.474L439.826 263.48M397.438 262.474L422.253 261.36L474.244 261.632M439.826 309.202L472.378 307.024C473.428 306.953 474.244 306.081 474.244 305.028V261.632M439.826 309.202C439.826 291.463 439.826 281.219 439.826 263.48M439.826 309.202V263.48M474.244 261.632L439.826 263.48" stroke="#A880F2"/>
<path d="M443.438 303.373C443.438 304.533 444.422 305.45 445.579 305.368L469.179 303.692C470.226 303.618 471.037 302.747 471.037 301.697V267.157C471.037 266.008 470.071 265.095 468.924 265.16L445.324 266.505C444.265 266.566 443.438 267.442 443.438 268.502V303.373Z" fill="#E4DBF5"/>
<path d="M413.996 278.882V262.759L442.677 261.36H453.265L421.5 263.045V279.106L413.996 278.882Z" fill="#A880F2" stroke="#A880F2"/>
<defs>
<radialGradient id="paint0_radial_2764_47035" cx="0" cy="0" r="1" gradientUnits="userSpaceOnUse" gradientTransform="translate(299 273.78) rotate(90) scale(26.22 299)">
<stop stop-opacity="0.19"/>
<stop offset="1" stop-opacity="0"/>
</radialGradient>
<radialGradient id="paint1_radial_2764_47035" cx="0" cy="0" r="1" gradientUnits="userSpaceOnUse" gradientTransform="translate(491.741 302.76) rotate(90) scale(20.24 117.3)">
<stop stop-opacity="0.19"/>
<stop offset="1" stop-opacity="0"/>
</radialGradient>
</defs>
</svg>
