<svg width="158" height="33" viewBox="0 0 158 33" fill="none" xmlns="http://www.w3.org/2000/svg">
<g clip-path="url(#clip0_615_4216)">
<path d="M41.7951 22.619C40.6958 22.619 39.675 22.4227 38.7327 22.03C37.7905 21.6228 36.9624 21.0702 36.2486 20.3721C35.5348 19.6595 34.978 18.8306 34.5782 17.8853C34.1927 16.9255 34 15.8929 34 14.7877C34 13.6824 34.1927 12.6572 34.5782 11.7119C34.978 10.7666 35.5276 9.94492 36.2272 9.24686C36.941 8.53427 37.7619 7.98164 38.6899 7.58898C39.6322 7.19633 40.6458 7 41.7309 7C42.4875 7 43.2299 7.10907 43.958 7.32721C44.6862 7.54535 45.3429 7.85075 45.9282 8.24341C46.5136 8.63607 46.9918 9.08689 47.363 9.59589L46.0353 11.0138C45.6213 10.5921 45.1787 10.2358 44.7076 9.94492C44.2364 9.65406 43.7439 9.42865 43.2299 9.26868C42.7302 9.10871 42.2306 9.02872 41.7309 9.02872C40.9314 9.02872 40.189 9.17415 39.5037 9.46501C38.8327 9.75586 38.2402 10.1631 37.7262 10.6866C37.2123 11.1956 36.8125 11.7991 36.527 12.4972C36.2415 13.1952 36.0987 13.9587 36.0987 14.7877C36.0987 15.5875 36.2486 16.3438 36.5484 17.0564C36.8482 17.7544 37.2622 18.3725 37.7905 18.9106C38.3187 19.4341 38.9255 19.8486 39.6108 20.154C40.3103 20.4448 41.0599 20.5903 41.8594 20.5903C42.459 20.5903 43.03 20.503 43.5726 20.3285C44.1151 20.1394 44.5862 19.8777 44.986 19.5432C45.4 19.2087 45.7212 18.8233 45.9496 18.387C46.1781 17.9362 46.2923 17.4636 46.2923 16.9691V16.4019L46.6135 16.751H41.7523V14.7004H48.3696C48.3838 14.8458 48.3981 14.9985 48.4124 15.1585C48.4267 15.3039 48.4338 15.4494 48.4338 15.5948C48.4481 15.7402 48.4552 15.8784 48.4552 16.0093C48.4552 16.9836 48.2839 17.878 47.9413 18.6924C47.5986 19.4923 47.1203 20.1903 46.5064 20.7866C45.9068 21.3683 45.2073 21.8191 44.4078 22.1391C43.6083 22.459 42.7374 22.619 41.7951 22.619Z" fill="#7C779C"/>
<path d="M54.9258 22.6006C53.9181 22.6006 53.0151 22.3673 52.2168 21.9007C51.4315 21.4208 50.8099 20.7743 50.3519 19.9611C49.8938 19.1346 49.6648 18.1947 49.6648 17.1416C49.6648 16.0885 49.8938 15.1553 50.3519 14.3421C50.8099 13.5289 51.4315 12.889 52.2168 12.4225C53.0151 11.9425 53.9181 11.7026 54.9258 11.7026C55.9335 11.7026 56.8299 11.9425 57.6152 12.4225C58.4135 12.889 59.0351 13.5289 59.4801 14.3421C59.9381 15.1553 60.1671 16.0885 60.1671 17.1416C60.1671 18.1947 59.9381 19.1346 59.4801 19.9611C59.0351 20.7743 58.4135 21.4208 57.6152 21.9007C56.8299 22.3673 55.9335 22.6006 54.9258 22.6006ZM54.9258 20.9209C55.5932 20.9209 56.1821 20.7543 56.6925 20.421C57.216 20.0877 57.6217 19.6411 57.9096 19.0812C58.1975 18.508 58.3415 17.8615 58.3415 17.1416C58.3415 16.4217 58.1975 15.7818 57.9096 15.2219C57.6217 14.6487 57.216 14.2021 56.6925 13.8822C56.1821 13.5622 55.5932 13.4023 54.9258 13.4023C54.2714 13.4023 53.6825 13.5622 53.159 13.8822C52.6355 14.2021 52.2233 14.6487 51.9223 15.2219C51.6344 15.7818 51.497 16.4217 51.5101 17.1416C51.497 17.8615 51.6344 18.508 51.9223 19.0812C52.2233 19.6411 52.6355 20.0877 53.159 20.421C53.6825 20.7543 54.2714 20.9209 54.9258 20.9209Z" fill="#7C779C"/>
<path d="M66.553 22.6006C65.5453 22.6006 64.6423 22.3673 63.844 21.9007C63.0588 21.4208 62.4372 20.7743 61.9791 19.9611C61.5211 19.1346 61.292 18.1947 61.292 17.1416C61.292 16.0885 61.5211 15.1553 61.9791 14.3421C62.4372 13.5289 63.0588 12.889 63.844 12.4225C64.6423 11.9425 65.5453 11.7026 66.553 11.7026C67.5607 11.7026 68.4572 11.9425 69.2424 12.4225C70.0407 12.889 70.6624 13.5289 71.1073 14.3421C71.5654 15.1553 71.7944 16.0885 71.7944 17.1416C71.7944 18.1947 71.5654 19.1346 71.1073 19.9611C70.6624 20.7743 70.0407 21.4208 69.2424 21.9007C68.4572 22.3673 67.5607 22.6006 66.553 22.6006ZM66.553 20.9209C67.2205 20.9209 67.8094 20.7543 68.3198 20.421C68.8433 20.0877 69.249 19.6411 69.5369 19.0812C69.8248 18.508 69.9687 17.8615 69.9687 17.1416C69.9687 16.4217 69.8248 15.7818 69.5369 15.2219C69.249 14.6487 68.8433 14.2021 68.3198 13.8822C67.8094 13.5622 67.2205 13.4023 66.553 13.4023C65.8987 13.4023 65.3098 13.5622 64.7863 13.8822C64.2628 14.2021 63.8506 14.6487 63.5496 15.2219C63.2616 15.7818 63.1242 16.4217 63.1373 17.1416C63.1242 17.8615 63.2616 18.508 63.5496 19.0812C63.8506 19.6411 64.2628 20.0877 64.7863 20.421C65.3098 20.7543 65.8987 20.9209 66.553 20.9209Z" fill="#7C779C"/>
<path d="M78.1213 26.9998C77.3753 26.9998 76.649 26.8798 75.9423 26.6399C75.2356 26.4132 74.6598 26.1133 74.2148 25.74L74.9019 24.2803C75.1636 24.4936 75.4712 24.6736 75.8245 24.8202C76.1779 24.9802 76.5509 25.1068 76.9435 25.2001C77.3361 25.2934 77.7352 25.3401 78.1409 25.3401C78.8738 25.3401 79.4889 25.2068 79.9862 24.9402C80.4966 24.6869 80.8827 24.307 81.1444 23.8004C81.4061 23.2938 81.537 22.6673 81.537 21.9207V19.9211L81.7529 19.9611C81.6744 20.4143 81.4454 20.8476 81.0659 21.2608C80.6994 21.6608 80.2414 21.9874 79.6917 22.2407C79.1421 22.4806 78.5728 22.6006 77.9839 22.6006C77.0154 22.6006 76.1517 22.3673 75.3927 21.9007C74.6336 21.4208 74.0316 20.7743 73.5866 19.9611C73.1417 19.1346 72.9192 18.2014 72.9192 17.1616C72.9192 16.1084 73.1351 15.1753 73.567 14.3621C74.012 13.5356 74.614 12.889 75.373 12.4225C76.1321 11.9425 76.9827 11.7026 77.925 11.7026C78.3307 11.7026 78.7168 11.7559 79.0832 11.8626C79.4496 11.9559 79.7899 12.0958 80.104 12.2825C80.4312 12.4691 80.7191 12.6757 80.9677 12.9024C81.2295 13.1157 81.4389 13.3556 81.5959 13.6222C81.766 13.8755 81.8773 14.1221 81.9296 14.3621L81.5174 14.4421L81.537 11.9225H83.3234V21.7608C83.3234 22.6006 83.2056 23.3405 82.97 23.9803C82.7345 24.6336 82.3877 25.1801 81.9296 25.6201C81.4716 26.0733 80.9219 26.4132 80.2807 26.6399C79.6394 26.8798 78.9196 26.9998 78.1213 26.9998ZM78.1802 20.9009C78.8476 20.9009 79.4365 20.7409 79.9469 20.421C80.4704 20.0877 80.8761 19.6411 81.164 19.0812C81.4519 18.5213 81.5959 17.8748 81.5959 17.1416C81.5959 16.4217 81.4454 15.7818 81.1444 15.2219C80.8565 14.6487 80.4573 14.2021 79.9469 13.8822C79.4365 13.5622 78.8476 13.4023 78.1802 13.4023C77.5128 13.4023 76.9238 13.5689 76.4134 13.9022C75.903 14.2221 75.4973 14.6687 75.1963 15.2419C74.9084 15.8018 74.7645 16.4351 74.7645 17.1416C74.7645 17.8615 74.9084 18.508 75.1963 19.0812C75.4973 19.6411 75.903 20.0877 76.4134 20.421C76.9238 20.7409 77.5128 20.9009 78.1802 20.9009Z" fill="#7C779C"/>
<path d="M84.9209 22.4008V7.60352H86.727V22.4008H84.9209Z" fill="#7C779C"/>
<path d="M106.651 22.601C105.931 22.601 105.257 22.501 104.629 22.3011C104.001 22.1011 103.425 21.8011 102.902 21.4012C102.391 20.988 101.94 20.4881 101.547 19.9015L102.843 18.4018C103.471 19.3216 104.086 19.9615 104.688 20.3214C105.303 20.6813 106.017 20.8613 106.828 20.8613C107.365 20.8613 107.849 20.7747 108.281 20.6014C108.726 20.4147 109.072 20.1681 109.321 19.8615C109.583 19.5416 109.714 19.1816 109.714 18.7817C109.714 18.5151 109.668 18.2685 109.576 18.0418C109.498 17.8152 109.367 17.6152 109.184 17.4419C109 17.2686 108.771 17.1087 108.497 16.962C108.235 16.8021 107.927 16.6687 107.574 16.5621C107.221 16.4421 106.821 16.3355 106.376 16.2422C105.683 16.0822 105.074 15.8889 104.551 15.6623C104.04 15.4356 103.609 15.149 103.255 14.8024C102.915 14.4558 102.653 14.0626 102.47 13.6226C102.3 13.1827 102.215 12.6761 102.215 12.1029C102.215 11.543 102.333 11.0298 102.568 10.5632C102.817 10.0833 103.144 9.67004 103.55 9.32343C103.968 8.97683 104.459 8.71021 105.022 8.52358C105.598 8.32362 106.206 8.22363 106.848 8.22363C107.554 8.22363 108.196 8.32362 108.771 8.52358C109.347 8.71021 109.858 8.99016 110.303 9.36343C110.761 9.72336 111.14 10.1699 111.441 10.7032L110.126 12.0229C109.851 11.583 109.543 11.2097 109.203 10.9031C108.876 10.5965 108.51 10.3632 108.104 10.2033C107.711 10.0433 107.279 9.96332 106.808 9.96332C106.272 9.96332 105.801 10.0499 105.395 10.2233C104.989 10.3966 104.669 10.6432 104.433 10.9631C104.211 11.2697 104.099 11.6363 104.099 12.0629C104.099 12.3562 104.152 12.6295 104.256 12.8828C104.374 13.1227 104.551 13.336 104.786 13.5227C105.022 13.7093 105.329 13.8759 105.709 14.0226C106.102 14.1692 106.566 14.2958 107.103 14.4025C107.796 14.5625 108.418 14.7624 108.968 15.0024C109.53 15.2423 110.008 15.529 110.401 15.8622C110.793 16.1822 111.088 16.5488 111.284 16.962C111.493 17.3753 111.598 17.8352 111.598 18.3418C111.598 19.195 111.395 19.9415 110.99 20.5814C110.584 21.2213 110.008 21.7212 109.262 22.0811C108.529 22.4277 107.659 22.601 106.651 22.601Z" fill="#7C779C"/>
<path d="M112.512 22.4008V7.60352H114.318V14.1423L113.984 14.4023C114.115 13.909 114.37 13.4625 114.75 13.0625C115.142 12.6493 115.6 12.3227 116.124 12.0827C116.66 11.8294 117.204 11.7028 117.753 11.7028C118.538 11.7028 119.193 11.8628 119.716 12.1827C120.24 12.4893 120.626 12.9626 120.874 13.6024C121.136 14.2423 121.267 15.0488 121.267 16.022V22.4008H119.481V16.142C119.481 15.5021 119.396 14.9755 119.226 14.5623C119.055 14.149 118.8 13.8491 118.46 13.6624C118.12 13.4625 117.694 13.3691 117.184 13.3825C116.765 13.3825 116.379 13.4558 116.026 13.6024C115.685 13.7357 115.384 13.9224 115.123 14.1623C114.874 14.4023 114.678 14.6822 114.534 15.0022C114.39 15.3221 114.318 15.6687 114.318 16.042V22.4008H113.415C113.284 22.4008 113.14 22.4008 112.983 22.4008C112.839 22.4008 112.682 22.4008 112.512 22.4008Z" fill="#7C779C"/>
<path d="M127.618 22.6006C126.571 22.6006 125.642 22.374 124.83 21.9207C124.032 21.4541 123.404 20.8209 122.946 20.0211C122.488 19.2212 122.259 18.2947 122.259 17.2416C122.259 16.4284 122.39 15.6885 122.651 15.022C122.913 14.3421 123.273 13.7555 123.731 13.2623C124.189 12.7557 124.732 12.3691 125.36 12.1025C126.002 11.8226 126.702 11.6826 127.461 11.6826C128.128 11.6826 128.75 11.8159 129.326 12.0825C129.902 12.3358 130.399 12.6891 130.818 13.1423C131.236 13.5822 131.557 14.1155 131.78 14.742C132.002 15.3553 132.107 16.0285 132.094 16.7617L132.074 17.5615H123.594L123.24 16.0818H130.582L130.268 16.4217V15.9418C130.229 15.4886 130.085 15.0686 129.836 14.682C129.587 14.2954 129.254 13.9888 128.835 13.7622C128.429 13.5223 127.965 13.4023 127.441 13.4023C126.734 13.4023 126.126 13.5422 125.616 13.8222C125.105 14.1021 124.719 14.5221 124.457 15.082C124.196 15.6285 124.065 16.3084 124.065 17.1216C124.065 17.8948 124.215 18.568 124.516 19.1412C124.817 19.7011 125.249 20.141 125.812 20.461C126.388 20.7676 127.055 20.9209 127.814 20.9209C128.311 20.9209 128.789 20.8343 129.247 20.661C129.705 20.4877 130.203 20.1677 130.739 19.7011L131.642 21.0009C131.341 21.3075 130.968 21.5808 130.523 21.8207C130.091 22.0607 129.62 22.254 129.11 22.4006C128.612 22.5339 128.115 22.6006 127.618 22.6006Z" fill="#7C779C"/>
<path d="M138.359 22.6006C137.312 22.6006 136.383 22.374 135.572 21.9207C134.773 21.4541 134.145 20.8209 133.687 20.0211C133.229 19.2212 133 18.2947 133 17.2416C133 16.4284 133.131 15.6885 133.393 15.022C133.654 14.3421 134.014 13.7555 134.472 13.2623C134.93 12.7557 135.474 12.3691 136.102 12.1025C136.743 11.8226 137.443 11.6826 138.202 11.6826C138.87 11.6826 139.491 11.8159 140.067 12.0825C140.643 12.3358 141.14 12.6891 141.559 13.1423C141.978 13.5822 142.298 14.1155 142.521 14.742C142.743 15.3553 142.848 16.0285 142.835 16.7617L142.815 17.5615H134.335L133.982 16.0818H141.323L141.009 16.4217V15.9418C140.97 15.4886 140.826 15.0686 140.578 14.682C140.329 14.2954 139.995 13.9888 139.576 13.7622C139.171 13.5223 138.706 13.4023 138.183 13.4023C137.476 13.4023 136.867 13.5422 136.357 13.8222C135.847 14.1021 135.46 14.5221 135.199 15.082C134.937 15.6285 134.806 16.3084 134.806 17.1216C134.806 17.8948 134.957 18.568 135.258 19.1412C135.559 19.7011 135.991 20.141 136.553 20.461C137.129 20.7676 137.797 20.9209 138.556 20.9209C139.053 20.9209 139.531 20.8343 139.989 20.661C140.447 20.4877 140.944 20.1677 141.481 19.7011L142.384 21.0009C142.083 21.3075 141.71 21.5808 141.265 21.8207C140.833 22.0607 140.362 22.254 139.851 22.4006C139.354 22.5339 138.857 22.6006 138.359 22.6006Z" fill="#7C779C"/>
<path d="M154.27 22.6006C153.393 22.6006 152.608 22.4406 151.915 22.1207C151.221 21.8007 150.658 21.3542 150.226 20.7809L151.463 19.7011C151.843 20.1677 152.274 20.5143 152.759 20.7409C153.256 20.9542 153.812 21.0609 154.427 21.0609C154.689 21.0609 154.931 21.0276 155.154 20.9609C155.389 20.8942 155.592 20.8009 155.762 20.6809C155.932 20.5476 156.063 20.3877 156.155 20.201C156.246 20.0144 156.292 19.8144 156.292 19.6011C156.292 19.2145 156.142 18.9013 155.841 18.6613C155.684 18.5547 155.455 18.4414 155.154 18.3214C154.866 18.2014 154.499 18.0814 154.054 17.9614C153.308 17.7615 152.693 17.5415 152.209 17.3016C151.725 17.0616 151.352 16.7817 151.09 16.4617C150.894 16.2218 150.743 15.9551 150.639 15.6619C150.547 15.3686 150.501 15.0486 150.501 14.702C150.501 14.2621 150.593 13.8622 150.776 13.5023C150.959 13.1423 151.214 12.829 151.542 12.5624C151.882 12.2825 152.274 12.0692 152.719 11.9225C153.164 11.7759 153.642 11.7026 154.152 11.7026C154.637 11.7026 155.114 11.7692 155.585 11.9025C156.057 12.0359 156.495 12.2292 156.901 12.4824C157.306 12.7357 157.653 13.0357 157.941 13.3823L156.881 14.5621C156.632 14.2954 156.358 14.0622 156.057 13.8622C155.769 13.6622 155.468 13.5089 155.154 13.4023C154.839 13.2956 154.532 13.2423 154.231 13.2423C153.943 13.2423 153.675 13.2756 153.426 13.3423C153.191 13.3956 152.988 13.4823 152.818 13.6022C152.66 13.7222 152.536 13.8755 152.445 14.0622C152.353 14.2355 152.307 14.4288 152.307 14.642C152.32 14.8287 152.359 15.002 152.425 15.162C152.503 15.3086 152.615 15.4419 152.759 15.5619C152.916 15.6819 153.145 15.8018 153.446 15.9218C153.76 16.0418 154.152 16.1618 154.624 16.2817C155.239 16.4551 155.756 16.635 156.174 16.8217C156.593 17.0083 156.927 17.2282 157.176 17.4815C157.477 17.7348 157.686 18.0348 157.804 18.3814C157.935 18.7146 158 19.0946 158 19.5212C158 20.1211 157.836 20.6543 157.509 21.1209C157.182 21.5741 156.737 21.9341 156.174 22.2007C155.612 22.4673 154.977 22.6006 154.27 22.6006Z" fill="#7C779C"/>
<path d="M148.694 12.2206V13.5566H143.291V12.2206H148.694ZM145.119 9.74609H146.828V19.8793C146.828 20.2243 146.881 20.4846 146.985 20.6603C147.09 20.8359 147.225 20.9519 147.392 21.0084C147.558 21.0648 147.737 21.0931 147.927 21.0931C148.069 21.0931 148.217 21.0805 148.371 21.0554C148.531 21.0241 148.651 20.999 148.731 20.9802L148.74 22.4009C148.605 22.4448 148.426 22.4856 148.205 22.5232C147.989 22.5671 147.727 22.5891 147.419 22.5891C147.001 22.5891 146.616 22.5044 146.265 22.335C145.914 22.1657 145.634 21.8834 145.424 21.4882C145.221 21.0868 145.119 20.5474 145.119 19.8699V9.74609Z" fill="#7C779C"/>
<path d="M95.4163 22.1789C94.4599 22.6127 93.5206 22.7906 92.5983 22.7127C91.6827 22.6172 90.856 22.299 90.1182 21.7581C89.3804 21.2172 88.8012 20.4657 88.3807 19.5036C88.056 18.7607 87.8801 18.0306 87.8531 17.3132C87.8207 16.5837 87.9153 15.8987 88.1368 15.2583C88.353 14.6058 88.6947 14.0276 89.1622 13.5237C89.6362 13.0023 90.2199 12.5843 90.9134 12.2699C91.5231 11.9933 92.1442 11.8576 92.7767 11.8626C93.4039 11.8554 93.9993 11.972 94.5628 12.2126C95.1211 12.441 95.6269 12.7953 96.0803 13.2755C96.5284 13.7435 96.8929 14.3151 97.1737 14.9904L97.4751 15.7292L89.7279 19.2428L88.8143 18.0374L95.5213 14.9955L95.3701 15.4362L95.1785 14.9978C94.9617 14.6 94.6625 14.276 94.281 14.0259C93.8994 13.7757 93.4721 13.6339 92.9991 13.6004C92.5326 13.5492 92.0603 13.6321 91.5821 13.849C90.9365 14.1418 90.4364 14.5218 90.082 14.989C89.7275 15.4562 89.5424 15.9998 89.5269 16.6197C89.506 17.2275 89.658 17.9028 89.9827 18.6457C90.2914 19.352 90.6977 19.9047 91.2016 20.3037C91.7001 20.6904 92.2703 20.9134 92.9121 20.9725C93.5606 21.0141 94.2316 20.8776 94.925 20.5631C95.3793 20.357 95.7811 20.08 96.1303 19.7319C96.4796 19.3838 96.8061 18.8855 97.11 18.2369L98.4539 19.0502C98.3014 19.455 98.0698 19.8592 97.7591 20.2627C97.4604 20.6609 97.1071 21.0327 96.6994 21.3781C96.2983 21.7059 95.8707 21.9729 95.4163 22.1789Z" fill="#7C779C"/>
<mask id="mask0_615_4216" style="mask-type:luminance" maskUnits="userSpaceOnUse" x="0" y="0" width="24" height="33">
<path d="M15 0H2.25C1.0125 0 0 1.0125 0 2.25V30.75C0 31.9875 1.0125 33 2.25 33H21.75C22.9875 33 24 31.9875 24 30.75V9L15 0Z" fill="white"/>
</mask>
<g mask="url(#mask0_615_4216)">
<path d="M15 0H2.25C1.0125 0 0 1.0125 0 2.25V30.75C0 31.9875 1.0125 33 2.25 33H21.75C22.9875 33 24 31.9875 24 30.75V9L18.75 5.25L15 0Z" fill="#9793B4"/>
</g>
<mask id="mask1_615_4216" style="mask-type:luminance" maskUnits="userSpaceOnUse" x="0" y="0" width="24" height="33">
<path d="M15 0H2.25C1.0125 0 0 1.0125 0 2.25V30.75C0 31.9875 1.0125 33 2.25 33H21.75C22.9875 33 24 31.9875 24 30.75V9L15 0Z" fill="white"/>
</mask>
<g mask="url(#mask1_615_4216)">
<path d="M6 16.125V27H18V16.125H6ZM11.25 25.5H7.5V23.625H11.25V25.5ZM11.25 22.5H7.5V20.625H11.25V22.5ZM11.25 19.5H7.5V17.625H11.25V19.5ZM16.5 25.5H12.75V23.625H16.5V25.5ZM16.5 22.5H12.75V20.625H16.5V22.5ZM16.5 19.5H12.75V17.625H16.5V19.5Z" fill="#F1F1F1"/>
</g>
<mask id="mask2_615_4216" style="mask-type:luminance" maskUnits="userSpaceOnUse" x="0" y="0" width="24" height="33">
<path d="M15 0H2.25C1.0125 0 0 1.0125 0 2.25V30.75C0 31.9875 1.0125 33 2.25 33H21.75C22.9875 33 24 31.9875 24 30.75V9L15 0Z" fill="white"/>
</mask>
<g mask="url(#mask2_615_4216)">
<path d="M15.6582 8.33984L24.0001 16.6798V8.99797L15.6582 8.33984Z" fill="url(#paint0_linear_615_4216)"/>
</g>
<mask id="mask3_615_4216" style="mask-type:luminance" maskUnits="userSpaceOnUse" x="0" y="0" width="24" height="33">
<path d="M15 0H2.25C1.0125 0 0 1.0125 0 2.25V30.75C0 31.9875 1.0125 33 2.25 33H21.75C22.9875 33 24 31.9875 24 30.75V9L15 0Z" fill="white"/>
</mask>
<g mask="url(#mask3_615_4216)">
<path d="M14.998 0V6.75C14.998 7.99312 16.0049 9 17.248 9H23.998L14.998 0Z" fill="#656080"/>
</g>
<mask id="mask4_615_4216" style="mask-type:luminance" maskUnits="userSpaceOnUse" x="0" y="0" width="24" height="33">
<path d="M15 0H2.25C1.0125 0 0 1.0125 0 2.25V30.75C0 31.9875 1.0125 33 2.25 33H21.75C22.9875 33 24 31.9875 24 30.75V9L15 0Z" fill="white"/>
</mask>
<g mask="url(#mask4_615_4216)">
<path d="M2.25 0C1.0125 0 0 1.0125 0 2.25V2.4375C0 1.2 1.0125 0.1875 2.25 0.1875H15V0H2.25Z" fill="white" fill-opacity="0.2"/>
</g>
<mask id="mask5_615_4216" style="mask-type:luminance" maskUnits="userSpaceOnUse" x="0" y="0" width="24" height="33">
<path d="M15 0H2.25C1.0125 0 0 1.0125 0 2.25V30.75C0 31.9875 1.0125 33 2.25 33H21.75C22.9875 33 24 31.9875 24 30.75V9L15 0Z" fill="white"/>
</mask>
<g mask="url(#mask5_615_4216)">
<path d="M21.75 32.8125H2.25C1.0125 32.8125 0 31.8 0 30.5625V30.75C0 31.9875 1.0125 33 2.25 33H21.75C22.9875 33 24 31.9875 24 30.75V30.5625C24 31.8 22.9875 32.8125 21.75 32.8125Z" fill="#263238" fill-opacity="0.2"/>
</g>
<mask id="mask6_615_4216" style="mask-type:luminance" maskUnits="userSpaceOnUse" x="0" y="0" width="24" height="33">
<path d="M15 0H2.25C1.0125 0 0 1.0125 0 2.25V30.75C0 31.9875 1.0125 33 2.25 33H21.75C22.9875 33 24 31.9875 24 30.75V9L15 0Z" fill="white"/>
</mask>
<g mask="url(#mask6_615_4216)">
<path d="M17.25 9C16.0069 9 15 7.99312 15 6.75V6.9375C15 8.18062 16.0069 9.1875 17.25 9.1875H24V9H17.25Z" fill="#263238" fill-opacity="0.1"/>
</g>
<path d="M15 0H2.25C1.0125 0 0 1.0125 0 2.25V30.75C0 31.9875 1.0125 33 2.25 33H21.75C22.9875 33 24 31.9875 24 30.75V9L15 0Z" fill="url(#paint1_radial_615_4216)"/>
</g>
<defs>
<linearGradient id="paint0_linear_615_4216" x1="432.797" y1="79.948" x2="432.797" y2="842.456" gradientUnits="userSpaceOnUse">
<stop stop-color="#263238" stop-opacity="0.2"/>
<stop offset="1" stop-color="#263238" stop-opacity="0.02"/>
</linearGradient>
<radialGradient id="paint1_radial_615_4216" cx="0" cy="0" r="1" gradientUnits="userSpaceOnUse" gradientTransform="translate(76.0331 65.2226) scale(3869.96 3869.97)">
<stop stop-color="white" stop-opacity="0.1"/>
<stop offset="1" stop-color="white" stop-opacity="0"/>
</radialGradient>
<clipPath id="clip0_615_4216">
<rect width="158" height="33" fill="white"/>
</clipPath>
</defs>
</svg>
