<svg width="125" height="33" viewBox="0 0 125 33" fill="none" xmlns="http://www.w3.org/2000/svg">
<g clip-path="url(#clip0_615_4265)">
<path d="M70.9182 16.1006H71.6027V29.7914H69.0113V17.7631C69.0113 17.3719 69.8425 16.1006 70.9182 16.1006ZM85.0979 19.1322C83.8266 19.1322 82.8487 19.67 82.1642 20.7457V16.1006H81.8708C80.5995 16.1006 79.915 16.7852 79.5727 17.3719V17.2741V25.1463C79.5727 28.2267 81.1863 29.7914 84.4134 29.7914C87.6405 29.7425 89.2052 27.9823 89.2052 24.5596C89.2052 20.9902 87.8361 19.2299 85.0979 19.1322ZM84.3156 27.5422C82.8487 27.5422 82.1153 26.4665 82.1642 24.4129C82.262 22.4082 82.9465 21.4302 84.3645 21.4302C85.7825 21.4302 86.467 22.4082 86.5648 24.4129C86.5648 26.5154 85.7825 27.5422 84.3156 27.5422ZM90.7209 24.4129C90.8187 21.088 92.4323 19.2299 95.9039 19.2299H96.6862V21.9192H95.4638C93.9969 21.9192 93.3613 22.8482 93.3613 24.364V29.7425H90.7209V24.4129ZM100.793 27.1021C101.233 27.4933 101.82 27.6889 102.603 27.6889C103.14 27.6889 103.629 27.5422 104.021 27.2488C104.412 26.9555 104.656 26.6621 104.754 26.3687H107.199C106.808 27.5911 106.221 28.4223 105.39 28.9602C104.558 29.498 103.629 29.7425 102.456 29.7425C101.674 29.7425 100.94 29.5958 100.304 29.3513C99.6688 29.1069 99.131 28.7157 98.6909 28.2756C98.2508 27.7867 97.9086 27.2488 97.6641 26.6132C97.4196 25.9775 97.3218 25.2441 97.3218 24.4618C97.3218 23.7283 97.4685 22.9949 97.713 22.3593C97.9575 21.7236 98.2997 21.1369 98.7398 20.6968C99.1799 20.2079 99.7177 19.8656 100.353 19.5722C100.989 19.2788 101.674 19.1811 102.456 19.1811C103.287 19.1811 104.069 19.3277 104.705 19.67C105.341 20.0123 105.879 20.4523 106.27 20.9902C106.661 21.528 106.954 22.1637 107.15 22.8971C107.345 23.5817 107.394 24.364 107.345 25.1463H100.06C100.158 26.0753 100.402 26.711 100.793 27.1021ZM103.923 21.8214C103.58 21.4791 103.092 21.2836 102.407 21.2836C101.967 21.2836 101.576 21.3814 101.282 21.528C100.989 21.6747 100.745 21.8703 100.598 22.0659C100.402 22.3104 100.304 22.506 100.207 22.7504C100.109 22.9949 100.109 23.2394 100.06 23.435H104.558C104.509 22.7015 104.265 22.1637 103.923 21.8214ZM74.3898 16.1006H76.9813V18.4476H74.3898V16.1006ZM74.3898 19.6211H76.9813V29.7425H74.3898V19.6211ZM121.672 10.6732C121.232 11.1622 120.645 11.4555 119.912 11.4555C119.178 11.4555 118.591 11.1622 118.151 10.6732C117.711 10.1843 117.565 9.35303 117.565 8.37512C117.565 7.34831 117.76 6.61488 118.151 6.12592C118.591 5.63696 119.178 5.34359 119.912 5.34359C120.645 5.34359 121.232 5.63696 121.672 6.12592C122.112 6.61488 122.259 7.4461 122.259 8.37512C122.259 9.30413 122.112 10.0865 121.672 10.6732ZM123.725 4.61016C122.943 3.58335 121.623 2.9966 119.912 2.9966C118.249 2.9966 116.88 3.48556 116.098 4.61016C115.315 5.63696 114.826 6.90825 114.826 8.32622C114.826 9.79309 115.267 11.0644 116.098 12.0423C116.88 13.0691 118.2 13.6069 119.912 13.6069C121.574 13.6069 122.943 13.118 123.725 12.0423C124.508 11.0155 124.997 9.7442 124.997 8.32622C125.046 6.95715 124.606 5.68586 123.725 4.61016ZM111.013 10.6732C110.67 11.1622 110.084 11.4555 109.35 11.4555C108.617 11.4555 108.03 11.1622 107.737 10.6732C107.394 10.0865 107.248 9.35303 107.248 8.37512C107.248 7.495 107.394 6.81046 107.737 6.2726C108.079 5.68586 108.617 5.39248 109.399 5.39248C109.888 5.39248 110.328 5.53917 110.719 5.83255C111.306 6.3215 111.648 7.29941 111.648 8.5707C111.502 9.45082 111.404 10.1843 111.013 10.6732ZM114.044 0.0139658C114.044 0.0139658 111.404 -0.27941 111.404 1.8231V4.61016C111.11 4.1701 110.768 3.82782 110.23 3.48555C109.79 3.19218 109.203 3.14329 108.617 3.14329C107.297 3.14329 106.27 3.63224 105.439 4.61016C104.656 5.53917 104.265 6.95714 104.265 8.71738C104.265 10.1843 104.607 11.4555 105.439 12.2868C106.221 13.2158 107.785 13.6069 109.155 13.6069C113.995 13.6069 113.897 9.49972 113.897 9.49972L114.044 0.0139658ZM101.038 9.45082C101.038 10.3309 100.745 10.9177 100.304 11.26C99.8155 11.5533 99.2777 11.7489 98.7398 11.7489C98.3975 11.7489 98.1042 11.7 97.8597 11.4555C97.6152 11.2111 97.5174 10.9666 97.5174 10.5265C97.5174 10.0376 97.713 9.6464 98.1042 9.40193C98.2997 9.25524 98.7398 9.10855 99.2777 9.05966L99.8644 8.91297C100.158 8.86407 100.353 8.76629 100.598 8.76629C100.745 8.71739 100.94 8.61959 101.087 8.5707L101.038 9.45082ZM102.358 3.73003C101.478 3.28997 100.549 3.09439 99.4243 3.09439C97.7619 3.09439 96.5395 3.53445 95.855 4.41457C95.4149 5.00132 95.2193 5.68586 95.1215 6.51708H97.6152C97.6641 6.17481 97.8108 5.88144 97.9575 5.63696C98.2508 5.34359 98.6909 5.1969 99.2777 5.1969C99.8644 5.1969 100.207 5.2458 100.549 5.39248C100.842 5.53917 100.989 5.83254 100.989 6.2726C100.989 6.61487 100.793 6.85935 100.402 7.00604C100.207 7.05493 99.8155 7.15272 99.3754 7.20162L98.4953 7.25052C97.4685 7.3972 96.7351 7.59279 96.1972 7.88616C95.2682 8.37512 94.7793 9.35303 94.7793 10.5265C94.7793 11.4555 95.0726 12.189 95.6594 12.7268C96.2461 13.2158 96.9796 13.4603 97.9086 13.5092C103.629 13.7047 103.58 10.4776 103.58 9.84199V6.12592C103.629 5.05022 103.238 4.17009 102.358 3.73003ZM89.4007 5.34359C90.0364 5.34359 90.5253 5.53917 90.8676 5.93034C91.0632 6.22371 91.2099 6.56598 91.2099 6.95714H93.9969C93.8502 5.53917 93.3613 4.51236 92.5301 4.02341C91.7477 3.43666 90.6231 3.24108 89.303 3.24108C87.7383 3.24108 86.5159 3.68114 85.6358 4.65905C84.7557 5.63696 84.3156 6.95715 84.3156 8.6196C84.3156 10.1843 84.6579 11.3577 85.4891 12.2868C86.2714 13.2158 87.5427 13.7047 89.2052 13.7047C90.8676 13.7047 92.1389 13.118 93.019 12.0423C93.508 11.3089 93.8013 10.5754 93.8991 9.7442H91.1121C91.0632 10.2332 90.9165 10.6732 90.6231 11.0155C90.3298 11.3089 89.8897 11.5044 89.2052 11.5044C88.325 11.5044 87.6405 11.0644 87.396 10.2332C87.2493 9.79309 87.1026 9.20634 87.1026 8.47291C87.1026 7.73947 87.1515 7.05494 87.396 6.66377C87.8361 5.78365 88.4228 5.34359 89.4007 5.34359ZM83.5822 3.14329C77.7636 3.14329 78.1547 8.27733 78.1547 8.27733V13.4603H80.7951V8.6196C80.7951 7.83727 80.844 7.20162 81.0885 6.85935C81.4308 6.22371 82.1153 5.83255 83.191 5.83255H83.4844C83.6311 5.83255 83.7777 5.83254 83.9244 5.88144V3.24108H83.7288C83.68 3.14329 83.68 3.14329 83.5822 3.14329ZM70.4781 5.83255C70.8204 5.49028 71.3583 5.2458 72.0428 5.2458C72.6295 5.2458 73.1674 5.39248 73.6075 5.73475C74.0475 6.07702 74.2431 6.61488 74.2431 7.29942H69.7447C69.8914 6.71267 70.087 6.22371 70.4781 5.83255ZM73.9986 10.6732C73.9497 10.8199 73.803 10.9666 73.6563 11.0155C73.3141 11.3089 72.7762 11.3577 72.1895 11.3577C71.6027 11.3577 71.1627 11.3089 70.7715 11.0155C70.1359 10.6732 69.7447 9.89088 69.7447 8.96186H76.9813C76.9813 8.08174 76.9813 7.3972 76.9324 7.00604C76.7857 6.22371 76.5901 5.53917 76.15 4.95242C75.71 4.31678 75.1232 3.77893 74.4876 3.48555C73.8519 3.19218 73.0207 3.04549 72.1406 3.04549C70.6737 3.04549 69.5002 3.48556 68.6201 4.46347C67.74 5.39248 67.2021 6.71266 67.2021 8.42401C67.2021 10.2331 67.6911 11.6022 68.7668 12.3846C69.7936 13.1669 70.9671 13.6558 72.2873 13.6558C73.9008 13.6558 75.1721 13.1669 76.0033 12.189C76.4923 11.7 76.7857 11.1622 76.8835 10.6243L73.9986 10.6732ZM66.0775 13.4114H63.6327V7.39721C63.6327 6.81046 63.4861 5.58807 61.8725 5.58807C60.8457 5.58807 60.0634 6.3215 60.0634 7.39721V13.4114H57.6186V7.39721C57.6186 6.81046 57.4719 5.58807 55.8583 5.58807C54.8315 5.58807 54.0981 6.3215 54.0981 7.39721V13.4114H51.6533V7.4461C51.6533 4.95242 53.2669 3.04549 55.8094 3.04549C57.0807 3.04549 58.1075 3.53445 58.841 4.46347C59.5744 3.58335 60.6012 3.04549 61.8725 3.04549C64.5129 3.04549 66.0286 4.85463 66.0286 7.4461L66.0775 13.4114Z" fill="#85879F"/>
<path d="M23.2743 0.582031C36.1339 0.582031 46.5486 7.42742 46.5486 15.7886V16.6687C46.5486 25.5677 37.5029 32.7554 23.2743 32.7554C9.09458 32.7554 0 25.5677 0 16.6687V15.7886C0 7.42742 10.4148 0.582031 23.2743 0.582031Z" fill="#85879F"/>
<path d="M45.7824 16.8205C45.7824 24.6927 35.7588 31.098 23.4371 31.098C11.1154 31.098 1.0918 24.6927 1.0918 16.8205C1.0918 8.9483 11.1154 2.54297 23.4371 2.54297C35.7588 2.54297 45.7824 8.9483 45.7824 16.8205Z" fill="#A7A9BE"/>
<path d="M16.0031 12.3213C16.0031 12.3213 15.7586 12.5658 15.9053 12.7613C16.2475 13.2014 17.3232 13.4459 18.4478 13.2014C19.0835 13.0547 19.9636 12.3702 20.7459 11.7345C21.6261 11.05 22.5062 10.3166 23.3863 10.0721C24.3153 9.7787 24.9021 9.92539 25.2932 10.0232C25.7333 10.1699 26.2222 10.4632 27.0535 11.05C28.5692 12.1746 34.7301 17.5531 35.8058 18.4821C36.637 18.091 40.4509 16.4774 45.6338 15.3039C45.1938 12.5658 43.5313 10.0232 40.9887 7.96956C37.4682 9.43643 33.1165 10.2188 28.8626 8.16514C28.8626 8.16514 26.5645 7.08944 24.2664 7.13834C20.8926 7.23613 19.4746 8.6541 17.91 10.2188L16.0031 12.3213Z" fill="white"/>
<path d="M35.5622 19.0668C35.5133 19.018 28.3256 12.7593 26.7121 11.5369C25.783 10.8524 25.2452 10.6568 24.7073 10.559C24.414 10.5101 24.0228 10.559 23.7294 10.6568C22.996 10.8524 21.9692 11.5369 21.0891 12.2215C20.16 12.9549 19.3288 13.6394 18.5465 13.7861C17.5197 14.0306 16.2973 13.7372 15.7594 13.3461C15.515 13.1994 15.3683 13.0038 15.2705 12.8082C15.0749 12.3193 15.4661 11.9281 15.515 11.8792L17.4708 9.72778L18.1553 9.04324C17.5197 9.14103 16.9329 9.28772 16.3462 9.43441C15.6128 9.62999 14.9282 9.82557 14.2437 9.82557C13.9503 9.82557 12.3856 9.5811 12.0923 9.4833C10.2831 8.99435 8.71847 8.50539 6.37148 7.42969C3.58443 9.5322 1.6775 12.1237 1.13965 15.0085C1.53081 15.1063 2.21535 15.3019 2.45983 15.3508C8.81626 16.7688 10.7721 18.2356 11.1632 18.529C11.5544 18.0889 12.0923 17.8445 12.7279 17.8445C13.4124 17.8445 14.0481 18.1867 14.4393 18.7246C14.7815 18.4312 15.3194 18.1867 15.955 18.1867C16.2484 18.1867 16.5418 18.2356 16.884 18.3334C17.6175 18.5779 17.9597 19.0668 18.1553 19.5069C18.3998 19.4091 18.6932 19.3113 19.0354 19.3113C19.3777 19.3113 19.72 19.4091 20.1111 19.5558C21.2846 20.0448 21.4802 21.2183 21.3824 22.0984H21.6269C23.0449 22.0984 24.1695 23.223 24.1695 24.6409C24.1695 25.081 24.0717 25.4722 23.8761 25.8144C24.2673 26.01 25.1963 26.499 26.0764 26.4012C26.761 26.3034 27.0054 26.1078 27.1032 25.9611C27.1521 25.8633 27.2499 25.7655 27.1521 25.6678L25.343 23.663C25.343 23.663 25.0496 23.3697 25.1474 23.2719C25.2452 23.1741 25.4408 23.3208 25.5875 23.4186C26.5165 24.2009 27.5922 25.3255 27.5922 25.3255C27.5922 25.3255 27.69 25.4722 28.0811 25.57C28.4234 25.6189 29.059 25.57 29.4991 25.2277C29.5969 25.1299 29.7436 25.0321 29.7925 24.9343C30.2325 24.3476 29.7436 23.7608 29.7436 23.7608L27.6411 21.4138C27.6411 21.4138 27.3477 21.1205 27.4455 21.0227C27.5433 20.9249 27.7389 21.0716 27.8856 21.1694C28.5701 21.7072 29.4991 22.6851 30.3792 23.5652C30.5748 23.7119 31.3571 24.2009 32.3839 23.5164C33.0196 23.0763 33.1663 22.5873 33.1174 22.1962C33.0685 21.7072 32.6773 21.316 32.6773 21.316L29.8414 18.4312C29.8414 18.4312 29.548 18.1867 29.6458 18.04C29.7436 17.9422 29.9392 18.0889 30.0859 18.1867C31.0149 18.9691 33.4597 21.2183 33.4597 21.2183C33.5086 21.2183 34.3398 21.8539 35.4155 21.1694C35.8066 20.9249 36.0511 20.5826 36.0511 20.1426C36.1 19.5069 35.5622 19.0668 35.5622 19.0668Z" fill="white"/>
<path d="M21.7244 22.7363C21.2843 22.7363 20.7954 22.9809 20.7465 22.9809C20.6976 22.9809 20.7465 22.7853 20.7954 22.6875C20.8443 22.5897 21.431 20.8294 20.0131 20.1938C18.9374 19.7048 18.2528 20.2427 18.0572 20.4872C18.0083 20.5361 17.9594 20.5361 17.9594 20.4872C17.9594 20.1938 17.8128 19.3137 16.8348 19.0203C15.4658 18.5802 14.6345 19.5581 14.3901 19.9003C14.2923 19.118 13.6566 18.5312 12.8254 18.5312C11.9453 18.5312 11.2607 19.2158 11.2607 20.0959C11.2607 20.976 11.9453 21.6607 12.8254 21.6607C13.2655 21.6607 13.6077 21.514 13.9011 21.2206V21.2694C13.8522 21.6606 13.7055 23.0785 15.1724 23.6164C15.7591 23.8609 16.2481 23.6654 16.6882 23.372C16.8348 23.2742 16.8348 23.323 16.8348 23.4208C16.7859 23.7631 16.8348 24.5454 17.9594 24.9855C18.7907 25.3277 19.2796 24.9856 19.573 24.6922C19.7197 24.5455 19.7686 24.5943 19.7686 24.7899C19.8175 25.8167 20.6976 26.6479 21.7244 26.6479C22.8001 26.6479 23.6802 25.7679 23.6802 24.6922C23.6802 23.6165 22.8001 22.7363 21.7244 22.7363Z" fill="white"/>
<path d="M35.8578 18.3387C33.6575 16.4318 28.5723 11.9823 27.1543 10.9555C26.372 10.3687 25.8342 10.0265 25.3452 9.92869C25.1496 9.87979 24.8562 9.782 24.4651 9.782C24.1228 9.782 23.7316 9.8309 23.3405 9.97758C22.4604 10.271 21.5802 10.9555 20.7001 11.64L20.6512 11.6889C19.8689 12.3246 19.0377 12.9602 18.402 13.1069C18.1087 13.1558 17.8642 13.2047 17.5708 13.2047C16.8863 13.2047 16.2506 13.0091 16.0061 12.7157C15.9572 12.6668 16.0061 12.5691 16.1039 12.4713L18.0598 10.3687C19.5755 8.85298 20.9935 7.43501 24.3184 7.33722H24.4651C26.5187 7.33722 28.5723 8.26624 28.8168 8.36403C30.7726 9.29304 32.7284 9.782 34.7332 9.782C36.8357 9.782 38.9871 9.24415 41.2363 8.21734C40.9918 8.02176 40.6984 7.77728 40.454 7.5817C38.4492 8.46182 36.5912 8.85298 34.7332 8.85298C32.8751 8.85298 31.0171 8.41292 29.208 7.5328C29.1102 7.48391 26.861 6.4082 24.4651 6.4082H24.2695C21.4825 6.4571 19.9178 7.43501 18.891 8.31513C17.8642 8.31513 16.9841 8.60851 16.2017 8.80409C15.5172 8.99967 14.8815 9.14636 14.2948 9.14636H13.5614C12.8768 9.14636 9.45413 8.31513 6.76487 7.23943C6.47149 7.43501 6.22702 7.63059 5.93364 7.82618C8.76959 8.99967 12.2412 9.87979 13.3169 9.97758C13.6103 9.97758 13.9525 10.0265 14.2948 10.0265C15.0282 10.0265 15.7128 9.8309 16.4462 9.63531C16.8863 9.53752 17.3263 9.39084 17.7664 9.29304L17.3752 9.68421L15.4194 11.8356C15.2727 11.9823 14.9304 12.4224 15.126 12.9113C15.2238 13.1069 15.4194 13.3025 15.6639 13.4981C16.1528 13.7914 16.9841 14.0359 17.7664 14.0359C18.0598 14.0359 18.3531 13.987 18.5976 13.9381C19.4288 13.7425 20.309 13.058 21.1891 12.3246C21.9225 11.7378 22.9493 11.0044 23.7317 10.7599C23.9761 10.711 24.2206 10.6621 24.4651 10.6621H24.6607C25.1985 10.711 25.6875 10.9066 26.6165 11.5911C28.23 12.8135 35.4177 19.0722 35.4666 19.1211C35.4666 19.1211 35.9067 19.5122 35.9067 20.1968C35.9067 20.539 35.6622 20.8813 35.3199 21.1258C35.0265 21.3214 34.6843 21.4192 34.3909 21.4192C33.9019 21.4192 33.5597 21.1747 33.5597 21.1747C33.5597 21.1747 31.066 18.9255 30.1859 18.1432C30.0392 17.9965 29.8925 17.8987 29.7458 17.8987C29.648 17.8987 29.5991 17.9476 29.5502 17.9965C29.4035 18.192 29.5502 18.4365 29.7458 18.5832L32.6307 21.4681C32.6307 21.4681 32.9729 21.8103 33.0218 22.2504C33.0218 22.7393 32.8262 23.1305 32.3373 23.4239C31.995 23.6684 31.6527 23.7661 31.3105 23.7661C30.8704 23.7661 30.577 23.5706 30.4792 23.5217L30.0392 23.1305C29.3058 22.3971 28.5234 21.6147 27.9367 21.1747C27.79 21.0769 27.6433 20.9302 27.4966 20.9302C27.4477 20.9302 27.3499 20.9302 27.301 21.028C27.2521 21.0769 27.2032 21.2236 27.3499 21.4681C27.3988 21.5658 27.4966 21.6147 27.4966 21.6147L29.5991 23.9617C29.5991 23.9617 30.0392 24.4996 29.648 24.9396L29.5502 25.0374L29.3546 25.233C29.0124 25.5264 28.5234 25.5753 28.3278 25.5753H28.0345C27.8389 25.5264 27.6922 25.4775 27.5944 25.3797C27.4966 25.233 26.4209 24.2062 25.5408 23.4728C25.443 23.375 25.2963 23.2772 25.1496 23.2772C25.1007 23.2772 25.0029 23.3261 24.954 23.375C24.8074 23.5706 25.0518 23.8639 25.1496 23.9617L26.9588 25.9176C26.9588 25.9176 26.9588 25.9665 26.9099 26.0642C26.861 26.162 26.6165 26.3576 25.9808 26.4554H25.7364C25.0518 26.4554 24.3673 26.1131 23.9761 25.9176C24.1228 25.5753 24.2206 25.1841 24.2206 24.793C24.2206 23.3261 23.0471 22.1526 21.5802 22.1526H21.4825C21.5313 21.4681 21.4336 20.1968 20.1134 19.6589C19.7222 19.5122 19.3799 19.4144 18.9888 19.4144C18.6954 19.4144 18.4509 19.4633 18.1575 19.5611C17.8642 19.0233 17.4241 18.6321 16.8374 18.4365C16.4951 18.3387 16.2017 18.2898 15.8595 18.2898C15.3216 18.2898 14.8326 18.4365 14.3926 18.7788C14.1802 18.5172 13.9117 18.3068 13.607 18.1629C13.3024 18.019 12.9693 17.9454 12.6323 17.9476C12.0456 17.9476 11.4588 18.192 11.0677 18.5832C10.5298 18.1432 8.32953 16.7741 2.41316 15.405C2.11978 15.3561 1.48414 15.1605 1.09298 15.0138C1.04408 15.3072 0.995185 15.6495 0.946289 15.9917C0.946289 15.9917 2.02199 16.2362 2.26647 16.2851C8.28063 17.6053 10.2854 19.0233 10.6276 19.2678C10.5298 19.5611 10.4809 19.8545 10.4809 20.1479C10.4809 21.4192 11.5077 22.3971 12.7301 22.3971C12.8768 22.3971 13.0235 22.3971 13.1702 22.3482C13.3658 23.2772 13.9525 23.9617 14.8815 24.304C15.1749 24.4018 15.4194 24.4507 15.6639 24.4507C15.8106 24.4507 16.0061 24.4507 16.2017 24.4018C16.3484 24.8419 16.7396 25.3797 17.6197 25.722C17.9131 25.8687 18.2064 25.9176 18.4998 25.9176C18.7443 25.9176 18.9888 25.8687 19.1844 25.7709C19.5755 26.7488 20.5534 27.4333 21.6291 27.4333C22.3626 27.4333 23.0471 27.1399 23.5361 26.6021C23.9761 26.8466 24.8562 27.2866 25.7853 27.2866H26.1275C27.0566 27.1888 27.4477 26.7977 27.6433 26.5532C27.6922 26.5043 27.6922 26.4554 27.7411 26.4065C27.9367 26.4554 28.1811 26.5043 28.4745 26.5043C28.9635 26.5043 29.4524 26.3576 29.9414 25.9665C30.4303 25.6242 30.7726 25.1352 30.7726 24.6952C30.9193 24.7441 31.1149 24.7441 31.2616 24.7441C31.7505 24.7441 32.2884 24.5974 32.7773 24.2551C33.7064 23.6684 33.853 22.8371 33.853 22.3482C33.9997 22.3971 34.1953 22.3971 34.342 22.3971C34.831 22.3971 35.3199 22.2504 35.76 21.957C36.3467 21.5658 36.689 21.028 36.7379 20.3924C36.7868 19.9523 36.6401 19.5122 36.4445 19.1211C38.0092 18.4365 41.5297 17.1652 45.7347 16.1873C45.7347 15.8451 45.6858 15.5517 45.588 15.2094C40.5517 16.2851 36.7868 17.8987 35.8578 18.3387ZM21.7269 26.5043C20.749 26.5043 19.9667 25.722 19.9178 24.7441C19.9178 24.6463 19.9178 24.4507 19.7222 24.4507C19.6244 24.4507 19.5755 24.4996 19.4777 24.5485C19.2821 24.7441 18.9888 24.9396 18.5976 24.9396C18.402 24.9396 18.2064 24.8907 18.0109 24.793C16.9841 24.3529 16.9352 23.6684 16.9841 23.375C16.9841 23.2772 16.9841 23.2283 16.9352 23.1794L16.8863 23.1305H16.8374C16.7885 23.1305 16.7396 23.1305 16.6418 23.2283C16.3484 23.4239 16.055 23.5217 15.7617 23.5217C15.615 23.5217 15.4194 23.4728 15.2727 23.4239C13.9036 22.886 14.0014 21.6147 14.0992 21.2236C14.0992 21.1258 14.0992 21.0769 14.0503 21.028L13.9525 20.9302L13.8547 21.028C13.5614 21.2725 13.2191 21.4192 12.8768 21.4192C12.0945 21.4192 11.4588 20.7835 11.4588 20.0012C11.4588 19.2189 12.0945 18.5832 12.8768 18.5832C13.5614 18.5832 14.197 19.1211 14.2948 19.8056L14.3437 20.1968L14.5393 19.8545C14.5393 19.8056 15.126 18.9255 16.2017 18.9744C16.3973 18.9744 16.5929 19.0233 16.8374 19.0722C17.6686 19.3166 17.8153 20.099 17.8153 20.3924C17.8153 20.5879 17.962 20.5879 17.962 20.5879C18.0109 20.5879 18.1087 20.539 18.1087 20.4901C18.2553 20.3435 18.5976 20.0501 19.1355 20.0501C19.3799 20.0501 19.6244 20.099 19.9178 20.2457C21.238 20.8324 20.6512 22.4949 20.6512 22.5438C20.5534 22.8371 20.5045 22.9349 20.6512 23.0327H20.749C20.7979 23.0327 20.8957 23.0327 20.9935 22.9838C21.1891 22.9349 21.4336 22.8371 21.678 22.8371C22.6559 22.8371 23.4872 23.6684 23.4872 24.6463C23.5361 25.722 22.7048 26.5043 21.7269 26.5043Z" fill="#85879F"/>
</g>
<defs>
<clipPath id="clip0_615_4265">
<rect width="125" height="33" fill="white"/>
</clipPath>
</defs>
</svg>
