<svg width="126" height="33" viewBox="0 0 126 33" fill="none" xmlns="http://www.w3.org/2000/svg">
<path d="M8.89389 23.8398C9.11327 23.7392 9.33264 23.657 9.56116 23.5656C9.8171 23.4742 10.073 23.3828 10.329 23.3005C10.6489 23.1999 10.978 23.1177 11.307 23.0446C11.7549 22.9531 12.2028 22.88 12.6507 22.8343C12.3948 23.6296 12.1206 24.4248 11.8098 25.2109C11.8189 25.3663 11.828 25.5125 11.8372 25.6679C12.4496 25.5491 13.0803 25.4851 13.7293 25.4851C14.3783 25.4851 15.009 25.5491 15.6214 25.6679C15.6214 25.5125 15.6306 25.3571 15.6489 25.2109C15.3472 24.4248 15.0639 23.6296 14.8079 22.8343C15.2558 22.88 15.7128 22.944 16.1516 23.0446C16.4807 23.1177 16.8006 23.1999 17.1297 23.3005C17.3856 23.3828 17.6415 23.465 17.8975 23.5656C18.126 23.6478 18.3454 23.7392 18.5647 23.8398C20.1187 24.5345 21.5355 25.5582 22.6963 26.8928C25.6122 24.3791 27.4586 20.6588 27.4586 16.4998C27.4586 8.92219 21.3161 2.77051 13.7293 2.77051C6.15168 2.77051 0 8.91305 0 16.4998C0 20.6497 1.84642 24.37 4.7623 26.8928C5.92316 25.5582 7.33997 24.5345 8.89389 23.8398Z" fill="#BEBEBE"/>
<path d="M9.79758 26.326C10.4374 26.0426 11.123 25.8233 11.8268 25.6862C11.8268 25.5308 11.8177 25.3754 11.7994 25.2291C12.101 24.443 12.3844 23.6478 12.6403 22.8525C12.1924 22.8982 11.7354 22.9622 11.2967 23.0628C10.9676 23.1359 10.6477 23.2182 10.3186 23.3187C10.0627 23.401 9.80672 23.4832 9.55078 23.5838L10.5471 23.8306L9.79758 26.326Z" fill="#525353"/>
<path d="M7.44029 27.7962C7.46771 27.5402 7.47685 27.2843 7.47685 27.0192C7.47685 26.8638 7.60482 26.7358 7.76022 26.7358H8.00701L8.88452 23.8291C7.3306 24.5238 5.9138 25.5476 4.75293 26.8821C5.39278 27.4397 6.08747 27.9333 6.81872 28.3629C7.02896 28.1709 7.23006 27.979 7.44029 27.7962Z" fill="#525353"/>
<path d="M18.5527 23.8389L19.4302 26.7456H19.677C19.8324 26.7456 19.9604 26.8736 19.9604 27.029C19.9604 27.294 19.9787 27.55 19.997 27.8059C20.2072 27.9887 20.4174 28.1716 20.6094 28.3726C21.3498 27.943 22.0353 27.4494 22.6752 26.8919C21.5235 25.5573 20.1067 24.5336 18.5527 23.8389Z" fill="#525353"/>
<path d="M16.8823 23.813L17.8786 23.5662C17.6227 23.4748 17.3667 23.3834 17.1108 23.3011C16.7909 23.2006 16.4618 23.1183 16.1327 23.0452C15.6848 22.9538 15.237 22.8807 14.7891 22.835C15.045 23.6302 15.3192 24.4254 15.63 25.2115C15.6209 25.3669 15.6117 25.5132 15.6026 25.6686C16.3156 25.8057 16.992 26.0251 17.6318 26.3084L16.8823 23.813Z" fill="#525353"/>
<path d="M13.721 26.747H15.6589C15.6223 26.3906 15.604 26.0341 15.6132 25.6867C15.0007 25.5679 14.37 25.5039 13.721 25.5039C13.072 25.5039 12.4413 25.5679 11.8289 25.6867C11.838 26.0432 11.8198 26.3906 11.7832 26.747H13.721Z" fill="black"/>
<path d="M6.82715 28.3656C6.98254 28.457 7.14707 28.5484 7.31161 28.6398C7.36645 28.3656 7.41215 28.0822 7.43957 27.7988C7.22934 27.9816 7.02824 28.1736 6.82715 28.3656Z" fill="black"/>
<path d="M9.66895 26.7478H11.7896C11.8261 26.3913 11.8444 26.0348 11.8353 25.6875C11.1223 25.8246 10.4459 26.044 9.80606 26.3273L9.66895 26.7478Z" fill="black"/>
<path d="M20.0078 27.7988C20.0352 28.0822 20.0809 28.3656 20.1358 28.6398C20.3003 28.5575 20.4557 28.4661 20.6202 28.3656C20.4191 28.1736 20.218 27.9816 20.0078 27.7988Z" fill="black"/>
<path d="M17.7767 26.7478L17.6487 26.3273C17.0089 26.044 16.3233 25.8246 15.6195 25.6875C15.6104 26.044 15.6287 26.3913 15.6652 26.7478H17.7767Z" fill="black"/>
<path d="M9.67107 26.7474L9.79904 26.3269L10.5577 23.8132L9.56138 23.5664C9.33286 23.6487 9.11348 23.7401 8.89411 23.8406L8.0166 26.7474H8.95809H9.67107Z" fill="#8B8B8B"/>
<path d="M17.6493 26.3269L17.7773 26.7474H18.4902H19.4317L18.5542 23.8406C18.3349 23.7401 18.1155 23.6578 17.887 23.5664L16.8906 23.8132L17.6493 26.3269Z" fill="#8B8B8B"/>
<path d="M13.7196 27.3135H11.6995H9.49661H8.07067C8.06153 27.3226 8.05238 27.3226 8.04324 27.3318C8.02496 27.8711 7.95184 28.3921 7.83301 28.904C9.61544 29.754 11.6081 30.2294 13.7196 30.2294V27.3135Z" fill="#8E8E8E"/>
<path d="M19.3768 27.3135H17.9508H15.7388H13.7188V30.2294C15.821 30.2294 17.8229 29.754 19.6054 28.904C19.4865 28.3921 19.4134 27.8619 19.3951 27.3318C19.3951 27.3226 19.386 27.3135 19.3768 27.3135Z" fill="#8B8B8B"/>
<path d="M20.0083 27.7986C19.9809 27.5427 19.9717 27.2867 19.9717 27.0216C19.9717 26.8663 19.8438 26.7383 19.6884 26.7383H19.4416H18.4818H17.7688H15.6482H13.7104H11.7725H9.65189H8.93892H7.99743H7.75063C7.59524 26.7383 7.46727 26.8663 7.46727 27.0216C7.46727 27.2867 7.44899 27.5427 7.4307 27.7986C7.40328 28.082 7.35758 28.3653 7.30273 28.6395C7.47641 28.731 7.65008 28.8224 7.82375 28.9046C7.94258 28.3927 8.01571 27.8626 8.03399 27.3324C8.03399 27.3233 8.03399 27.3233 8.03399 27.3141H8.06141H9.48736H11.6903H13.7104H15.7396H17.9425H19.3684H19.3959C19.3959 27.3233 19.3959 27.3233 19.3959 27.3324C19.4141 27.8717 19.4873 28.3927 19.6061 28.9046C19.7798 28.8224 19.9534 28.731 20.1271 28.6395C20.0723 28.3653 20.0357 28.082 20.0083 27.7986Z" fill="#A1A1A1"/>
<path d="M22.8607 13.4462C22.7419 13.2816 22.6231 13.1354 22.5042 13.0074C22.4494 12.9434 22.3945 12.8886 22.3397 12.8338C22.3214 12.8155 22.294 12.7972 22.2757 12.7789C22.2391 12.7423 22.2026 12.7149 22.166 12.6875V13.9672L22.6505 16.2067C22.6596 16.2249 22.6596 16.2432 22.6688 16.2615L23.007 16.6454H23.3634C23.3634 16.6089 23.3634 16.5814 23.3634 16.5449C23.3634 15.4845 23.1898 14.4699 22.879 13.5193C22.8699 13.4827 22.8698 13.4645 22.8607 13.4462Z" fill="#BBBCBD"/>
<path d="M22.7042 16.4191V16.4283C22.7042 16.4283 22.7042 16.4283 22.7042 16.4374C22.7133 16.4923 22.7133 16.5471 22.7133 16.602C22.7133 16.6111 22.7133 16.6202 22.7133 16.6294C22.7133 16.6385 22.7133 16.6477 22.7133 16.6568C22.7133 16.7116 22.7133 16.7665 22.7042 16.8122V16.8213V16.8305C22.695 16.8853 22.6859 16.9402 22.6768 16.995L23.015 16.6202L22.6768 16.2363C22.6859 16.3003 22.695 16.3552 22.7042 16.4191Z" fill="#676A6A"/>
<path d="M22.6948 16.8493C22.6948 16.8402 22.6948 16.8402 22.6948 16.8311C22.704 16.7762 22.704 16.7214 22.704 16.6757C22.704 16.6665 22.704 16.6482 22.704 16.6391C22.704 16.63 22.704 16.6208 22.704 16.6025C22.704 16.5477 22.704 16.4929 22.6948 16.438C22.6948 16.4289 22.6948 16.4289 22.6948 16.4197C22.6857 16.3649 22.6765 16.31 22.6674 16.2552C22.6582 16.2369 22.6583 16.2186 22.6491 16.2004C22.6125 16.0907 22.576 15.9993 22.5211 15.917C22.512 15.9079 22.5029 15.8987 22.5029 15.8896C22.4846 15.8713 22.4754 15.853 22.4572 15.8347C22.4389 15.8073 22.4115 15.789 22.384 15.7707C22.3749 15.7616 22.3657 15.7616 22.3566 15.7525C22.3383 15.7342 22.3109 15.725 22.2926 15.7159C22.2835 15.7159 22.2743 15.7068 22.2652 15.7068C22.2378 15.6976 22.2012 15.6885 22.1647 15.6885C22.1281 15.6885 22.1007 15.6976 22.0641 15.7068C22.055 15.7068 22.0458 15.7159 22.0367 15.7159C22.0184 15.725 21.991 15.7342 21.9727 15.7525C21.9636 15.7616 21.9544 15.7616 21.9453 15.7707C21.9179 15.789 21.8996 15.8164 21.8722 15.8347C21.8539 15.853 21.8447 15.8713 21.8264 15.8896C21.8173 15.8987 21.8082 15.9079 21.8082 15.917C21.7533 15.9993 21.7076 16.0907 21.6802 16.2004V16.2095C21.6619 16.2552 21.6528 16.31 21.6436 16.3649C21.6436 16.3832 21.6345 16.3923 21.6345 16.4106C21.6254 16.4746 21.6254 16.5294 21.6162 16.5934C21.6162 16.6025 21.6162 16.6117 21.6162 16.6208C21.6162 17.1418 21.863 17.5715 22.1647 17.5715C22.2195 17.5715 22.2652 17.5532 22.32 17.5349C22.3292 17.5349 22.3383 17.5258 22.3475 17.5258C22.3657 17.5166 22.384 17.4983 22.4023 17.4892C22.4115 17.4801 22.4206 17.4709 22.4297 17.4618C22.4572 17.4435 22.4754 17.4161 22.5029 17.3886C22.5211 17.3704 22.5303 17.3521 22.5486 17.3247C22.5577 17.3064 22.5668 17.2972 22.576 17.279C22.5943 17.2515 22.6034 17.2241 22.6217 17.1875C22.6308 17.1784 22.6308 17.1693 22.64 17.151C22.6583 17.1053 22.6674 17.0596 22.6857 17.0139C22.6857 16.959 22.6948 16.9042 22.6948 16.8493ZM22.1829 16.502C22.0641 16.502 21.9727 16.3466 21.9727 16.1455C21.9727 15.9536 22.0641 15.789 22.1829 15.789C22.3018 15.789 22.3932 15.9444 22.3932 16.1455C22.3932 16.3466 22.2926 16.502 22.1829 16.502Z" fill="black"/>
<path d="M21.6729 16.1985C21.7094 16.0888 21.746 15.9974 21.8008 15.9151C21.81 15.906 21.8191 15.8968 21.8191 15.8877C21.8374 15.8694 21.8465 15.8511 21.8648 15.8328C21.8831 15.8054 21.9105 15.7871 21.9379 15.7688C21.9471 15.7597 21.9562 15.7597 21.9654 15.7506C21.9836 15.7323 22.0111 15.7231 22.0293 15.714C22.0385 15.714 22.0476 15.7049 22.0568 15.7049C22.0842 15.6957 22.1207 15.6866 22.1573 15.6866C22.1939 15.6866 22.2213 15.6957 22.2579 15.7049C22.267 15.7049 22.2761 15.714 22.2853 15.714C22.3036 15.7231 22.331 15.7323 22.3493 15.7506C22.3584 15.7597 22.3675 15.7597 22.3767 15.7688C22.4041 15.7871 22.4224 15.8145 22.4498 15.8328C22.4681 15.8511 22.4772 15.8694 22.4955 15.8877C22.5047 15.8968 22.5138 15.906 22.5138 15.9151C22.5686 15.9974 22.6143 16.0888 22.6418 16.1985L22.1573 13.959L21.6729 16.1985Z" fill="#909393"/>
<path d="M15.6848 16.6124C15.6848 16.5666 15.6848 16.5209 15.6757 16.4752C15.6665 16.4295 15.6665 16.393 15.6574 16.3473C15.6483 16.3016 15.6391 16.265 15.6208 16.2284C15.6117 16.1919 15.5934 16.1462 15.5751 16.1096C15.5569 16.0731 15.5386 16.0365 15.5203 15.9999C15.4563 15.8902 15.3832 15.7897 15.2918 15.7074C15.1729 15.5977 15.0358 15.5063 14.8896 15.4423C14.8165 15.4149 14.7342 15.3875 14.6611 15.3692C14.6611 15.3692 14.6611 15.3692 14.6519 15.3692C14.5697 15.3509 14.4874 15.3418 14.4051 15.3418C14.3229 15.3418 14.2406 15.3509 14.1583 15.3692H14.1492C14.0669 15.3875 13.9938 15.4058 13.9207 15.4332C13.9207 15.4332 13.9207 15.4332 13.9115 15.4332C13.8384 15.4606 13.7653 15.4972 13.7013 15.5429C13.6373 15.5886 13.5733 15.6343 13.5185 15.6891H13.5093C13.4179 15.7806 13.3357 15.8811 13.2717 15.9908C13.2534 16.0273 13.2351 16.0639 13.2168 16.1005C13.2168 16.1005 13.2168 16.1096 13.2077 16.1096C13.1894 16.1462 13.1803 16.1736 13.1711 16.2102C13.1711 16.2193 13.162 16.2193 13.162 16.2284C13.1529 16.265 13.1437 16.2924 13.1346 16.329C13.1346 16.3381 13.1254 16.3473 13.1254 16.3564C13.1163 16.393 13.1163 16.4204 13.1071 16.457C13.1071 16.4661 13.1071 16.4752 13.098 16.4844C13.098 16.5301 13.0889 16.5758 13.0889 16.6215C13.0889 16.7038 13.098 16.786 13.1163 16.8683C13.1163 16.8683 13.1163 16.8683 13.1163 16.8774C13.1346 16.9597 13.1529 17.0328 13.1894 17.1151C13.2534 17.2613 13.3448 17.3985 13.4545 17.5173C13.5459 17.6087 13.6464 17.691 13.7561 17.7549C13.7927 17.7732 13.8293 17.7915 13.8658 17.8098H13.875C13.9115 17.8281 13.9481 17.8372 13.9755 17.8463C13.9847 17.8463 13.9847 17.8463 13.9938 17.8555C14.0304 17.8646 14.0578 17.8738 14.0943 17.8829C14.1035 17.8829 14.1126 17.892 14.1218 17.892C14.1583 17.9012 14.1857 17.9012 14.2223 17.9103C14.2315 17.9103 14.2406 17.9103 14.2497 17.9195C14.2954 17.9195 14.3411 17.9286 14.3868 17.9286C14.5697 17.9286 14.7342 17.892 14.8896 17.8281C14.9627 17.7915 15.0358 17.7549 15.109 17.7092C15.2461 17.6178 15.3649 17.499 15.4563 17.3619C15.502 17.2888 15.5386 17.2156 15.5751 17.1425C15.6391 16.9871 15.6757 16.8134 15.6757 16.6398V16.6306C15.6848 16.6124 15.6848 16.6124 15.6848 16.6124ZM14.396 16.457C14.1309 16.457 13.9115 16.2376 13.9115 15.9725C13.9115 15.7074 14.1309 15.488 14.396 15.488C14.6611 15.488 14.8804 15.7074 14.8804 15.9725C14.8804 16.2376 14.6611 16.457 14.396 16.457Z" fill="black"/>
<path d="M14.3966 16.4572C14.6641 16.4572 14.881 16.2403 14.881 15.9727C14.881 15.7052 14.6641 15.4883 14.3966 15.4883C14.129 15.4883 13.9121 15.7052 13.9121 15.9727C13.9121 16.2403 14.129 16.4572 14.3966 16.4572Z" fill="white"/>
<path d="M13.4992 15.6855L14.3949 12.9525C14.3949 12.9525 14.3949 12.7879 14.3949 12.6325C14.3949 12.5868 14.3949 12.5411 14.3949 12.5046C14.3949 12.4863 14.3949 12.4772 14.3949 12.468C14.3949 12.4497 14.3949 12.4314 14.3949 12.4132C14.3949 12.404 14.3949 12.3857 14.3949 12.3766C14.3949 12.3675 14.3949 12.3492 14.3949 12.34C14.3949 12.3309 14.3949 12.3218 14.3949 12.3218C14.3949 12.3126 14.3949 12.3126 14.3949 12.3126C13.9013 12.2121 13.3895 12.1572 12.8684 12.1572C12.6948 12.1572 12.5211 12.1664 12.3474 12.1755C12.32 12.1755 12.3017 12.1755 12.2743 12.1846C11.3785 12.2486 10.501 12.4863 9.68749 12.8611C8.9928 13.181 8.33467 13.6015 7.7588 14.0951C7.60341 14.2322 7.44802 14.3693 7.30177 14.5155C7.27435 14.5429 7.24692 14.5704 7.2195 14.5978C7.08239 14.7349 6.94528 14.8812 6.81731 15.0274C6.78989 15.064 6.76247 15.0914 6.73505 15.1279C6.60708 15.2833 6.47911 15.4387 6.36028 15.5941C6.35114 15.6033 6.342 15.6215 6.33286 15.6307C6.22317 15.7861 6.11348 15.9415 6.00379 16.106C5.98551 16.1334 5.95809 16.17 5.93981 16.1974C5.85754 16.3345 5.77527 16.4716 5.70215 16.6087H9.75147H9.76061L13.4992 15.6855Z" fill="#BBBCBD"/>
<path d="M16.9258 15.3861C16.9349 15.2764 16.9441 15.1758 16.9441 15.0662C16.9532 14.9199 16.9532 14.7828 16.9624 14.6365C16.9624 14.5269 16.9624 14.4172 16.9624 14.2983C16.9624 14.2618 16.9624 14.2343 16.9624 14.1978C16.9624 13.9053 16.9441 13.6219 16.9349 13.3294C16.9349 13.3294 16.9258 13.3294 16.9258 13.3203C16.9258 13.3203 16.9167 13.3203 16.9167 13.3111C16.8618 13.2837 16.7338 13.2106 16.615 13.1375H16.6059C16.5785 13.1192 16.551 13.1009 16.5236 13.0918C16.5053 13.0826 16.487 13.0643 16.4688 13.0552L16.4596 13.0461C16.4413 13.0369 16.4231 13.0278 16.4139 13.0186C16.2311 12.9181 16.0392 12.8358 15.8472 12.7536C15.3902 12.5616 14.7686 12.3879 14.4121 12.3057V12.5525V12.6073V12.6256C14.4121 12.7901 14.4121 12.9455 14.4121 12.9455L15.2988 15.6694C15.3902 15.7517 15.4724 15.8523 15.5273 15.9619C15.5456 15.9985 15.5638 16.0351 15.5821 16.0716C15.6004 16.1082 15.6187 16.1448 15.6278 16.1905C15.637 16.227 15.6552 16.2727 15.6644 16.3093C15.6735 16.355 15.6827 16.3916 15.6827 16.4373C15.6918 16.483 15.6918 16.5287 15.6918 16.5744V16.5835H16.7704C16.8435 16.1905 16.8984 15.7883 16.9258 15.3861C16.9258 15.4044 16.9258 15.3952 16.9258 15.3861Z" fill="#E2DDDB"/>
<path d="M15.6946 20.5032C15.9414 20.2564 16.1699 20.0279 16.3893 19.7994C16.5173 19.6623 16.6452 19.5252 16.7732 19.3972C17.6781 18.4191 18.3363 17.4959 18.7385 16.3168C18.7476 16.2894 18.7567 16.2528 18.7659 16.2071C18.7659 16.1979 18.7659 16.1979 18.7659 16.1888C18.775 16.1431 18.7842 16.0974 18.7933 16.0426C18.7933 16.006 18.8024 15.9694 18.8024 15.9329C18.7019 15.421 18.5099 14.9183 18.3363 14.4247C18.3363 14.4247 18.3363 14.4247 18.3363 14.4338C18.3363 14.4338 18.3363 14.4338 18.3271 14.4247C18.2906 14.3972 18.2631 14.3607 18.2266 14.3332C18.126 14.2418 18.0255 14.1504 17.9158 14.059C17.5959 13.7939 17.2668 13.5471 16.9195 13.3369C16.9377 13.6294 16.9469 13.9128 16.9469 14.2053C16.9469 14.2418 16.9469 14.2693 16.9469 14.3058C16.9469 14.4155 16.9469 14.5252 16.9469 14.644C16.9469 14.7903 16.9377 14.9365 16.9286 15.0736C16.9195 15.1833 16.9195 15.2839 16.9103 15.3936C16.9103 15.4027 16.9103 15.4118 16.9103 15.4301C16.8738 15.8323 16.8281 16.2345 16.7549 16.6276L16.627 17.2308C16.3619 18.3094 15.8226 19.2784 15.3838 20.2838C15.265 20.5489 15.1553 20.8231 15.0548 21.0974C15.0456 21.1248 15.0365 21.1522 15.0273 21.1796C15.1645 21.0334 15.2924 20.9054 15.3838 20.814C15.5027 20.6952 15.5941 20.5946 15.6946 20.5032Z" fill="#999999"/>
<path d="M13.5078 15.6881C13.5627 15.6332 13.6266 15.5875 13.6906 15.5418C13.7546 15.4961 13.8277 15.4595 13.9009 15.4321C13.9009 15.4321 13.9009 15.4321 13.91 15.4321C13.9831 15.4047 14.0563 15.3773 14.1385 15.3681H14.1477C14.2299 15.3499 14.3122 15.3407 14.3945 15.3407C14.4767 15.3407 14.559 15.3499 14.6413 15.3681C14.6413 15.3681 14.6413 15.3681 14.6504 15.3681C14.7327 15.3864 14.8058 15.4047 14.8789 15.4413C15.0252 15.5053 15.1623 15.5875 15.2811 15.7063L14.3945 12.9824L13.5078 15.6881Z" fill="#909393"/>
<path d="M13.1976 17.1144C13.1702 17.0413 13.1428 16.959 13.1245 16.8768C13.1245 16.8768 13.1245 16.8768 13.1245 16.8676C13.1062 16.7854 13.0971 16.7031 13.0971 16.6208C13.0971 16.5751 13.0971 16.5294 13.1062 16.4837C13.1062 16.4746 13.1062 16.4654 13.1154 16.4563C13.1154 16.4197 13.1245 16.3923 13.1337 16.3557C13.1337 16.3466 13.1428 16.3375 13.1428 16.3283C13.1519 16.2918 13.1611 16.2643 13.1702 16.2278C13.1702 16.2186 13.1794 16.2186 13.1794 16.2095C13.1885 16.1729 13.2068 16.1364 13.2159 16.1089C13.2159 16.1089 13.2159 16.0998 13.2251 16.0998C13.2433 16.0632 13.2616 16.0267 13.2799 15.9901C13.3439 15.8804 13.4262 15.7799 13.5176 15.6885L9.76988 16.6117H9.76074L13.4719 17.5166C13.353 17.4069 13.2616 17.2698 13.1976 17.1144Z" fill="#676A6A"/>
<path d="M21.6256 16.4076C21.6256 16.3894 21.6347 16.3711 21.6347 16.3619C21.6439 16.3071 21.653 16.2523 21.6713 16.2066C21.6713 16.1974 21.6713 16.1974 21.6713 16.1883L22.1558 13.9488V12.6691C21.7536 12.34 21.3331 12.1572 20.8852 12.1572C20.3185 12.1572 19.7975 12.468 19.4044 12.8519C18.9748 13.2724 18.6457 13.8025 18.3715 14.3327C18.3624 14.3601 18.3441 14.3784 18.335 14.4058C18.4172 14.479 18.4995 14.5521 18.5818 14.6252C18.7646 14.7897 18.9474 14.9634 19.1211 15.1371C19.2033 15.2194 19.2856 15.3016 19.3679 15.3839C19.4501 15.4753 19.5415 15.5576 19.6238 15.649C19.7335 15.7678 19.8432 15.8775 19.9437 15.9963C19.9894 16.042 20.0351 16.0969 20.0808 16.1426C20.2088 16.2888 20.3368 16.4259 20.4647 16.5722C20.483 16.5905 20.5013 16.6087 20.5104 16.6179H21.6165C21.6165 16.6087 21.6165 16.5996 21.6165 16.5905C21.6165 16.5356 21.6165 16.4716 21.6256 16.4076Z" fill="#E2DDDB"/>
<path d="M5.03649 18.0269C5.03649 18.0178 5.04563 18.0086 5.04563 17.9995C5.11876 17.8167 5.19188 17.6339 5.27415 17.451C5.29243 17.3962 5.31985 17.3505 5.34727 17.3048C5.41126 17.1585 5.48438 17.0214 5.55751 16.8843C5.58493 16.8295 5.61235 16.7746 5.64892 16.7107C5.6672 16.6832 5.68548 16.6467 5.70376 16.6192C5.78603 16.4821 5.85915 16.345 5.94142 16.2079C5.9597 16.1805 5.98712 16.1439 6.0054 16.1165C6.10595 15.952 6.21564 15.7966 6.33447 15.6412C6.34361 15.6321 6.35275 15.6138 6.36189 15.6046C6.48072 15.4401 6.60869 15.2847 6.73666 15.1385C6.76408 15.1019 6.7915 15.0745 6.81892 15.0379C6.94689 14.8917 7.084 14.7454 7.22111 14.6083C7.24854 14.5809 7.27596 14.5535 7.30338 14.526C7.44963 14.3798 7.59588 14.2427 7.76041 14.1056C8.37284 12.0398 10.265 10.5315 12.4953 10.5315C13.3911 10.5315 14.2869 10.7875 15.0547 11.2628C15.8408 11.7473 16.4806 12.4511 16.892 13.2646C16.892 13.2646 16.892 13.2738 16.9011 13.2738C16.9102 13.292 16.9194 13.3103 16.9377 13.3377C17.285 13.548 17.6141 13.7948 17.934 14.0599C18.0437 14.1513 18.1442 14.2427 18.2448 14.3341C18.2813 14.3615 18.3088 14.3981 18.3453 14.4255C18.3545 14.3981 18.3636 14.3798 18.3819 14.3524C18.6927 12.3688 19.5702 10.9337 20.6031 10.9337C21.38 10.9337 22.0747 11.7473 22.4952 12.9995V13.0087C22.614 13.1366 22.7329 13.2829 22.8517 13.4383C22.8517 13.4383 22.8517 13.4474 22.8608 13.4474C22.87 13.4657 22.87 13.484 22.8791 13.5023L22.8608 13.4383C21.572 9.63576 17.9797 6.89355 13.7384 6.89355C8.41855 6.89355 4.11328 11.1988 4.11328 16.5187C4.11328 17.5699 4.27781 18.5754 4.5886 19.5168C4.5886 19.5168 4.5886 19.5168 4.5886 19.5077C4.65258 19.2243 4.72571 18.941 4.80797 18.6668C4.8811 18.4474 4.95422 18.2371 5.03649 18.0269Z" fill="#525353"/>
<path d="M23.0069 16.628L22.6686 17.0028C22.6595 17.0485 22.6412 17.0942 22.6229 17.1399C22.6229 17.149 22.6138 17.1582 22.6047 17.1764C22.5955 17.2039 22.5772 17.2404 22.559 17.2679C22.5498 17.2861 22.5407 17.2953 22.5315 17.3136C22.5133 17.3318 22.5041 17.3593 22.4858 17.3775C22.4676 17.405 22.4401 17.4324 22.4127 17.4507C22.4036 17.4598 22.3944 17.469 22.3853 17.4781C22.367 17.4964 22.3487 17.5055 22.3304 17.5147C22.3213 17.5147 22.3122 17.5238 22.303 17.5238C22.2573 17.5512 22.2025 17.5604 22.1476 17.5604C21.846 17.5604 21.5992 17.1399 21.5992 16.6097H20.4932C20.7034 16.8474 20.9045 17.085 21.0964 17.3318L21.1056 17.341C21.2975 17.5786 21.4895 17.8163 21.6815 18.054C21.6906 18.0631 21.6997 18.0814 21.7089 18.0905C21.8917 18.319 22.0654 18.5476 22.239 18.7761C22.2573 18.7944 22.2756 18.8218 22.2939 18.8401C22.4767 19.0869 22.6595 19.3337 22.8423 19.5713C22.8423 19.5713 22.8423 19.5713 22.8423 19.5805C23.1622 18.639 23.3359 17.6426 23.3451 16.6006L23.0069 16.628Z" fill="white"/>
<path d="M12.275 12.1789C12.3024 12.1789 12.3207 12.1789 12.3481 12.1697C12.5218 12.1606 12.6955 12.1515 12.8691 12.1515C13.3902 12.1515 13.902 12.2063 14.3956 12.3068C14.3956 12.3068 14.3956 12.3068 14.3956 12.316C14.3956 12.316 14.3956 12.3251 14.3956 12.3343C14.3956 12.3434 14.3956 12.3526 14.3956 12.3708C14.3956 12.38 14.3956 12.3891 14.3956 12.4074C14.3956 12.4257 14.3956 12.444 14.3956 12.4622C14.3956 12.4714 14.3956 12.4897 14.3956 12.4988C14.3956 12.5171 14.3956 12.5354 14.3956 12.5536V12.3068C14.743 12.3891 15.3645 12.5628 15.8307 12.7547C16.0227 12.837 16.2146 12.9284 16.3974 13.0198C16.4066 13.0198 16.4249 13.029 16.4431 13.0472C16.4431 13.0472 16.4523 13.0472 16.4523 13.0564C16.4706 13.0655 16.4888 13.0747 16.5071 13.0929C16.5346 13.1112 16.562 13.1204 16.5894 13.1387H16.5985C16.7174 13.2026 16.8453 13.2849 16.9002 13.3123C16.9093 13.3123 16.9093 13.3215 16.9093 13.3215L16.9185 13.3306C16.9093 13.3123 16.9002 13.294 16.8819 13.2666C16.8819 13.2666 16.8819 13.2575 16.8728 13.2575C16.4614 12.4348 15.8124 11.731 15.0355 11.2557C14.2677 10.7895 13.3719 10.5244 12.4761 10.5244C10.2458 10.5244 8.35364 12.0326 7.74121 14.0984C8.32621 13.5957 8.9752 13.1752 9.6699 12.8644C10.5017 12.4805 11.3883 12.252 12.275 12.1789Z" fill="black"/>
<path d="M19.4163 12.8607C19.8094 12.4768 20.3304 12.166 20.8971 12.166C21.345 12.166 21.7746 12.3488 22.1677 12.6779C22.2042 12.7053 22.2408 12.7418 22.2774 12.7693C22.2957 12.7876 22.3231 12.8058 22.3414 12.8241C22.3962 12.879 22.451 12.9338 22.5059 12.9978V12.9886C22.0763 11.7364 21.3907 10.9229 20.6138 10.9229C19.5809 10.9229 18.7034 12.3488 18.3926 14.3415C18.6485 13.8113 18.9867 13.2811 19.4163 12.8607Z" fill="black"/>
<path d="M10.2913 25.503C10.3827 25.5396 10.465 25.567 10.5564 25.5944C11.5527 25.9417 12.6222 26.1337 13.7374 26.1337C15.0079 26.1337 16.2236 25.8869 17.3297 25.439C17.3845 25.4116 17.4485 25.3933 17.5033 25.3659C17.5947 25.3293 17.6953 25.2836 17.7867 25.2379C17.869 25.2013 17.9512 25.1648 18.0335 25.1191C18.0152 25.1191 17.9969 25.1282 17.9786 25.1282C17.6313 25.1648 17.2931 25.1739 16.9549 25.1191C14.9714 24.8357 14.5326 23.8759 14.5966 22.8888C14.4503 22.8065 14.3132 22.7151 14.1578 22.6054C12.6313 21.4994 11.7264 20.3202 11.7264 20.3202C11.7264 20.3202 12.9056 21.2251 14.6606 21.9107C14.6971 21.929 14.7337 21.9381 14.7703 21.9564C14.8525 21.673 14.9531 21.3988 15.0353 21.1612C15.0445 21.1337 15.0536 21.1063 15.0628 21.0789C15.1633 20.8047 15.273 20.5305 15.3918 20.2654C15.8306 19.2599 16.3699 18.2818 16.635 17.2124L16.7629 16.6091H15.6843V16.6182C15.6843 16.8011 15.6478 16.9656 15.5838 17.121C15.5472 17.1941 15.5107 17.2764 15.465 17.3404C15.3735 17.4775 15.2547 17.5963 15.1176 17.6877C15.0445 17.7334 14.9714 17.77 14.8982 17.8065C14.7428 17.8705 14.5692 17.9071 14.3955 17.9071C14.3498 17.9071 14.3041 17.9071 14.2584 17.8979C14.2492 17.8979 14.2401 17.8979 14.231 17.8888C14.1944 17.8888 14.167 17.8797 14.1304 17.8705C14.1213 17.8705 14.1121 17.8614 14.103 17.8614C14.0664 17.8522 14.039 17.8431 14.0024 17.834C13.9933 17.834 13.9933 17.834 13.9842 17.8248C13.9476 17.8157 13.911 17.7974 13.8836 17.7883H13.8745C13.8379 17.77 13.8013 17.7517 13.7648 17.7334C13.6551 17.6694 13.5546 17.5963 13.4631 17.4957L9.75203 16.5908H5.7027C5.68442 16.6182 5.66614 16.6548 5.64786 16.6822C5.62044 16.7371 5.58387 16.7919 5.55645 16.8559C5.48333 16.993 5.4102 17.1393 5.34622 17.2764C5.31879 17.3221 5.30051 17.3769 5.27309 17.4226C5.19082 17.6054 5.1177 17.7883 5.04457 17.9711C5.04457 17.9802 5.03543 17.9893 5.03543 17.9985C4.95317 18.2087 4.88004 18.4281 4.81606 18.6475C4.73379 18.9217 4.66066 19.2051 4.59668 19.4884C5.23653 21.4354 6.47052 23.1081 8.09756 24.2781C8.14326 24.3147 8.19811 24.3421 8.24381 24.3787C8.51803 24.5706 8.80139 24.7535 9.0939 24.9088C9.47781 25.1465 9.88 25.3385 10.2913 25.503Z" fill="white"/>
<path d="M16.938 22.5068C16.9197 22.6074 16.9106 22.7079 16.9106 22.8084C16.9014 22.9821 16.9197 23.1558 16.9471 23.3112C16.9654 23.4209 16.9837 23.5214 17.0111 23.622C17.0568 23.7682 17.1025 23.9053 17.1665 24.0333C17.2305 24.1613 17.2945 24.2801 17.3585 24.3806C17.3768 24.4172 17.4042 24.4538 17.4225 24.4812C17.459 24.5269 17.4864 24.5726 17.523 24.6183C17.5687 24.6731 17.6144 24.728 17.651 24.7737C17.8246 24.9748 17.9709 25.0845 17.9709 25.0845C17.9709 25.0845 17.9709 25.0845 17.9709 25.0936C17.9709 25.1028 17.9709 25.1119 17.98 25.121C17.9983 25.121 18.0166 25.1119 18.0349 25.1119C18.4645 25.0571 18.8941 24.9382 19.3237 24.792C19.5431 24.7097 19.7625 24.6274 19.9727 24.536C20.0367 24.5086 20.1007 24.4721 20.1647 24.4446C22.3676 23.3752 24.214 21.4922 24.214 21.4922C21.4535 22.8541 18.7387 22.7993 16.938 22.5068Z" fill="#424242"/>
<path d="M22.256 18.7954C22.0824 18.5669 21.8996 18.3383 21.7259 18.1098C21.7167 18.1007 21.7076 18.0824 21.6985 18.0733C21.5065 17.8356 21.3146 17.598 21.1226 17.3603L21.1135 17.3512C20.9124 17.1044 20.7113 16.8667 20.5102 16.629C20.501 16.6108 20.4828 16.6016 20.4736 16.5833C20.3456 16.4371 20.2177 16.3 20.0897 16.1537C20.044 16.108 19.9983 16.0532 19.9526 16.0075C19.8429 15.8886 19.7424 15.779 19.6327 15.6601C19.5504 15.5687 19.459 15.4865 19.3767 15.395C19.2945 15.3128 19.2122 15.2305 19.1299 15.1482C18.9563 14.9746 18.7734 14.8009 18.5906 14.6364C18.5084 14.5632 18.4261 14.4901 18.3438 14.417C18.5175 14.9197 18.7186 15.4225 18.8192 15.9435C18.8466 16.0806 18.8649 16.2086 18.8831 16.3365C19.1299 18.1373 18.5449 19.3164 17.6309 20.8703C17.5669 20.98 17.4938 21.0988 17.4298 21.2085C17.2195 21.5559 17.0824 21.8941 17.0093 22.2049C16.9819 22.3054 16.9636 22.406 16.9453 22.5065C18.746 22.799 21.4517 22.8538 24.2213 21.4919C24.2213 21.4919 23.682 20.6966 22.8593 19.5998C22.6765 19.353 22.4937 19.1062 22.3109 18.8685C22.2926 18.8411 22.2743 18.8137 22.256 18.7954Z" fill="#A7A9BE"/>
<path d="M17.9697 25.1016C17.9697 25.1016 17.8325 24.9919 17.6497 24.7908C17.604 24.7451 17.5675 24.6903 17.5218 24.6354C17.4852 24.5897 17.4578 24.544 17.4212 24.4983C17.4029 24.4618 17.3755 24.4344 17.3572 24.3978C17.2932 24.2881 17.2293 24.1784 17.1653 24.0504C17.1104 23.9225 17.0556 23.7854 17.0099 23.6391C16.9825 23.5386 16.955 23.438 16.9459 23.3283C16.9185 23.1729 16.9093 22.9993 16.9093 22.8256C16.9093 22.725 16.9185 22.6245 16.9368 22.524C16.955 22.4234 16.9733 22.3229 17.0007 22.2223C17.083 21.9115 17.211 21.5825 17.4212 21.226C17.4852 21.1071 17.5583 20.9975 17.6223 20.8878C18.5364 19.3339 19.1214 18.1638 18.8746 16.354C18.8563 16.226 18.838 16.0889 18.8106 15.9609C18.8015 16.0523 18.7832 16.1346 18.7649 16.1986C18.7649 16.2077 18.7649 16.2077 18.7649 16.2169C18.7558 16.2626 18.7466 16.2991 18.7375 16.3266C18.3353 17.5057 17.6771 18.4289 16.7722 19.407C16.6534 19.5441 16.5254 19.6721 16.3883 19.8092C16.1689 20.0377 15.9313 20.2753 15.6936 20.513C15.5931 20.6135 15.4925 20.705 15.392 20.8055C15.3006 20.8969 15.1726 21.0249 15.0355 21.1711C14.9532 21.4088 14.8527 21.683 14.7704 21.9664C14.7338 21.9481 14.6973 21.9389 14.6607 21.9207C12.9057 21.2443 11.7266 20.3302 11.7266 20.3302C11.7266 20.3302 12.6315 21.5093 14.158 22.6154C14.3042 22.725 14.4505 22.8165 14.5967 22.8987C14.5328 23.8951 14.9715 24.8457 16.955 25.129C17.2932 25.1748 17.6314 25.1747 17.9788 25.1382C17.9788 25.1199 17.9697 25.1108 17.9697 25.1016Z" fill="black"/>
<path d="M52.43 16.9967C52.4116 16.9229 52.4116 16.8123 52.4116 16.6649C52.4116 15.7248 52.725 14.9875 53.3517 14.4714C53.9784 13.9369 54.6604 13.6788 55.4161 13.6788C56.4115 13.6788 57.1119 14.0475 57.499 14.8032L52.43 16.9967ZM59.6924 15.6695C59.674 14.5636 59.2685 13.6604 58.439 12.96C57.6096 12.2595 56.5774 11.9277 55.3239 11.9277C54.5313 11.9277 53.7756 12.0936 53.0752 12.4438C52.3563 12.7941 51.7665 13.3286 51.2872 14.0843C50.808 14.8216 50.5684 15.6695 50.5684 16.6465C50.5684 18.0473 51.0292 19.1901 51.9508 20.038C52.8724 20.9044 53.9968 21.3283 55.2871 21.3283C56.7617 21.3283 58.0519 20.7753 59.1395 19.6509L58.0151 18.3975C57.3515 19.1901 56.5036 19.5956 55.4898 19.5956C54.4576 19.5956 53.6466 19.227 53.0567 18.4897L59.7109 15.688L59.6924 15.6695Z" fill="#2D2D2D"/>
<path d="M48.3578 12.4807C47.8232 12.8494 47.3993 13.3102 47.1044 13.8816V12.0383H45.1689V21.1808H47.0859V17.2732C47.0859 16.2409 47.3255 15.393 47.8048 14.7848C48.284 14.1581 49.0029 13.8631 49.943 13.8631H50.0536L50.0351 11.9277C49.4637 11.9277 48.8923 12.1121 48.3578 12.4807Z" fill="#2D2D2D"/>
<path d="M66.567 16.5387C66.2536 16.3359 65.9771 16.17 65.7006 16.0594C65.4242 15.9488 65.1477 15.8382 64.8712 15.7461C64.5763 15.6539 64.2629 15.5617 63.8758 15.4696C63.5072 15.3774 63.2123 15.2853 63.0095 15.1747C62.7146 15.0456 62.5671 14.8244 62.5671 14.5295C62.5671 14.1977 62.7146 13.9397 62.9911 13.7738C63.286 13.6079 63.6546 13.5157 64.1154 13.5157C64.9818 13.5157 65.7928 13.7554 66.5301 14.253L67.249 12.8337C66.3089 12.207 65.3136 11.9121 64.2629 11.9121C63.2123 11.9121 62.3459 12.1702 61.7008 12.6678C61.0372 13.184 60.7054 13.8475 60.7054 14.6954C60.7054 15.8935 61.6639 16.7599 63.5625 17.276C63.5993 17.2944 63.6731 17.3128 63.7652 17.3497C64.9818 17.7183 65.59 18.1239 65.59 18.5847C65.59 18.898 65.461 19.1561 65.2214 19.3404C64.9633 19.5432 64.6316 19.6353 64.1892 19.6353C63.1938 19.6353 62.1616 19.2298 61.0925 18.4372L60.1709 19.9302C60.7239 20.3726 61.3506 20.7044 62.0694 20.944C62.7883 21.1836 63.4703 21.3127 64.1339 21.3127C65.1108 21.3127 65.9218 21.0546 66.5485 20.5385C67.1752 20.0224 67.4886 19.322 67.4886 18.4556C67.507 17.5893 67.1937 16.9626 66.567 16.5387Z" fill="#2D2D2D"/>
<path d="M41.1315 15.1936C40.726 15.6175 39.9519 15.8387 38.8459 15.8387H36.4866V11.0278H38.551C39.6569 11.0278 40.4495 11.1937 40.9657 11.5439C41.4818 11.8941 41.7398 12.4656 41.7398 13.295C41.7398 14.1429 41.5371 14.7696 41.1315 15.1936ZM42.5693 10.2352C41.7398 9.53479 40.4127 9.18457 38.5879 9.18457H34.459V21.1841H36.4866V17.6635H38.6247C40.3942 17.6635 41.703 17.3317 42.5508 16.6497C43.3987 15.9677 43.8227 14.9171 43.8227 13.4609C43.8227 12.0232 43.3987 10.9357 42.5693 10.2352Z" fill="#2D2D2D"/>
<path d="M72.006 19.6727C71.6004 19.6727 71.2687 19.5436 71.0475 19.2856C70.8263 19.0275 70.6973 18.6773 70.6973 18.2534V13.6084H73.0935V12.06H70.6973V9.18457H68.7803V18.1796C68.7803 19.1381 69.0752 19.9123 69.6466 20.4653C70.218 21.0367 70.9184 21.3131 71.7479 21.3131C72.5589 21.3131 73.3147 21.0182 73.9967 20.41L73.2041 19.046C72.817 19.4699 72.4115 19.6727 72.006 19.6727Z" fill="#2D2D2D"/>
<path d="M80.7946 18.8031C80.2601 19.356 79.6334 19.6325 78.8777 19.6325C78.1219 19.6325 77.4584 19.356 76.9054 18.8031C76.3524 18.2501 76.0575 17.5496 76.0575 16.6649C76.0575 15.7801 76.334 15.0613 76.8869 14.4714C77.4399 13.8816 78.0851 13.5867 78.8592 13.5867C79.6334 13.5867 80.2785 13.8816 80.7946 14.4714C81.3292 15.0613 81.5872 15.7801 81.5872 16.6465C81.5872 17.5312 81.3292 18.2501 80.7946 18.8031ZM81.5504 13.642C80.7762 12.4991 79.7808 11.9277 78.5827 11.9277C77.3846 11.9277 76.334 12.3517 75.4492 13.1996C74.5644 14.0475 74.1221 15.1719 74.1221 16.5912C74.1221 18.0105 74.546 19.1533 75.4123 20.0196C76.2787 20.8859 77.274 21.3283 78.4353 21.3283C79.0067 21.3283 79.5781 21.1808 80.1495 20.9044C80.7209 20.6279 81.1817 20.2224 81.5504 19.6878V21.1808H83.4673V12.0383H81.5504V13.642Z" fill="#2D2D2D"/>
<path d="M111.984 18.7846C111.431 19.3376 110.749 19.6141 109.919 19.6141C109.09 19.6141 108.389 19.3376 107.855 18.7846C107.302 18.2316 107.044 17.5128 107.044 16.628C107.044 15.7433 107.32 15.0244 107.855 14.4714C108.389 13.9184 109.09 13.642 109.919 13.642C110.749 13.642 111.449 13.9184 111.984 14.4714C112.518 15.0244 112.795 15.7433 112.795 16.628C112.795 17.5128 112.537 18.2316 111.984 18.7846ZM109.919 11.9277C108.537 11.9277 107.394 12.3885 106.491 13.2917C105.569 14.1949 105.108 15.3193 105.108 16.628C105.108 17.9367 105.569 19.0611 106.491 19.9643C107.412 20.8675 108.555 21.3283 109.919 21.3283C111.283 21.3283 112.445 20.8675 113.348 19.9643C114.269 19.0611 114.73 17.9367 114.73 16.628C114.73 15.3193 114.269 14.1949 113.348 13.2917C112.426 12.3701 111.283 11.9277 109.919 11.9277Z" fill="#A7A9BE"/>
<path d="M122.437 18.7846C121.884 19.3376 121.22 19.6141 120.465 19.6141C119.709 19.6141 119.064 19.3376 118.548 18.7846C118.013 18.2316 117.755 17.5128 117.755 16.6465C117.755 15.7801 118.013 15.0613 118.548 14.4714C119.082 13.9 119.727 13.6051 120.483 13.6051C121.257 13.6051 121.902 13.9 122.455 14.4714C123.008 15.0428 123.285 15.7801 123.285 16.6465C123.266 17.5312 122.99 18.2316 122.437 18.7846ZM123.893 13.1996C123.027 12.3517 121.976 11.9277 120.76 11.9277C119.543 11.9277 118.548 12.4991 117.792 13.6604V12.0568H115.875V24.5171H117.792V19.8168C118.714 20.8306 119.746 21.3283 120.889 21.3283C122.031 21.3283 123.045 20.8859 123.912 20.0012C124.778 19.1164 125.202 17.9736 125.202 16.5727C125.202 15.1719 124.759 14.029 123.893 13.1996Z" fill="#A7A9BE"/>
<path d="M100.632 11.9303C99.987 11.9303 99.3972 12.0962 98.8442 12.4095C98.2912 12.7229 97.8673 13.1652 97.5908 13.7367V8.4834H95.6738V21.2018H97.5908V16.2619C97.5908 15.414 97.8304 14.7689 98.3281 14.3265C98.8258 13.8841 99.3972 13.6629 100.061 13.6629C101.462 13.6629 102.162 14.5108 102.162 16.1882V21.2018H104.079V15.5983C104.079 14.4002 103.766 13.497 103.121 12.8703C102.494 12.2436 101.664 11.9303 100.632 11.9303Z" fill="#A7A9BE"/>
<path d="M93.3693 15.4294C92.7426 14.8949 91.821 14.4709 90.586 14.176C89.351 13.8811 88.5584 13.6046 88.1714 13.3465C87.8027 13.0885 87.6 12.7198 87.6 12.2221C87.6 11.7429 87.7843 11.3743 88.1714 11.1346C88.54 10.895 89.0377 10.766 89.6275 10.766C90.2174 10.766 90.8072 10.8766 91.4155 11.0793C92.0238 11.2821 92.503 11.5401 92.8532 11.8719L93.9407 10.342C93.3878 9.88122 92.7426 9.531 91.9869 9.27295C91.2312 9.01489 90.4754 8.9043 89.7013 8.9043C88.5031 8.9043 87.5078 9.19922 86.6968 9.80749C85.8857 10.4158 85.4802 11.2637 85.4802 12.3696C85.4802 13.4756 85.8304 14.305 86.5493 14.8396C86.8995 15.1345 87.305 15.3557 87.7658 15.54C88.2267 15.7243 88.8902 15.9086 89.775 16.1298C90.6597 16.3326 91.268 16.5722 91.6367 16.8303C92.0053 17.0883 92.1712 17.457 92.1712 17.9178C92.1712 18.3786 91.9869 18.7472 91.5998 19.0422C91.2127 19.3187 90.6966 19.4661 90.0515 19.4661C88.7428 19.4661 87.4894 18.9316 86.2728 17.8809L85.001 19.4108C86.4571 20.7011 88.1161 21.3462 89.9962 21.3462C91.2865 21.3462 92.3187 21.0144 93.1113 20.3693C93.9039 19.7242 94.2909 18.8763 94.2909 17.8256C94.2909 16.775 93.996 15.9639 93.3693 15.4294Z" fill="#A7A9BE"/>
</svg>
