<svg width="116" height="33" viewBox="0 0 116 33" fill="none" xmlns="http://www.w3.org/2000/svg">
<g clip-path="url(#clip0_615_4162)">
<path d="M24.8728 7.01222C24.8539 6.84212 24.7027 6.76651 24.5893 6.76651C24.4759 6.76651 22 6.57751 22 6.57751C22 6.57751 20.2801 4.85758 20.0722 4.68748C19.8832 4.49847 19.524 4.55517 19.3728 4.59297C19.3539 4.59297 18.9948 4.70638 18.4089 4.89538C17.823 3.21325 16.8213 1.68232 15.0258 1.68232H14.8557C14.3643 1.03971 13.7216 0.737305 13.1924 0.737305C9.03436 0.737305 7.03093 5.9349 6.40721 8.58095C4.78179 9.09126 3.62886 9.43146 3.49656 9.48816C2.58935 9.77167 2.57045 9.79057 2.45704 10.6411C2.36254 11.2837 0 29.5603 0 29.5603L18.39 33.0002L28.3694 30.8455C28.3883 30.8077 24.8917 7.18232 24.8728 7.01222ZM17.3883 5.15998C16.9347 5.29229 16.3866 5.46239 15.8385 5.65139V5.31119C15.8385 4.29057 15.7062 3.45895 15.4605 2.79744C16.4055 2.91084 16.9914 3.95036 17.3883 5.15998ZM14.3076 3.00535C14.5533 3.64796 14.7234 4.55517 14.7234 5.8026V5.9916C13.7027 6.31291 12.6254 6.63421 11.5103 6.99332C12.134 4.61187 13.3247 3.44005 14.3076 3.00535ZM13.0979 1.83352C13.2869 1.83352 13.4759 1.90913 13.6271 2.02253C12.2852 2.64624 10.8677 4.21497 10.2818 7.39023C9.39347 7.67373 8.54295 7.91943 7.73024 8.18404C8.41065 5.7648 10.1117 1.83352 13.0979 1.83352Z" fill="#595959"/>
<path d="M24.5889 6.7276C24.4755 6.7276 21.9996 6.53859 21.9996 6.53859C21.9996 6.53859 20.2796 4.81866 20.0717 4.64856C19.9961 4.57296 19.9016 4.53516 19.826 4.53516L18.4463 32.9991L28.4257 30.8444C28.4257 30.8444 24.9291 7.1812 24.9102 7.0111C24.8346 6.841 24.7023 6.7654 24.5889 6.7276Z" fill="#404040"/>
<path d="M15.0257 12.2494L13.816 15.8972C13.816 15.8972 12.7198 15.3113 11.4157 15.3113C9.46896 15.3113 9.37445 16.5398 9.37445 16.8422C9.37445 18.5054 13.7215 19.148 13.7215 23.0604C13.7215 26.1412 11.7748 28.1257 9.14765 28.1257C5.97239 28.1257 4.38477 26.1601 4.38477 26.1601L5.23528 23.3628C5.23528 23.3628 6.89851 24.7992 8.29714 24.7992C9.22325 24.7992 9.60126 24.081 9.60126 23.5518C9.60126 21.3783 6.048 21.2838 6.048 17.6927C6.048 14.6876 8.20263 11.7769 12.5686 11.7769C14.194 11.758 15.0257 12.2494 15.0257 12.2494Z" fill="white"/>
<path d="M39.5134 18.3708C38.5117 17.8416 38.0014 17.3691 38.0014 16.7454C38.0014 15.9516 38.7196 15.4412 39.8347 15.4412C41.1388 15.4412 42.2918 15.9705 42.2918 15.9705L43.199 13.1921C43.199 13.1921 42.3674 12.5495 39.9103 12.5495C36.4894 12.5495 34.1079 14.5151 34.1079 17.2746C34.1079 18.8433 35.223 20.034 36.6973 20.8845C37.9069 21.5461 38.3227 22.0375 38.3227 22.7557C38.3227 23.4928 37.7179 24.0976 36.6028 24.0976C34.9584 24.0976 33.3897 23.2471 33.3897 23.2471L32.4258 26.0254C32.4258 26.0254 33.8622 26.9893 36.2815 26.9893C39.7969 26.9893 42.3485 25.2505 42.3485 22.132C42.3107 20.4309 41.0443 19.2591 39.5134 18.3708ZM53.5375 12.5117C51.7986 12.5117 50.4378 13.3433 49.3983 14.5907L49.3605 14.5718L50.8725 6.70929H46.9601L43.1423 26.7436H47.0546L48.3588 19.9017C48.8691 17.3124 50.211 15.7058 51.4584 15.7058C52.3467 15.7058 52.6869 16.3107 52.6869 17.1612C52.6869 17.6904 52.6491 18.3708 52.5168 18.9L51.0426 26.7436H54.955L56.4859 18.6543C56.656 17.8038 56.7694 16.7832 56.7694 16.0839C56.7505 13.8347 55.5976 12.5117 53.5375 12.5117ZM65.6148 12.5117C60.8897 12.5117 57.7711 16.7643 57.7711 21.5083C57.7711 24.5323 59.6423 26.9893 63.1577 26.9893C67.7883 26.9893 70.9069 22.8502 70.9069 17.9928C70.9258 15.1766 69.3003 12.5117 65.6148 12.5117ZM63.6869 24.0031C62.345 24.0031 61.7969 22.8691 61.7969 21.4326C61.7969 19.1835 62.9498 15.5357 65.0856 15.5357C66.4653 15.5357 66.9378 16.7454 66.9378 17.8983C66.9378 20.2986 65.7471 24.0031 63.6869 24.0031ZM80.943 12.5117C78.2969 12.5117 76.8038 14.8553 76.8038 14.8553H76.766L76.9928 12.7574H73.5151C73.345 14.1749 73.0237 16.3485 72.7213 17.955L70.0186 32.3003H73.9309L75.0271 26.4979H75.1216C75.1216 26.4979 75.9344 27.0082 77.4086 27.0082C82.0203 27.0082 85.0254 22.2832 85.0254 17.5203C85.0065 14.8742 83.8158 12.5117 80.943 12.5117ZM77.2007 24.0409C76.1801 24.0409 75.5753 23.455 75.5753 23.455L76.2179 19.8072C76.6715 17.3502 77.9567 15.7436 79.3175 15.7436C80.5271 15.7436 80.8863 16.8588 80.8863 17.8983C80.9052 20.4309 79.3931 24.0409 77.2007 24.0409ZM90.601 6.89829C89.3536 6.89829 88.3519 7.90001 88.3519 9.16633C88.3519 10.3193 89.089 11.132 90.2041 11.132H90.2419C91.4704 11.132 92.51 10.3004 92.5289 8.86393C92.5478 7.711 91.7728 6.89829 90.601 6.89829ZM85.1199 26.7247H89.0323L91.6783 12.8141H87.7471L85.1199 26.7247ZM101.658 12.7952H98.9361L99.0684 12.1526C99.2952 10.8107 100.089 9.63884 101.412 9.63884C102.111 9.63884 102.659 9.84674 102.659 9.84674L103.415 6.76599C103.415 6.76599 102.754 6.42578 101.28 6.42578C99.9 6.42578 98.5014 6.82269 97.4429 7.7299C96.101 8.86393 95.4773 10.5083 95.1749 12.1715L95.0615 12.8141H93.2282L92.6423 15.7814H94.4756L92.3966 26.7436H96.3089L98.388 15.7814H101.091L101.658 12.7952ZM111.089 12.8141C111.089 12.8141 108.632 18.9945 107.555 22.3777H107.517C107.441 21.2814 106.553 12.8141 106.553 12.8141H102.433L104.795 25.5529C104.833 25.8364 104.814 26.0065 104.701 26.1955C104.247 27.0839 103.472 27.9344 102.565 28.5581C101.828 29.0873 100.996 29.4464 100.335 29.6732L101.431 32.9997C102.225 32.8296 103.888 32.168 105.268 30.8639C107.044 29.2007 108.708 26.6113 110.409 23.0959L115.19 12.7952H111.089V12.8141Z" fill="black"/>
</g>
<defs>
<clipPath id="clip0_615_4162">
<rect width="116" height="33" fill="white"/>
</clipPath>
</defs>
</svg>
