<svg width="155" height="33" viewBox="0 0 155 33" fill="none" xmlns="http://www.w3.org/2000/svg">
<g clip-path="url(#clip0_615_4284)">
<mask id="mask0_615_4284" style="mask-type:luminance" maskUnits="userSpaceOnUse" x="0" y="0" width="155" height="33">
<path d="M154.4 0H0V33H154.4V0Z" fill="white"/>
</mask>
<g mask="url(#mask0_615_4284)">
<path d="M24.6 3.5C25.3837 3.67328 26.1527 3.90732 26.9 4.2C34.3 6.6 36.2 12.8 35.9 17.5C35.6728 20.3893 34.4865 23.1198 32.5298 25.2578C30.573 27.3957 27.9579 28.8185 25.1 29.3C24.8875 29.3207 24.6824 29.3891 24.5 29.5H21.4C21.2176 29.3891 21.0125 29.3207 20.8 29.3C18.582 28.9317 16.507 27.9633 14.8 26.5C14.5503 26.2658 14.241 26.1046 13.906 26.0341C13.5709 25.9635 13.223 25.9863 12.9 26.1C11.6199 26.4953 10.2728 26.6264 8.94053 26.4854C7.60822 26.3443 6.31847 25.934 5.14953 25.2794C3.98059 24.6248 2.95684 23.7395 2.1404 22.6773C1.32395 21.615 0.731845 20.398 0.4 19.1C0.328769 18.8066 0.192017 18.5331 0 18.3V14.6C0.141434 14.3867 0.243074 14.1495 0.3 13.9C0.634108 12.5715 1.23922 11.3263 2.07737 10.2427C2.91551 9.15915 3.96859 8.26051 5.1705 7.60321C6.37242 6.94591 7.69723 6.54415 9.06178 6.42313C10.4263 6.30212 11.8012 6.46447 13.1 6.9C13.3393 6.97643 13.5943 6.98896 13.8399 6.93633C14.0855 6.8837 14.3131 6.76776 14.5 6.6C15.8 5.8 17.1 4.9 18.4 4.2C19.4 3.9 20.3 3.8 21.1 3.5H24.6ZM10.1 16.5C10.699 16.55 11.301 16.55 11.9 16.5C12.7 16.4 13 16.7 13.1 17.5C13.2387 18.8968 13.6698 20.2487 14.3654 21.4679C15.0611 22.6871 16.0055 23.7461 17.1375 24.5762C18.2694 25.4063 19.5633 25.9888 20.9352 26.2857C22.3071 26.5827 23.7261 26.5876 25.1 26.3C27.7256 25.7961 30.0436 24.2698 31.5439 22.0569C33.0442 19.8439 33.6039 17.1256 33.1 14.5C32.5961 11.8744 31.0698 9.55643 28.8569 8.05614C26.6439 6.55585 23.9256 5.99609 21.3 6.5C19.6032 6.73273 18.0258 7.50387 16.8 8.7C17.8431 9.71384 18.6726 10.9264 19.2393 12.266C19.8061 13.6057 20.0988 15.0454 20.1 16.5H18.1C17.5 16.5 17.3 16.4 17.2 15.7C17.0361 13.9545 16.2287 12.3324 14.9348 11.1495C13.6409 9.96648 11.9531 9.30722 10.2 9.3C8.43919 9.29199 6.73631 9.92861 5.4126 11.0898C4.08889 12.2509 3.23586 13.8564 3.01443 15.6032C2.79299 17.3501 3.21847 19.1176 4.21059 20.5723C5.20271 22.027 6.69288 23.0684 8.4 23.5C9.58311 23.8834 10.8666 23.8121 12 23.3C10.7697 21.2441 10.1136 18.8958 10.1 16.5Z" fill="#363636"/>
<path d="M154.2 18.6998H145.4C145.41 19.2492 145.574 19.7847 145.875 20.2446C146.176 20.7046 146.6 21.0703 147.1 21.2998C147.646 21.5886 148.261 21.7226 148.877 21.6873C149.494 21.6521 150.09 21.4489 150.6 21.0998C151 20.7998 151.4 20.0998 151.7 20.1998C152.468 20.4043 153.208 20.7067 153.9 21.0998C153.4 21.6998 153.1 22.1998 152.7 22.5998C151.52 23.6183 149.998 24.1534 148.441 24.0978C146.883 24.0421 145.404 23.3999 144.3 22.2998C143.245 21.0526 142.7 19.4531 142.774 17.8214C142.848 16.1897 143.536 14.6462 144.7 13.4998C145.261 12.9751 145.924 12.5704 146.648 12.3104C147.371 12.0503 148.14 11.9403 148.907 11.9871C149.674 12.0338 150.424 12.2364 151.11 12.5825C151.797 12.9285 152.406 13.4108 152.9 13.9998C153.458 14.8658 153.96 15.7678 154.4 16.6998C154.229 17.352 154.162 18.0268 154.2 18.6998ZM151.4 16.6998C151.302 15.9753 150.944 15.3114 150.391 14.8326C149.839 14.3539 149.131 14.0933 148.4 14.0998C147.692 14.1364 147.018 14.4144 146.49 14.8875C145.963 15.3606 145.613 16.0002 145.5 16.6998H151.4Z" fill="#363636"/>
<path d="M88.2003 23.7C88.2003 23.2 88.1003 22.8 88.1003 22.3C87.5532 22.8772 86.8813 23.3215 86.1359 23.5988C85.3906 23.8762 84.5916 23.9792 83.8003 23.9C82.9981 23.8189 82.2236 23.5617 81.5322 23.1469C80.8408 22.732 80.2494 22.1697 79.8003 21.5C78.9443 20.2265 78.5743 18.6877 78.7579 17.1642C78.9414 15.6407 79.6663 14.2338 80.8003 13.2C82.8003 11.4 85.8003 11.5 88.2003 13.6V10C88.2003 7.60003 88.3003 7.50003 90.9003 8.00003V22.6C90.9003 23.5 90.7003 23.9 89.7003 23.8C89.2057 23.7098 88.7025 23.6763 88.2003 23.7ZM84.8003 14.4C83.8862 14.4158 83.0154 14.7928 82.3783 15.4486C81.7412 16.1045 81.3896 16.9858 81.4003 17.9C81.4037 18.8197 81.757 19.7037 82.3885 20.3723C83.02 21.0409 83.8823 21.4441 84.8003 21.5C85.741 21.4842 86.6372 21.0967 87.2931 20.4221C87.9489 19.7476 88.311 18.8408 88.3003 17.9C88.3113 17.4374 88.2282 16.9774 88.0562 16.5478C87.8842 16.1182 87.6268 15.728 87.2996 15.4008C86.9724 15.0736 86.5822 14.8161 86.1526 14.6441C85.723 14.4721 85.263 14.3891 84.8003 14.4Z" fill="#363636"/>
<path d="M132.2 7.89962V13.7996C132.742 13.1223 133.452 12.5994 134.259 12.2834C135.067 11.9674 135.943 11.8696 136.8 11.9996C138.082 12.1073 139.269 12.7186 140.1 13.6996C141.126 14.903 141.681 16.4372 141.663 18.0184C141.645 19.5995 141.054 21.1204 140 22.2996C137.9 24.4996 134.9 24.4996 132.2 22.3996C132.2 22.7996 132.1 23.1996 132.1 23.6996H129.5C129.5 23.3996 129.4 23.0996 129.4 22.8996V8.89962C129.4 8.09962 129.6 7.89962 130.4 7.99962C130.997 7.91651 131.599 7.88306 132.2 7.89962ZM139 17.9996C139.016 17.5393 138.941 17.0803 138.778 16.6494C138.615 16.2185 138.369 15.8242 138.052 15.4893C137.736 15.1544 137.357 14.8857 136.936 14.6986C136.515 14.5116 136.061 14.4099 135.6 14.3996C134.659 14.3996 133.756 14.7736 133.09 15.4394C132.424 16.1051 132.05 17.0081 132.05 17.9496C132.05 18.8911 132.424 19.7941 133.09 20.4599C133.756 21.1256 134.659 21.4996 135.6 21.4996C136.515 21.4838 137.385 21.1068 138.022 20.451C138.659 19.7952 139.011 18.9139 139 17.9996Z" fill="#363636"/>
<path d="M56.2996 18.7997C56.3673 19.4441 56.6352 20.0511 57.0657 20.5354C57.4962 21.0197 58.0676 21.3569 58.6996 21.4997C59.2991 21.7157 59.9518 21.7352 60.5631 21.5554C61.1744 21.3756 61.7126 21.0059 62.0996 20.4997C62.4996 19.9997 62.8996 19.8997 63.3996 20.2997C63.8453 20.5729 64.3137 20.8071 64.7996 20.9997C64.4414 21.7689 63.8973 22.4367 63.2165 22.943C62.5356 23.4493 61.7394 23.7781 60.8996 23.8997C58.2996 24.2997 55.9996 23.5997 54.5996 21.2997C53.9185 20.2689 53.5722 19.053 53.608 17.8181C53.6438 16.5831 54.0599 15.3893 54.7996 14.3997C55.4552 13.4565 56.3731 12.7263 57.4396 12.2997C58.5062 11.8731 59.6744 11.7688 60.7996 11.9997C61.8913 12.2544 62.8828 12.8276 63.6484 13.6465C64.4139 14.4655 64.919 15.4933 65.0996 16.5997C65.3996 18.7997 65.3996 18.7997 63.2996 18.7997H56.2996ZM62.2996 16.6997C62.2422 15.9948 61.9229 15.337 61.4047 14.8558C60.8864 14.3746 60.2068 14.1049 59.4996 14.0997C58.7687 14.0932 58.0605 14.3538 57.5081 14.8325C56.9557 15.3113 56.5971 15.9752 56.4996 16.6997H62.2996Z" fill="#363636"/>
<path d="M92.9005 15.3004C93.9005 11.4004 99.5005 11.2004 101.3 13.3004C101.797 13.8597 102.111 14.5576 102.2 15.3004C102.3 18.1004 102.2 20.9004 102.2 23.7004H99.8005C99.7739 23.3275 99.7068 22.9587 99.6005 22.6004C99.0872 23.1268 98.4589 23.5272 97.7649 23.7701C97.0709 24.013 96.3301 24.0918 95.6005 24.0004C94.8506 23.9803 94.1311 23.6999 93.5655 23.2072C92.9998 22.7145 92.6233 22.0404 92.5005 21.3004C92.3013 20.5187 92.4077 19.6905 92.7978 18.9844C93.188 18.2784 93.8327 17.7477 94.6005 17.5004C95.9804 17.1374 97.3837 16.8701 98.8005 16.7004C99.5005 16.6004 99.7005 16.2004 99.5005 15.7004C99.2013 15.151 98.7499 14.6996 98.2005 14.4004C97.8135 14.2298 97.3824 14.1864 96.9691 14.2762C96.5559 14.366 96.1818 14.5846 95.9005 14.9004C95.6005 15.2004 95.3005 15.8004 94.9005 15.8004C94.3005 15.7004 93.6005 15.4004 92.9005 15.3004ZM99.5005 18.5004C98.4005 18.7004 97.3005 18.8004 96.2005 19.1004C95.8755 19.1544 95.5824 19.3279 95.3789 19.587C95.1754 19.846 95.0761 20.1718 95.1005 20.5004C95.1005 21.2004 95.5005 21.5004 96.1005 21.7004C96.5549 21.856 97.0432 21.8846 97.5127 21.7833C97.9822 21.6819 98.4152 21.4544 98.765 21.1252C99.1148 20.7959 99.3681 20.3776 99.4977 19.915C99.6273 19.4525 99.6283 18.9634 99.5005 18.5004Z" fill="#363636"/>
<path d="M74.6 23.6996V16.9996C74.4 15.3996 73.6 14.4996 72.1 14.4996C71.7579 14.4835 71.4159 14.5357 71.0942 14.6532C70.7724 14.7706 70.4773 14.951 70.226 15.1837C69.9747 15.4164 69.7722 15.6968 69.6304 16.0086C69.4886 16.3204 69.4102 16.6573 69.4 16.9996C69.3 18.7996 69.3 20.5996 69.3 22.3996V23.7996H66.6C66.6 23.4996 66.5 23.1996 66.5 22.9996V13.2996C66.5 12.4996 66.7 12.2996 67.5 12.2996C68.0656 12.3497 68.6344 12.3497 69.2 12.2996C69.3 12.6996 69.3 13.0996 69.4 13.5996C69.8618 13.025 70.4617 12.5768 71.1438 12.297C71.8258 12.0172 72.5677 11.9149 73.3 11.9996C74.252 12.0169 75.1646 12.3827 75.8649 13.0277C76.5653 13.6728 77.0047 14.5523 77.1 15.4996C77.3 18.0996 77.3 20.6996 77.3 23.2996C77.3 23.4996 76.9 23.7996 76.7 23.7996C76.1 23.7996 75.4 23.6996 74.6 23.6996Z" fill="#363636"/>
<path d="M107.2 12.2003C107.184 12.6029 107.217 13.006 107.3 13.4003C107.451 13.3255 107.586 13.2238 107.7 13.1003C108.315 12.4824 109.103 12.0656 109.96 11.9049C110.817 11.7442 111.703 11.8472 112.5 12.2003C113.291 12.4604 113.973 12.9735 114.443 13.6602C114.913 14.347 115.144 15.1693 115.1 16.0003C115.2 18.4003 115.2 20.7003 115.2 23.1003C115.177 23.2688 115.143 23.4358 115.1 23.6003C115.024 23.6109 114.954 23.646 114.9 23.7003C112.5 23.8003 112.5 23.8003 112.5 21.4003V17.0003C112.545 16.687 112.521 16.3677 112.431 16.0644C112.341 15.761 112.185 15.4809 111.976 15.2433C111.767 15.0057 111.509 14.8162 111.22 14.688C110.93 14.5597 110.617 14.4957 110.3 14.5003C109.977 14.439 109.644 14.4459 109.323 14.5203C109.002 14.5948 108.701 14.7353 108.437 14.9329C108.174 15.1305 107.954 15.3808 107.793 15.6679C107.632 15.955 107.532 16.2726 107.5 16.6003C107.381 17.6296 107.314 18.6643 107.3 19.7003V23.0003C107.3 23.6003 107.1 23.9003 106.5 23.8003H104.7V12.3003C105.53 12.2107 106.366 12.1773 107.2 12.2003Z" fill="#363636"/>
<path d="M117.2 12.2002H119.8V13.3002C119.8 15.3002 119.8 17.2002 119.9 19.2002C119.885 19.506 119.935 19.8114 120.046 20.0969C120.156 20.3824 120.325 20.6417 120.542 20.8582C120.758 21.0747 121.017 21.2436 121.303 21.3542C121.588 21.4647 121.894 21.5144 122.2 21.5002C122.498 21.5166 122.796 21.4718 123.075 21.3683C123.355 21.2649 123.611 21.1051 123.827 20.8989C124.042 20.6926 124.213 20.4443 124.329 20.1693C124.445 19.8944 124.503 19.5985 124.5 19.3002C124.6 17.3002 124.6 15.3002 124.6 13.2002C124.6 12.4002 124.8 12.2002 125.6 12.2002C127.3 12.3002 127.3 12.2002 127.3 13.9002C127.3 15.9002 127.3 17.9002 127.1 19.9002C126.8 22.7002 124.7 24.2002 121.8 24.0002C118.9 23.8002 117.1 22.1002 117.1 19.3002V13.0002C117.187 12.7431 117.221 12.4709 117.2 12.2002Z" fill="#363636"/>
<path d="M43.1998 8.7998H45.8998V12.0998C46.0683 12.1233 46.2352 12.1567 46.3998 12.1998C47.8998 12.1998 47.7998 12.1998 47.7998 13.6998C47.7998 14.3998 47.4998 14.5998 46.8998 14.4998C46.0998 14.3998 45.7998 14.6998 45.8998 15.4998V23.5998H43.1998C43.1998 23.2998 43.0998 22.9998 43.0998 22.5998V15.7998C43.0998 14.4998 43.0998 14.4998 41.7998 14.3998H41.2998V12.1998C41.8998 12.1998 42.4998 12.0998 43.1998 12.0998V8.7998Z" fill="#363636"/>
<path d="M49.4004 23.7002V12.2002H51.6004C51.8004 12.2002 52.0004 12.6002 52.1004 12.7002V23.1002C52.1004 23.3002 51.7004 23.6002 51.5004 23.7002C50.8013 23.7502 50.0995 23.7502 49.4004 23.7002Z" fill="#363636"/>
<path d="M52.2996 8.8C52.3023 9.01086 52.2628 9.22012 52.1833 9.41546C52.1038 9.61079 51.9861 9.78824 51.837 9.93736C51.6879 10.0865 51.5104 10.2042 51.3151 10.2837C51.1197 10.3631 50.9105 10.4027 50.6996 10.4C50.4737 10.4099 50.2482 10.3728 50.0375 10.2908C49.8267 10.2089 49.6353 10.084 49.4755 9.92416C49.3156 9.76427 49.1907 9.57287 49.1088 9.36213C49.0269 9.15138 48.9897 8.92589 48.9996 8.7C49.0059 8.26803 49.1736 7.85404 49.4697 7.53944C49.7657 7.22485 50.1688 7.03242 50.5996 7C51.0561 7.03475 51.4833 7.23845 51.7976 7.5713C52.112 7.90416 52.291 8.34225 52.2996 8.8Z" fill="#363636"/>
</g>
</g>
<defs>
<clipPath id="clip0_615_4284">
<rect width="155" height="33" fill="white"/>
</clipPath>
</defs>
</svg>
