<svg width="125" height="33" viewBox="0 0 125 33" fill="none" xmlns="http://www.w3.org/2000/svg">
<mask id="mask0_615_4302" style="mask-type:luminance" maskUnits="userSpaceOnUse" x="0" y="2" width="125" height="29">
<path d="M125 2H0V31H125V2Z" fill="white"/>
</mask>
<g mask="url(#mask0_615_4302)">
<path d="M75.4756 30.2994V27.5915H76.8294V30.2994H75.4756ZM89.3256 20.9768C89.284 20.398 89.1173 19.8606 88.8674 19.4058C88.6175 18.9511 88.2843 18.579 87.8677 18.2689C87.4512 17.9589 86.993 17.7315 86.4306 17.5868C85.8891 17.4421 85.306 17.3594 84.702 17.3594C83.8689 17.3594 83.0983 17.5454 82.4527 17.8555C81.7862 18.1862 81.2447 18.641 80.8282 19.2198C80.3908 19.7779 80.0575 20.4394 79.8285 21.1628C79.5994 21.8863 79.4952 22.6305 79.4952 23.416C79.4952 24.3255 79.5994 25.1523 79.8076 25.9172C80.0159 26.682 80.3491 27.3641 80.7865 27.9222C81.2239 28.4804 81.7862 28.9351 82.411 29.2452C83.0775 29.5552 83.8481 29.7206 84.702 29.7206C85.3476 29.7206 85.9308 29.6173 86.4515 29.4106C86.993 29.2038 87.472 28.9145 87.8885 28.5424C88.3051 28.1703 88.6591 27.7362 88.9091 27.2194C89.159 26.7027 89.3464 26.1239 89.4506 25.5244H90.4503C90.3461 26.3306 90.117 27.0334 89.7838 27.6742C89.4506 28.315 89.0132 28.8318 88.5134 29.2659C88.0135 29.6999 87.4512 30.0307 86.8055 30.2581C86.1599 30.4854 85.4726 30.5888 84.7436 30.5888C83.619 30.5888 82.6818 30.3821 81.8903 30.01C81.0989 29.5966 80.4533 29.1005 79.9534 28.4184C79.4536 27.7569 79.0787 26.9921 78.8287 26.1239C78.5997 25.2557 78.4747 24.3462 78.4747 23.416C78.4747 22.4858 78.5997 21.5763 78.8912 20.7288C79.162 19.9019 79.5577 19.1578 80.0992 18.5376C80.6407 17.9175 81.2655 17.4007 82.057 17.0493C82.8276 16.6773 83.7231 16.4912 84.7436 16.4912C85.4726 16.4912 86.1807 16.5946 86.8055 16.7599C87.4512 16.946 88.0343 17.2147 88.5134 17.5868C89.0132 17.9589 89.4297 18.4136 89.7422 18.9717C90.0546 19.5299 90.242 20.1913 90.3253 20.9768H89.3464H89.3256ZM91.929 23.5607C91.929 22.5892 92.054 21.6796 92.3455 20.8528C92.6163 20.026 93.012 19.2611 93.5535 18.5997C94.095 17.9382 94.7198 17.4421 95.5113 17.0493C96.2819 16.6773 97.1774 16.4912 98.198 16.4912C99.1977 16.4912 100.093 16.6773 100.885 17.0493C101.655 17.4214 102.322 17.9382 102.842 18.5997C103.384 19.2611 103.759 19.9846 104.05 20.8528C104.321 21.721 104.467 22.5892 104.467 23.5607C104.467 24.5322 104.342 25.4417 104.05 26.2892C103.78 27.1574 103.384 27.8809 102.842 28.5424C102.301 29.1832 101.676 29.6793 100.885 30.0514C100.114 30.4234 99.2185 30.6095 98.198 30.6095C97.1983 30.6095 96.3027 30.4234 95.5113 30.0514C94.7407 29.6793 94.0742 29.1625 93.5535 28.5424C93.0328 27.9223 92.6163 27.1574 92.3455 26.2892C92.054 25.4417 91.929 24.5116 91.929 23.5607ZM92.9079 23.5607C92.9079 24.3669 93.012 25.1317 93.2411 25.8965C93.4702 26.62 93.8034 27.2814 94.2408 27.8602C94.6782 28.439 95.2405 28.8938 95.8653 29.2245C96.5318 29.5552 97.2607 29.7206 98.1146 29.7206C98.9686 29.7206 99.7183 29.5346 100.364 29.2245C101.03 28.8938 101.572 28.4183 101.988 27.8602C102.426 27.2814 102.759 26.62 102.988 25.8965C103.217 25.173 103.321 24.3875 103.321 23.5607C103.321 22.7338 103.196 21.9897 102.988 21.2249C102.759 20.5014 102.426 19.8399 101.988 19.2611C101.551 18.6824 100.989 18.2276 100.364 17.8968C99.6975 17.5661 98.9686 17.4007 98.1146 17.4007C97.2607 17.4007 96.511 17.5868 95.8653 17.8968C95.1988 18.2276 94.6573 18.703 94.2408 19.2611C93.8034 19.8399 93.4702 20.5014 93.2411 21.2249C93.0328 21.9897 92.9079 22.7545 92.9079 23.5607ZM106.529 16.822H107.528V19.5712H107.57C107.674 19.1371 107.841 18.765 108.132 18.3723C108.382 18.0002 108.716 17.6695 109.111 17.3801C109.486 17.1114 109.903 16.884 110.382 16.7186C110.84 16.5739 111.361 16.4912 111.861 16.4912C112.527 16.4912 113.089 16.5739 113.548 16.7393C114.027 16.9253 114.443 17.1114 114.776 17.4007C115.11 17.6901 115.38 17.9795 115.568 18.3103C115.776 18.641 115.901 18.9924 115.984 19.3438H116.026C116.442 18.4136 116.963 17.6901 117.65 17.2147C118.338 16.7393 119.233 16.4912 120.337 16.4912C120.941 16.4912 121.545 16.5946 122.045 16.7599C122.545 16.946 123.024 17.2147 123.399 17.5868C123.774 17.9589 124.065 18.455 124.294 19.0131C124.503 19.5919 124.607 20.274 124.607 21.0595V30.2374H123.586V20.9975C123.586 20.1293 123.461 19.4885 123.17 18.9717C122.92 18.4963 122.586 18.1035 122.232 17.8555C121.878 17.6074 121.524 17.4421 121.129 17.3801C120.775 17.3387 120.483 17.2767 120.296 17.2767C119.692 17.2767 119.088 17.3801 118.588 17.5868C118.088 17.7935 117.609 18.1242 117.234 18.517C116.859 18.9511 116.567 19.4472 116.338 20.088C116.13 20.7288 116.026 21.4316 116.026 22.2171V30.2374H115.026V20.9975C115.026 20.1706 114.901 19.4885 114.651 18.9924C114.401 18.4963 114.089 18.1242 113.756 17.8762C113.423 17.6281 113.069 17.4628 112.694 17.4007C112.34 17.3181 112.048 17.2974 111.819 17.2974C111.34 17.2974 110.84 17.4007 110.34 17.5661C109.84 17.7728 109.361 18.0415 108.945 18.455C108.528 18.8684 108.174 19.3645 107.924 20.0053C107.674 20.6461 107.508 21.3696 107.508 22.2377V30.2374H106.508V16.7806H106.529V16.822Z" fill="#2E3133"/>
<path d="M41.9854 2.9308C40.5275 3.69563 40.0068 4.95657 40.0068 8.44995C40.0068 8.44995 40.7358 7.74713 41.8188 7.35438C42.6102 7.08565 43.2767 6.65158 43.6724 6.36218C44.9012 5.47333 45.0678 4.33644 45.0678 2.41404C45.0678 2.41404 43.0684 2.35199 41.9854 2.9308Z" fill="#9E9E9E"/>
<path d="M33.4462 3.75783C32.2798 4.79138 31.9258 6.42437 31.9258 6.42437L28.0103 21.3488L24.7821 9.11159C24.4697 7.82999 23.8865 6.197 22.991 5.12211C21.8663 3.75782 19.5545 3.67514 19.3046 3.67514C19.0546 3.67514 16.722 3.75782 15.5765 5.14278C14.6809 6.23833 14.0978 7.85066 13.7854 9.13226L10.5572 21.3694L6.68334 6.42437C6.68334 6.42437 6.35011 4.7707 5.16296 3.75783C3.24687 2.08348 0.393555 2.43489 0.393555 2.43489L7.82883 30.4233C7.82883 30.4233 10.2864 30.6094 11.5152 29.9686C13.1189 29.1624 13.9103 28.5216 14.8892 24.6975C15.764 21.3074 18.2007 11.344 18.4298 10.6206C18.534 10.2692 18.6797 9.42165 19.3046 9.42165C19.9502 9.42165 20.0752 10.2485 20.1793 10.6206C20.4084 11.3234 22.8243 21.3074 23.7199 24.6975C24.6988 28.5009 25.4694 29.1211 27.0939 29.9686C28.3227 30.6094 30.7803 30.4233 30.7803 30.4233L38.2156 2.45556C38.2156 2.45556 35.3623 2.10416 33.4462 3.75783ZM45.0677 7.00317C45.0677 7.00317 44.6095 7.70597 43.5473 8.3261C42.86 8.69818 42.2144 8.9669 41.5062 9.29763C40.3399 9.85575 40.0067 10.4965 40.0067 11.4474V30.4233C40.0067 30.4233 41.902 30.6507 43.1099 30.0513C44.6928 29.2451 45.0469 28.4803 45.0677 24.9869V7.00317ZM63.6454 16.4911L73.0801 2.51755C73.0801 2.51755 69.1021 1.83543 67.1236 3.6338C65.8531 4.7707 64.4369 6.81712 64.4369 6.81712L60.9796 11.8195C60.7921 12.0675 60.6047 12.3569 60.2506 12.3569C59.8966 12.3569 59.6675 12.0882 59.5217 11.8195L56.0227 6.8378C56.0227 6.8378 54.6273 4.79137 53.336 3.65447C51.3783 1.8561 47.3795 2.53822 47.3795 2.53822L56.835 16.4705L47.3795 30.382C47.3795 30.382 51.5449 30.9194 53.5027 29.1211C54.7731 27.9841 56.0019 26.1031 56.0019 26.1031L59.4592 21.1214C59.6466 20.8733 59.8341 20.584 60.1882 20.584C60.5422 20.584 60.7713 20.8527 60.9171 21.1214L64.3744 26.1031C64.3744 26.1031 65.6657 27.9428 66.9153 29.1211C68.8731 30.9194 72.976 30.382 72.976 30.382L63.6454 16.4911Z" fill="#2E3133"/>
</g>
</svg>
