<svg width="126" height="33" viewBox="0 0 126 33" fill="none" xmlns="http://www.w3.org/2000/svg">
<path fill-rule="evenodd" clip-rule="evenodd" d="M38.395 3.95996H3.92963C1.7485 3.95996 -0.0171844 5.73412 0.000126205 7.88723V20.9781C0.000126205 23.1484 1.76581 24.9054 3.94695 24.9054H20.2708L27.7317 29.0393L26.0353 24.9054H38.395C40.5762 24.9054 42.3418 23.1484 42.3418 20.9781V7.88723C42.3418 5.71689 40.5762 3.95996 38.395 3.95996ZM3.20267 6.99153C2.71796 7.02598 2.35444 7.19823 2.11209 7.5255C1.86975 7.83555 1.7832 8.23172 1.83512 8.67956C2.85645 15.1389 3.80853 19.4968 4.69137 21.7532C5.03759 22.58 5.43573 22.9763 5.90312 22.9418C6.63015 22.8901 7.49569 21.8911 8.51701 19.9447C9.05364 18.8422 9.88456 17.1887 11.0097 14.9838C11.9445 18.2393 13.2254 20.6853 14.8354 22.3217C15.2855 22.7867 15.7529 22.9934 16.2029 22.959C16.6011 22.9245 16.9126 22.7178 17.1204 22.3388C17.2935 22.0116 17.3627 21.6326 17.3281 21.202C17.2242 19.6346 17.3801 17.447 17.8128 14.6394C18.2628 11.7456 18.8168 9.66138 19.4919 8.42119C19.6304 8.16282 19.6823 7.90444 19.665 7.5944C19.6304 7.19822 19.4573 6.87096 19.1284 6.61259C18.7996 6.35422 18.436 6.23364 18.0378 6.26808C17.5358 6.30254 17.155 6.54368 16.8954 7.02598C15.8221 8.97239 15.0604 12.1245 14.6104 16.4996C13.9525 14.8461 13.3986 12.8997 12.9658 10.6087C12.7754 9.59249 12.3081 9.11019 11.5463 9.16187C11.027 9.19631 10.5943 9.54081 10.2481 10.1953L6.45706 17.3781C5.83387 14.8805 5.24531 11.8317 4.70868 8.23172C4.58751 7.33603 4.0855 6.92262 3.20267 6.99153ZM36.5602 8.23177C37.7893 8.49015 38.7067 9.14469 39.3299 10.2299C39.8838 11.16 40.1607 12.2796 40.1607 13.6232C40.1607 15.3973 39.7107 17.0164 38.8105 18.4978C37.7719 20.2203 36.4217 21.0815 34.7426 21.0815C34.4483 21.0815 34.1367 21.047 33.8077 20.9781C32.5788 20.7198 31.6613 20.0653 31.038 18.9801C30.4842 18.0327 30.2072 16.8959 30.2072 15.5695C30.2072 13.7954 30.6573 12.1763 31.5574 10.7122C32.6134 8.98967 33.9636 8.12843 35.6254 8.12843C35.9197 8.12843 36.2313 8.16288 36.5602 8.23177ZM35.8332 17.5504C36.4737 16.982 36.9064 16.1379 37.1488 15.0011C37.218 14.605 37.2699 14.1743 37.2699 13.7265C37.2699 13.227 37.166 12.693 36.9583 12.159C36.6987 11.4873 36.3524 11.1256 35.9369 11.0394C35.3138 10.9188 34.708 11.2634 34.1367 12.1074C33.6694 12.7619 33.375 13.4509 33.2192 14.1571C33.1326 14.5533 33.098 14.984 33.098 15.4146C33.098 15.9141 33.2019 16.448 33.4096 16.982C33.6694 17.6537 34.0155 18.0154 34.431 18.1016C34.8637 18.1877 35.3311 17.9983 35.8332 17.5504ZM28.4761 10.2299C27.8529 9.14469 26.9181 8.49015 25.7064 8.23177C25.3774 8.16288 25.0659 8.12843 24.7716 8.12843C23.1098 8.12843 21.7596 8.98967 20.7036 10.7122C19.8034 12.1763 19.3534 13.7954 19.3534 15.5695C19.3534 16.8959 19.6304 18.0327 20.1843 18.9801C20.8075 20.0653 21.725 20.7198 22.954 20.9781C23.2829 21.047 23.5945 21.0815 23.8888 21.0815C25.5679 21.0815 26.9181 20.2203 27.9567 18.4978C28.857 17.0164 29.307 15.3973 29.307 13.6232C29.307 12.2796 29.03 11.16 28.4761 10.2299ZM26.2949 15.0011C26.0527 16.1379 25.6198 16.982 24.9793 17.5504C24.4773 17.9983 24.01 18.1877 23.5772 18.1016C23.1617 18.0154 22.8155 17.6537 22.5559 16.982C22.3481 16.448 22.2442 15.9141 22.2442 15.4146C22.2442 14.984 22.2789 14.5533 22.3655 14.1571C22.5212 13.4509 22.8155 12.7619 23.2829 12.1074C23.8542 11.2634 24.4601 10.9188 25.0832 11.0394C25.4987 11.1256 25.8449 11.4873 26.1045 12.159C26.3123 12.693 26.4161 13.227 26.4161 13.7265C26.4161 14.1743 26.3815 14.605 26.2949 15.0011Z" fill="#9E9E9E"/>
<path d="M47.0729 12.0305C45.913 13.1673 45.3418 14.6142 45.3418 16.3711C45.3418 18.2487 45.913 19.7816 47.0556 20.9357C48.1981 22.0898 49.6868 22.6754 51.539 22.6754C52.0757 22.6754 52.6815 22.5893 53.3394 22.3998V19.6094C52.7335 19.7816 52.2141 19.8678 51.764 19.8678C50.8466 19.8678 50.1196 19.5577 49.5656 18.9549C49.0117 18.3347 48.7347 17.508 48.7347 16.4572C48.7347 15.4754 49.0117 14.6659 49.5483 14.0458C50.1022 13.4085 50.7773 13.0984 51.6083 13.0984C52.1449 13.0984 52.7161 13.1845 53.3394 13.3568V10.5664C52.7681 10.4113 52.1276 10.3424 51.4524 10.3424C49.6868 10.3252 48.2327 10.8936 47.0729 12.0305ZM59.0865 10.3252C57.4939 10.3252 56.2476 10.8592 55.3473 11.9099C54.4472 12.9606 54.0145 14.4419 54.0145 16.3367C54.0145 18.3865 54.4645 19.9539 55.3473 21.0391C56.2302 22.1243 57.5285 22.6754 59.225 22.6754C60.8695 22.6754 62.1331 22.1243 63.0159 21.0391C63.8988 19.9539 64.3489 18.4209 64.3489 16.4572C64.3489 14.4936 63.8988 12.9778 62.9987 11.9099C62.0812 10.8592 60.7828 10.3252 59.0865 10.3252ZM60.454 19.2821C60.1424 19.7644 59.675 20.0056 59.0865 20.0056C58.5325 20.0056 58.117 19.7644 57.8228 19.2821C57.5285 18.7998 57.39 17.8352 57.39 16.3711C57.39 14.1147 57.9613 12.995 59.1211 12.995C60.3328 12.995 60.956 14.1319 60.956 16.4228C60.9387 17.8352 60.7656 18.7998 60.454 19.2821ZM72.9003 10.6525L72.2771 13.2879C72.1213 13.9596 71.9656 14.6486 71.8271 15.3549L71.4809 17.1807C71.152 15.3549 70.7019 13.1845 70.1306 10.6525H66.1146L64.6085 22.3826H67.6206L68.4342 14.3041L70.4941 22.3826H72.6407L74.614 14.3214L75.4623 22.3826H78.6128L77.0202 10.6525H72.9003ZM87.32 10.6525L86.6969 13.2879C86.541 13.9596 86.3853 14.6486 86.2468 15.3549L85.9005 17.1807C85.5717 15.3549 85.1216 13.1845 84.5503 10.6525H80.5343L79.0283 22.3826H82.0403L82.8539 14.3041L84.9138 22.3826H87.0604L89.0165 14.3214L89.8647 22.3826H93.0153L91.4227 10.6525H87.32ZM97.1178 17.7491H99.9395V15.3204H97.1178V13.1673H100.372V10.6697H93.9327V22.3998H100.39V19.9023H97.1178V17.7491ZM109.356 15.8888C109.685 15.3549 109.858 14.8037 109.858 14.2352C109.858 13.1329 109.426 12.2544 108.56 11.6171C107.695 10.9797 106.5 10.6525 105.012 10.6525H101.307V22.3826H104.492V17.0429H104.544L107.123 22.3826H110.482L107.937 17.0946C108.543 16.819 109.028 16.4228 109.356 15.8888ZM104.475 15.6994V12.9089C105.236 12.9262 105.773 13.0467 106.102 13.2879C106.431 13.529 106.587 13.908 106.587 14.4592C106.587 15.2687 105.877 15.6821 104.475 15.6994ZM111.728 12.0305C110.568 13.1673 109.997 14.6142 109.997 16.3711C109.997 18.2487 110.568 19.7816 111.711 20.9357C112.854 22.0898 114.341 22.6754 116.194 22.6754C116.731 22.6754 117.337 22.5893 117.994 22.3998V19.6094C117.389 19.7816 116.869 19.8678 116.419 19.8678C115.502 19.8678 114.775 19.5577 114.221 18.9549C113.667 18.3347 113.39 17.508 113.39 16.4572C113.39 15.4754 113.667 14.6659 114.203 14.0458C114.757 13.4085 115.432 13.0984 116.263 13.0984C116.799 13.0984 117.371 13.1845 117.994 13.3568V10.5664C117.423 10.4113 116.783 10.3424 116.108 10.3424C114.359 10.3252 112.888 10.8936 111.728 12.0305ZM122.063 19.8678V17.7319H124.884V15.3032H122.063V13.1501H125.334V10.6525H118.895V22.3826H125.351V19.885H122.063V19.8678Z" fill="black"/>
</svg>
