<svg width="36" height="36" viewBox="0 0 36 36" fill="none" xmlns="http://www.w3.org/2000/svg">
<g id="_x34_BpSdU">
<path id="Vector" d="M24.3738 8.20124L33.3212 8.21813C33.9391 8.21813 35.2789 8.68017 35.2789 10.4087C35.2789 16.7839 35.3727 23.1976 35.2161 30.1488C34.9886 33.0213 33.0409 35.3516 30.3157 35.9642C22.3334 36.0023 14.7567 36.0724 7.02588 35.7795C3.79408 35.657 1.25355 33.8502 0.713536 30.5576C0.698805 30.4667 0.692697 30.3744 0.693416 30.2824C0.746591 21.9649 0.746591 17.9394 0.745513 10.1913C0.745513 10.1849 0.747309 10.1784 0.747309 10.1716C0.746591 8.83215 1.86829 8.23429 2.91849 8.23178L11.5414 8.21309C11.9068 4.92632 12.8155 1.01797 16.5284 0.186219C21.8749 -1.01165 23.9283 3.79276 24.3738 8.20124ZM22.1268 8.221C21.8915 6.12203 21.2555 2.60208 18.7046 2.24782C14.8868 1.71787 14.0216 5.19938 13.7755 8.221H22.1272H22.1268ZM11.4092 10.3088H2.91849V30.7003C2.9264 32.385 4.53314 33.7183 6.57534 33.7183C13.0357 33.7183 22.1609 33.8764 28.7701 33.7183C30.1688 33.6849 31.1917 33.4363 32.2296 32.4342C32.834 31.8507 32.9838 30.7779 32.9838 30.7003V10.3088H24.4931V13.4408C24.4931 14.159 22.6259 14.6595 22.4135 13.2934C22.365 12.9805 22.4085 10.3401 22.1868 10.3067L13.722 10.3006C13.358 10.399 13.5614 12.6047 13.5046 13.0304C13.3257 14.3724 11.4092 14.0045 11.4092 13.3013V10.3088Z" fill="url(#paint0_linear_631_828)"/>
</g>
<defs>
<linearGradient id="paint0_linear_631_828" x1="0.693359" y1="18.15" x2="35.3068" y2="18.15" gradientUnits="userSpaceOnUse">
<stop stop-color="#A97FF1"/>
<stop offset="1" stop-color="#6621DD"/>
</linearGradient>
</defs>
</svg>
