<svg width="36" height="36" viewBox="0 0 36 36" fill="none" xmlns="http://www.w3.org/2000/svg">
<g id="_x39_uzj8l">
<g id="Group">
<path id="Vector" d="M2.71845 0.028632L33.0163 0C34.6595 0.153897 35.8572 1.3302 35.9992 2.9829L36 32.9189C36 34.7565 34.8822 35.9996 33.0163 35.9992L3.08033 36C1.31031 36 0 34.6929 0 33.0163L0.00437434 2.88985C0 1.42842 0.78062 0 2.71845 0.028632ZM17.2174 1.5684H2.79083C1.65032 1.5684 1.5684 2.39873 1.5684 2.79083V17.217H17.217V1.5684H17.2174ZM34.4308 17.2174V2.79083C34.4308 2.4027 34.1417 1.5684 33.2084 1.5684H18.7822V17.217H34.4308V17.2174ZM17.2174 18.7822H1.5684V33.2084C1.5684 33.5965 2.39873 34.4308 2.79083 34.4308H17.217V18.7822H17.2174ZM34.4308 18.7822H18.7822V34.4308H33.2084C34.0506 34.4308 34.4308 33.7806 34.4308 33.2084V18.7822Z" fill="url(#paint0_linear_633_843)"/>
<path id="Vector_2" d="M31.0782 23.7C31.5677 24.1919 31.1573 25.0672 30.4722 25.0445H22.7411C21.6177 25.0445 21.6678 23.5752 22.7411 23.4746C24.4276 23.4746 28.1271 23.4746 30.3771 23.4722C30.5839 23.4722 30.935 23.5565 31.0782 23.7004V23.7Z" fill="url(#paint1_linear_633_843)"/>
<path id="Vector_3" d="M31.0782 9.03206C31.5677 9.52398 31.1573 10.3992 30.4722 10.3766H22.7411C21.6177 10.3766 21.6678 8.90719 22.7411 8.80659C24.4276 8.80659 28.1271 8.80659 30.3771 8.8042C30.5839 8.8042 30.935 8.8885 31.0782 9.03246V9.03206Z" fill="url(#paint2_linear_633_843)"/>
<path id="Vector_4" d="M13.8661 9.03163C13.7226 8.88767 13.3718 8.80297 13.165 8.80337C12.314 8.80416 11.2554 8.80496 10.177 8.80535C10.177 7.5869 10.177 6.46389 10.177 5.72622C10.076 4.65291 8.60699 4.60281 8.60699 5.72622V8.80575C7.38933 8.80575 6.26672 8.80575 5.52944 8.80575C4.45614 8.90676 4.40603 10.3757 5.52944 10.3757H8.60699V13.4569C8.58432 14.142 9.45958 14.5524 9.9515 14.0629C10.0955 13.9194 10.1802 13.5686 10.1798 13.3618C10.179 12.5112 10.1782 11.4538 10.1778 10.3757H13.2601C13.9453 10.3984 14.3557 9.52314 13.8661 9.03123V9.03163Z" fill="url(#paint3_linear_633_843)"/>
<path id="Vector_5" d="M12.9505 29.3745C12.9509 29.1713 12.7624 28.8635 12.6161 28.7172C12.0136 28.1163 11.2648 27.3683 10.5021 26.606C11.3634 25.7442 12.1576 24.9501 12.6793 24.4284C13.3669 23.598 12.3636 22.5235 11.569 23.3181C11.3336 23.5535 10.4142 24.4729 9.3914 25.4957C8.53006 24.6347 7.73631 23.841 7.21497 23.3197C6.38464 22.6321 5.31015 23.6354 6.10469 24.4299C6.3401 24.6654 7.25871 25.584 8.28112 26.6064C7.25434 27.6331 6.33215 28.5553 6.1027 28.7848C5.60203 29.2532 5.93091 30.1623 6.62483 30.1639C6.82804 30.1643 7.13584 29.9758 7.28218 29.8295C7.88305 29.2274 8.63027 28.479 9.3922 27.7167C10.4194 28.7438 11.3424 29.6668 11.5718 29.8963C12.0403 30.3969 12.9493 30.0681 12.9509 29.3741L12.9505 29.3745Z" fill="url(#paint4_linear_633_843)"/>
<path id="Vector_6" d="M31.0782 28.3045C31.5677 28.7964 31.1573 29.6717 30.4722 29.649H22.7411C21.6177 29.649 21.6678 28.1797 22.7411 28.079C24.4276 28.079 28.1271 28.079 30.3771 28.0767C30.5839 28.0767 30.935 28.161 31.0782 28.3049V28.3045Z" fill="url(#paint5_linear_633_843)"/>
</g>
</g>
<defs>
<linearGradient id="paint0_linear_633_843" x1="-7.25009e-08" y1="18.15" x2="36" y2="18.15" gradientUnits="userSpaceOnUse">
<stop stop-color="#A97FF1"/>
<stop offset="1" stop-color="#6621DD"/>
</linearGradient>
<linearGradient id="paint1_linear_633_843" x1="21.9172" y1="24.2651" x2="31.2927" y2="24.2651" gradientUnits="userSpaceOnUse">
<stop stop-color="#A97FF1"/>
<stop offset="1" stop-color="#6621DD"/>
</linearGradient>
<linearGradient id="paint2_linear_633_843" x1="21.9172" y1="9.59716" x2="31.2927" y2="9.59716" gradientUnits="userSpaceOnUse">
<stop stop-color="#A97FF1"/>
<stop offset="1" stop-color="#6621DD"/>
</linearGradient>
<linearGradient id="paint3_linear_633_843" x1="4.70557" y1="9.62895" x2="14.0806" y2="9.62895" gradientUnits="userSpaceOnUse">
<stop stop-color="#A97FF1"/>
<stop offset="1" stop-color="#6621DD"/>
</linearGradient>
<linearGradient id="paint4_linear_633_843" x1="5.82617" y1="26.6314" x2="12.9509" y2="26.6314" gradientUnits="userSpaceOnUse">
<stop stop-color="#A97FF1"/>
<stop offset="1" stop-color="#6621DD"/>
</linearGradient>
<linearGradient id="paint5_linear_633_843" x1="21.9172" y1="28.8696" x2="31.2927" y2="28.8696" gradientUnits="userSpaceOnUse">
<stop stop-color="#A97FF1"/>
<stop offset="1" stop-color="#6621DD"/>
</linearGradient>
</defs>
</svg>
