<svg width="36" height="36" viewBox="0 0 36 36" fill="none" xmlns="http://www.w3.org/2000/svg">
<g id="Group">
<path id="Vector" d="M36 17.9998C36 27.9408 27.9412 35.9996 18.0002 35.9996C8.05879 35.9996 0 27.9408 0 17.9998C0 8.05879 8.05879 0 17.9998 0C27.9408 0 35.9996 8.05879 35.9996 17.9998H36Z" fill="url(#paint0_linear_633_950)"/>
<path id="Vector_2" d="M23.333 16.6029L23.0331 19.0109C22.9827 19.4135 22.6417 19.716 22.238 19.716H18.3377V29.7843C17.926 29.8215 17.5094 29.8403 17.088 29.8403C16.1461 29.8403 15.226 29.7459 14.3369 29.5668V19.7164H11.337C11.0616 19.7164 10.8369 19.4903 10.8369 19.2144V16.2014C10.8369 15.9256 11.0616 15.6994 11.337 15.6994H14.3369V11.1801C14.3369 8.4068 16.5758 6.15918 19.3375 6.15918H22.8374C23.1129 6.15918 23.3375 6.38533 23.3375 6.66116V9.67417C23.3375 9.95 23.1129 10.1762 22.8374 10.1762H20.3369C19.2329 10.1762 18.3373 11.0751 18.3373 12.1848V15.6998H22.5375C23.0195 15.6998 23.3921 16.1243 23.3326 16.6037L23.333 16.6029Z" fill="white"/>
</g>
<defs>
<linearGradient id="paint0_linear_633_950" x1="-7.25009e-08" y1="18.1498" x2="36" y2="18.1498" gradientUnits="userSpaceOnUse">
<stop stop-color="#A97FF1"/>
<stop offset="1" stop-color="#6621DD"/>
</linearGradient>
</defs>
</svg>
