<svg width="40" height="40" viewBox="0 0 40 40" fill="none" xmlns="http://www.w3.org/2000/svg">
<g id="facebook-outline">
<path id="Vector" d="M29.4932 17.8775L29.0374 21.5377C28.9605 22.15 28.4426 22.6094 27.8285 22.6094H21.8996V37.9149C21.2738 37.9714 20.6405 38 19.9999 38C18.5681 38 17.1691 37.8567 15.818 37.5844V22.6097H11.2577C10.8394 22.6097 10.4976 22.2662 10.4976 21.8468V17.2666C10.4976 16.8472 10.8394 16.5037 11.2577 16.5037H15.818V9.63363C15.818 5.41727 19.2215 2 23.4199 2H28.7403C29.1586 2 29.5005 2.34355 29.5005 2.76291V7.34316C29.5005 7.76252 29.1586 8.10607 28.7403 8.10607H24.9392C23.2607 8.10607 21.8992 9.47305 21.8992 11.1598V16.503H28.2841C29.017 16.503 29.5835 17.148 29.4929 17.8772L29.4932 17.8775Z" fill="url(#paint0_linear_634_2291)"/>
</g>
<defs>
<linearGradient id="paint0_linear_634_2291" x1="10.4976" y1="20.15" x2="29.5024" y2="20.15" gradientUnits="userSpaceOnUse">
<stop stop-color="#A97FF1"/>
<stop offset="1" stop-color="#6621DD"/>
</linearGradient>
</defs>
</svg>
