<svg width="28" height="36" viewBox="0 0 28 36" fill="none" xmlns="http://www.w3.org/2000/svg">
<g id="mCnjaz">
<g id="Group">
<path id="Vector" d="M3.3106 0.0197611L24.5545 0C26.2256 0.187551 27.4098 1.43753 27.5273 3.10789L27.4659 35.4529C27.2676 35.9609 26.674 36.1618 26.2091 35.8478L21.9245 31.8866L18.4347 35.7393C18.1189 36.0087 17.7639 36.0928 17.3852 35.8794L14.0247 32.0288C13.9212 32.0112 13.8002 32.1787 13.7337 32.2473C12.6802 33.3413 11.7964 34.7422 10.6941 35.8133C10.3014 36.1172 9.86519 36.0289 9.52314 35.7008L6.06961 31.8761L1.74264 35.879C1.24754 36.1582 0.685243 35.9211 0.506674 35.3997L0.4729 2.96237C0.628834 1.44077 1.79294 0.221684 3.3106 0.0197611ZM25.7955 33.148V2.81111C25.7955 2.60883 25.2623 1.99587 25.0705 1.88485C24.7583 1.70449 24.3131 1.69551 23.9581 1.6452C17.059 1.72425 10.13 1.504 3.24808 1.7573C2.90029 1.82773 2.20002 2.47912 2.20002 2.81147V33.1484L5.79332 29.8713C6.1368 29.7193 6.47238 29.8451 6.7458 30.0743L10.1386 33.8178C10.2367 33.8346 10.2963 33.733 10.3556 33.6755C11.3839 32.6749 12.3231 31.0138 13.3676 30.0822C13.7279 29.7606 14.2241 29.7315 14.5913 30.0445L17.8034 33.8185C17.9069 33.8357 18.028 33.6687 18.0944 33.5997C19.1299 32.5239 20.114 31.1622 21.1718 30.1465C21.4718 29.8584 21.7944 29.7362 22.2033 29.8713L25.7959 33.1491L25.7955 33.148Z" fill="url(#paint0_linear_633_853)"/>
<path id="Vector_2" d="M6.87066 14.2778L21.2862 14.3296C22.1877 14.8304 21.8536 15.959 20.8288 15.9841H7.15414C6.03171 15.9827 5.8226 14.5857 6.8703 14.2778H6.87066Z" fill="url(#paint1_linear_633_853)"/>
<path id="Vector_3" d="M6.87115 22.0483L21.2867 22.1001C22.1882 22.6009 21.854 23.7295 20.8293 23.7546H7.15463C6.0322 23.7532 5.82309 22.3563 6.87079 22.0483H6.87115Z" fill="url(#paint2_linear_633_853)"/>
<path id="Vector_4" d="M6.38966 7.96192C5.95995 7.51208 6.23732 6.58008 6.92537 6.56104H21.056C22.0703 6.67026 22.0538 8.09558 21.056 8.2145L6.73602 8.17821C6.63434 8.10743 6.47014 8.04635 6.3893 7.96156L6.38966 7.96192Z" fill="url(#paint3_linear_633_853)"/>
</g>
</g>
<defs>
<linearGradient id="paint0_linear_633_853" x1="0.4729" y1="18.15" x2="27.5273" y2="18.15" gradientUnits="userSpaceOnUse">
<stop stop-color="#A97FF1"/>
<stop offset="1" stop-color="#6621DD"/>
</linearGradient>
<linearGradient id="paint1_linear_633_853" x1="6.18799" y1="15.1381" x2="21.8098" y2="15.1381" gradientUnits="userSpaceOnUse">
<stop stop-color="#A97FF1"/>
<stop offset="1" stop-color="#6621DD"/>
</linearGradient>
<linearGradient id="paint2_linear_633_853" x1="6.18848" y1="22.9086" x2="21.8103" y2="22.9086" gradientUnits="userSpaceOnUse">
<stop stop-color="#A97FF1"/>
<stop offset="1" stop-color="#6621DD"/>
</linearGradient>
<linearGradient id="paint3_linear_633_853" x1="6.18457" y1="7.39466" x2="21.8105" y2="7.39466" gradientUnits="userSpaceOnUse">
<stop stop-color="#A97FF1"/>
<stop offset="1" stop-color="#6621DD"/>
</linearGradient>
</defs>
</svg>
