<svg width="36" height="36" viewBox="0 0 36 36" fill="none" xmlns="http://www.w3.org/2000/svg">
<g id="Group">
<path id="Vector" d="M36 17.9998C36 27.9408 27.9412 35.9996 18.0002 35.9996C8.05879 35.9996 0 27.9408 0 17.9998C0 8.05879 8.05879 0 17.9998 0C27.9408 0 35.9996 8.05879 35.9996 17.9998H36Z" fill="url(#paint0_linear_633_945)"/>
<path id="Vector_2" d="M22.8831 8.55811H13.116C10.5993 8.55811 8.55786 10.5995 8.55786 13.1162V22.8834C8.55786 25.4 10.5993 27.4415 13.116 27.4415H22.8831C25.3998 27.4415 27.4412 25.4 27.4412 22.8834V13.1162C27.4412 10.5995 25.3998 8.55811 22.8831 8.55811ZM25.8134 22.5579C25.8134 24.3551 24.3548 25.8136 22.5576 25.8136H13.4414C11.6443 25.8136 10.1857 24.3551 10.1857 22.5579V13.4417C10.1857 11.6445 11.6443 10.186 13.4414 10.186H22.5576C24.3548 10.186 25.8134 11.6445 25.8134 13.4417V22.5579Z" fill="white"/>
<path id="Vector_3" d="M18.0091 13.1157C15.3133 13.1157 13.1255 15.3035 13.1255 17.9993C13.1255 20.6951 15.3133 22.8829 18.0091 22.8829C20.7049 22.8829 22.8927 20.6951 22.8927 17.9993C22.8927 15.3035 20.7049 13.1157 18.0091 13.1157ZM18.0091 21.255C16.2153 21.255 14.7534 19.7931 14.7534 17.9993C14.7534 16.2055 16.2153 14.7436 18.0091 14.7436C19.8029 14.7436 21.2648 16.2055 21.2648 17.9993C21.2648 19.7931 19.8029 21.255 18.0091 21.255Z" fill="white"/>
<path id="Vector_4" d="M23.2186 13.7672C22.6801 13.7672 22.2417 13.3292 22.2417 12.7903C22.2417 12.2515 22.6797 11.8135 23.2186 11.8135C23.7574 11.8135 24.1954 12.2515 24.1954 12.7903C24.1954 13.3292 23.7574 13.7672 23.2186 13.7672Z" fill="white"/>
</g>
<defs>
<linearGradient id="paint0_linear_633_945" x1="-7.25009e-08" y1="18.1498" x2="36" y2="18.1498" gradientUnits="userSpaceOnUse">
<stop stop-color="#A97FF1"/>
<stop offset="1" stop-color="#6621DD"/>
</linearGradient>
</defs>
</svg>
