<svg width="36" height="36" viewBox="0 0 36 36" fill="none" xmlns="http://www.w3.org/2000/svg">
<g id="Group">
<path id="Vector" d="M36 17.9998C36 27.9408 27.9412 35.9996 18.0002 35.9996C8.05879 35.9996 0 27.9408 0 17.9998C0 8.05879 8.05879 0 17.9998 0C27.9408 0 35.9996 8.05879 35.9996 17.9998H36Z" fill="url(#paint0_linear_633_938)"/>
<g id="Group_2">
<path id="Vector_2" d="M11.6248 13.1875C12.9052 13.1875 13.9431 12.1495 13.9431 10.8691C13.9431 9.58875 12.9052 8.55078 11.6248 8.55078C10.3444 8.55078 9.3064 9.58875 9.3064 10.8691C9.3064 12.1495 10.3444 13.1875 11.6248 13.1875Z" fill="white"/>
<path id="Vector_3" d="M13.4846 14.7329H9.7645C9.72481 14.7329 9.69263 14.7651 9.69263 14.8048V26.2525C9.69263 26.2922 9.72481 26.3244 9.7645 26.3244H13.4846C13.5243 26.3244 13.5564 26.2922 13.5564 26.2525V14.8048C13.5564 14.7651 13.5243 14.7329 13.4846 14.7329Z" fill="white"/>
<path id="Vector_4" d="M26.6935 18.9829V25.5516C26.6935 25.9764 26.3458 26.3245 25.9206 26.3245H23.6023C23.1774 26.3245 22.8293 25.9768 22.8293 25.5516V20.1423C22.8293 19.0759 21.9639 18.2104 20.8974 18.2104C19.831 18.2104 18.9655 19.0759 18.9655 20.1423V25.5516C18.9655 25.9764 18.6178 26.3245 18.1926 26.3245H15.8742C15.4494 26.3245 15.1013 25.9768 15.1013 25.5516V15.5056C15.1013 15.0803 15.449 14.7326 15.8742 14.7326H18.1926C18.6174 14.7326 18.9655 15.0803 18.9655 15.5056V16C19.7384 14.9994 21.0171 14.3462 22.4429 14.3462C24.5757 14.3462 26.6932 15.8916 26.6932 18.9829H26.6935Z" fill="white"/>
</g>
</g>
<defs>
<linearGradient id="paint0_linear_633_938" x1="-7.25009e-08" y1="18.1498" x2="36" y2="18.1498" gradientUnits="userSpaceOnUse">
<stop stop-color="#A97FF1"/>
<stop offset="1" stop-color="#6621DD"/>
</linearGradient>
</defs>
</svg>
