<svg width="40" height="40" viewBox="0 0 40 40" fill="none" xmlns="http://www.w3.org/2000/svg">
<g id="location">
<path id="Vector" d="M19.9999 37.9993C19.0245 37.9993 18.1107 37.5665 17.4932 36.812C15.5763 34.47 12.7935 30.8924 10.4217 27.1478C9.07624 25.0239 8.01792 23.0844 7.27551 21.3825C6.35867 19.2812 5.91309 17.5487 5.91309 16.0868C5.91309 14.1855 6.28585 12.3408 7.02064 10.6031C7.73011 8.9255 8.74577 7.41918 10.0392 6.12576C11.3326 4.83234 12.8389 3.81668 14.5166 3.10721C16.2538 2.37277 18.0986 2 19.9999 2C21.9012 2 23.7459 2.37277 25.4836 3.10755C27.1612 3.81703 28.6675 4.83269 29.9609 6.12611C31.2544 7.41952 32.27 8.92585 32.9795 10.6035C33.7143 12.3407 34.087 14.1859 34.087 16.0872C34.087 17.5491 33.6415 19.2815 32.7246 21.3832C31.9822 23.0848 30.9239 25.0246 29.5785 27.1485C27.2063 30.8931 24.4235 34.471 22.507 36.8127C21.8894 37.5672 20.9757 38 20.0002 38L19.9999 37.9993ZM19.9999 4.08056C13.3795 4.08056 7.99365 9.46645 7.99365 16.0868C7.99365 18.2721 9.44103 21.712 12.1791 26.0347C14.4954 29.6913 17.2227 33.1974 19.1032 35.4947C19.3241 35.7644 19.6507 35.9191 19.9999 35.9191C20.3491 35.9191 20.6757 35.7644 20.8966 35.4947C22.7767 33.1974 25.5044 29.6913 27.8207 26.0347C30.5588 21.712 32.0061 18.2721 32.0061 16.0868C32.0061 9.46645 26.6202 4.08056 19.9999 4.08056ZM19.9999 22.9052C16.2403 22.9052 13.1815 19.8464 13.1815 16.0868C13.1815 12.3272 16.2403 9.26845 19.9999 9.26845C23.7595 9.26845 26.8182 12.3272 26.8182 16.0868C26.8182 19.8464 23.7595 22.9052 19.9999 22.9052ZM19.9999 11.349C17.3874 11.349 15.2621 13.4743 15.2621 16.0868C15.2621 18.6993 17.3874 20.8246 19.9999 20.8246C22.6124 20.8246 24.7377 18.6993 24.7377 16.0868C24.7377 13.4743 22.6124 11.349 19.9999 11.349Z" fill="url(#paint0_linear_634_2306)"/>
</g>
<defs>
<linearGradient id="paint0_linear_634_2306" x1="5.91309" y1="20.15" x2="34.087" y2="20.15" gradientUnits="userSpaceOnUse">
<stop stop-color="#A97FF1"/>
<stop offset="1" stop-color="#6621DD"/>
</linearGradient>
</defs>
</svg>
