<svg width="36" height="36" viewBox="0 0 36 36" fill="none" xmlns="http://www.w3.org/2000/svg">
<g id="_x30_TjOqB">
<path id="Vector" d="M23.3422 29.5237L25.0314 34.8318C25.0493 35.5527 24.6392 35.9411 23.9425 35.9932C23.7351 36.0086 11.9865 35.9932 11.9865 35.9932C11.3389 35.969 10.8845 35.4024 10.9754 34.7669L12.6571 29.524H2.07758C1.17604 29.524 0.00293077 28.2219 0.00439669 27.3094L0.00146484 2.28464C0.136696 1.01002 1.07195 0.0927196 2.35574 0H33.7133C34.945 0.118373 35.8796 1.0496 35.9979 2.28464V27.2416C36.0342 28.1794 34.8431 29.5233 33.9218 29.5233H23.3422V29.5237ZM33.8866 23.1979V2.35757C33.8866 2.33815 33.7173 2.18716 33.6744 2.14794L2.23113 2.17653C2.19485 2.19925 2.11276 2.32972 2.11276 2.3572V23.1975H33.8866V23.1979ZM33.8866 25.3066H2.11276V27.169C2.11276 27.1885 2.28207 27.3395 2.32495 27.3787H33.6744C33.7173 27.3395 33.8866 27.1885 33.8866 27.169V25.3066ZM22.4986 33.8815L21.0957 29.5559H14.9037L13.5008 33.8815H22.4986Z" fill="url(#paint0_linear_633_890)"/>
</g>
<defs>
<linearGradient id="paint0_linear_633_890" x1="0.00146477" y1="18.15" x2="35.9987" y2="18.15" gradientUnits="userSpaceOnUse">
<stop stop-color="#A97FF1"/>
<stop offset="1" stop-color="#6621DD"/>
</linearGradient>
</defs>
</svg>
