<svg width="36" height="36" viewBox="0 0 36 36" fill="none" xmlns="http://www.w3.org/2000/svg">
<g id="lx7U82">
<path id="Vector" d="M17.7139 0.0354306C18.1796 -0.0879548 18.5708 0.139631 18.9872 0.278816C24.4113 2.08859 29.8986 5.33122 35.3704 7.20607L35.8918 7.60783V28.3885L18.0972 36L0.108154 28.3885V7.60783L17.7139 0.0354306ZM24.1311 4.00633L17.9027 1.21925L2.64997 7.981L9.85823 11.116L24.1311 4.00633ZM26.2549 4.98965C23.6906 6.10802 17.0766 9.60193 12.5577 11.5144C12.306 11.6209 11.8474 11.8827 11.8474 11.8827L18.0002 14.5678L33.2495 7.66463L26.2549 4.99003V4.98965ZM17.0766 33.6937V16.0364L1.8427 9.45786V27.4616L17.0766 33.6937ZM34.1569 27.4616V9.45786L18.9229 16.036V33.6933L34.1569 27.4612V27.4616Z" fill="url(#paint0_linear_633_835)"/>
</g>
<defs>
<linearGradient id="paint0_linear_633_835" x1="0.108154" y1="18.15" x2="35.8918" y2="18.15" gradientUnits="userSpaceOnUse">
<stop stop-color="#A97FF1"/>
<stop offset="1" stop-color="#6621DD"/>
</linearGradient>
</defs>
</svg>
