<svg width="40" height="40" viewBox="0 0 40 40" fill="none" xmlns="http://www.w3.org/2000/svg">
<g id="shop">
<path id="Vector" d="M37.9927 10.1324V9.08367H37.873C37.7937 8.9075 37.6443 8.7224 37.5453 8.57518C36.0824 6.3983 34.2803 4.42225 32.796 2.25644L32.5791 2.09814H7.40204L7.18513 2.25644L2.12457 9.05079C2.12314 9.06473 2.12207 9.07866 2.121 9.0926H2.02309V10.5409C1.99486 11.1948 1.98985 11.8587 2.02309 12.4719V13.5854C2.02309 14.3158 2.02309 15.6754 2.87497 16.8864C3.06543 17.1569 3.2859 17.4024 3.53675 17.6229V36.3954C3.10009 36.4219 2.42473 36.2611 2.16173 36.7013C1.84692 37.2287 2.17138 37.8662 2.78564 37.8977L37.0554 37.9009C37.7172 37.9337 38.1446 37.3649 37.8401 36.752C37.5878 36.2436 36.9096 36.4251 36.444 36.3958V17.6461C36.7091 17.4167 36.9418 17.1605 37.1408 16.8768C37.9923 15.6629 37.9923 14.3115 37.9923 13.5854V11.4796C38.0013 11.0376 38.0038 10.552 37.9923 10.1324H37.9927ZM36.5308 13.5854C36.5308 14.1896 36.5308 15.2012 35.9445 16.037C35.6968 16.3901 35.3616 16.6842 34.9421 16.9193C34.1206 17.3788 32.9729 17.6111 31.5107 17.6111C29.2991 17.6111 27.8072 17.0844 27.0761 16.0452C26.4905 15.2127 26.4905 14.1939 26.4905 13.5854V10.5537L31.7233 10.5502L36.5312 10.547V13.5857L36.5308 13.5854ZM3.48494 13.5854V10.5537L5.03899 10.5527L13.5257 10.5466V13.5854C13.5257 14.1896 13.5257 15.2012 12.9393 16.037C12.2067 17.0815 10.7149 17.6111 8.50548 17.6111C7.02183 17.6111 5.86264 17.3735 5.03934 16.9039C4.6352 16.6734 4.31181 16.3872 4.07097 16.0452C3.4853 15.2127 3.4853 14.1939 3.4853 13.5854H3.48494ZM14.9875 10.5537L25.0283 10.5466V13.5854C25.0283 14.1896 25.0283 15.2012 24.4419 16.037C23.7093 17.0815 22.2175 17.6111 20.0081 17.6111C17.7987 17.6111 16.3047 17.0844 15.5736 16.0452C14.9879 15.2127 14.9879 14.1939 14.9879 13.5854V10.5537H14.9875ZM31.9016 3.63111L35.7486 8.65237H26.4901L25.2602 3.63111H31.9016ZM15.7644 3.62039L24.2846 3.61824L25.0283 8.63914H14.9875L15.7644 3.62074V3.62039ZM8.07275 3.63111H14.6534L13.5257 8.65237H4.22569L8.07275 3.63111ZM23.6071 36.3954H15.9884L15.8812 22.6481H23.6075V36.3954H23.6071ZM34.9418 36.3954H25.1094V21.6826C25.1094 21.4446 24.638 21.069 24.3611 21.1433L15.0568 21.1444C14.5401 21.1776 14.3833 21.7422 14.3793 22.1835C14.3304 27.3163 14.5466 30.662 14.3761 35.784C14.3729 35.8805 14.5591 36.3954 14.3432 36.3954H5.03899V18.5173C5.98235 18.8868 7.14011 19.0729 8.50513 19.0729C11.2191 19.0729 13.1137 18.334 14.136 16.8768C14.1774 16.8178 14.216 16.7585 14.2536 16.6988C14.2929 16.7617 14.334 16.8242 14.3776 16.8864C15.3985 18.3372 17.2927 19.0729 20.0077 19.0729C22.7227 19.0729 24.6162 18.334 25.6386 16.8768C25.68 16.8178 25.7186 16.7585 25.7561 16.6988C25.7955 16.7617 25.8365 16.8242 25.8801 16.8864C26.901 18.3372 28.7953 19.0729 31.5103 19.0729C32.8585 19.0729 34.0045 18.8903 34.9418 18.528V36.3954Z" fill="url(#paint0_linear_634_2296)"/>
</g>
<defs>
<linearGradient id="paint0_linear_634_2296" x1="2" y1="20.1494" x2="38" y2="20.1494" gradientUnits="userSpaceOnUse">
<stop stop-color="#A97FF1"/>
<stop offset="1" stop-color="#6621DD"/>
</linearGradient>
</defs>
</svg>
