<svg width="36" height="36" viewBox="0 0 36 36" fill="none" xmlns="http://www.w3.org/2000/svg">
<path d="M36 17.9998C36 27.9408 27.9412 35.9996 18.0002 35.9996C8.05879 35.9996 0 27.9408 0 17.9998C0 8.05879 8.05879 0 17.9998 0C27.9408 0 35.9996 8.05879 35.9996 17.9998H36Z" fill="url(#paint0_linear_633_955)"/>
<path d="M21.5674 22.6371V13.7181C21.5674 13.7181 22.5728 15.3938 26.2082 15.4969C26.402 15.5025 26.562 15.343 26.562 15.1492V12.6283C26.562 12.4406 26.4122 12.2923 26.2248 12.2814C23.4052 12.1215 22.0663 9.95965 21.935 7.97656C21.923 7.79255 21.7623 7.65332 21.5779 7.65332H18.7037C18.5122 7.65332 18.3568 7.80873 18.3568 8.00027V22.1784C18.3568 23.7186 17.1797 25.0582 15.6414 25.1312C13.883 25.2144 12.4531 23.7054 12.6706 21.9218C12.8241 20.6615 13.8356 19.6301 15.0928 19.4551C15.3423 19.4205 15.5869 19.4179 15.8228 19.4442C16.0316 19.4676 16.216 19.3121 16.216 19.1018V16.575C16.216 16.3951 16.0791 16.2401 15.8999 16.2288C15.5391 16.2054 15.1695 16.2137 14.7944 16.2562C12.0211 16.5704 9.78323 18.8147 9.47617 21.5884C9.0709 25.2479 11.9251 28.3455 15.5026 28.3455C18.852 28.3455 21.5674 25.6302 21.5674 22.2808" fill="white"/>
<defs>
<linearGradient id="paint0_linear_633_955" x1="-7.25009e-08" y1="18.1498" x2="36" y2="18.1498" gradientUnits="userSpaceOnUse">
<stop stop-color="#A97FF1"/>
<stop offset="1" stop-color="#6621DD"/>
</linearGradient>
</defs>
</svg>
