<svg width="40" height="40" viewBox="0 0 40 40" fill="none" xmlns="http://www.w3.org/2000/svg">
<g id="tiktok-outline">
<path id="Vector" d="M26.2067 28.069V12.5519C26.2067 12.5519 27.9562 15.4675 34.2807 15.6467C34.6177 15.6563 34.8965 15.3789 34.8965 15.0419V10.656C34.8965 10.3293 34.636 10.0713 34.3096 10.0526C29.4041 9.77456 27.0744 6.01306 26.8462 2.56271C26.8249 2.24259 26.5458 2 26.2249 2H21.2243C20.8911 2 20.6206 2.27016 20.6206 2.60372V27.2706C20.6206 29.9501 18.5731 32.2812 15.8963 32.408C12.8367 32.5528 10.3495 29.9274 10.7275 26.824C10.9946 24.6318 12.7544 22.8368 14.9418 22.5325C15.3763 22.4722 15.8015 22.4678 16.2119 22.5136C16.5755 22.5542 16.8963 22.2834 16.8963 21.9178V17.5216C16.8963 17.2087 16.6582 16.9392 16.3463 16.9189C15.7185 16.8782 15.0758 16.8927 14.4229 16.9664C9.5983 17.5133 5.70481 21.4178 5.17036 26.2437C4.46533 32.6107 9.43083 38 15.6551 38C21.4827 38 26.2067 33.2757 26.2067 27.4484" fill="url(#paint0_linear_634_2302)"/>
</g>
<defs>
<linearGradient id="paint0_linear_634_2302" x1="5.10352" y1="20.15" x2="34.8965" y2="20.15" gradientUnits="userSpaceOnUse">
<stop stop-color="#A97FF1"/>
<stop offset="1" stop-color="#6621DD"/>
</linearGradient>
</defs>
</svg>
