<svg width="34" height="36" viewBox="0 0 34 36" fill="none" xmlns="http://www.w3.org/2000/svg">
<g id="Group">
<path id="Vector" d="M33.3099 16.2494C33.024 15.153 31.9839 14.0537 31.5503 13.6322C30.6868 12.7925 29.7732 12.1896 29.1064 12.0189L28.8194 11.9454L28.6513 12.1136C28.4827 10.9075 28.1581 9.73254 27.6806 8.60325C26.971 6.92559 25.9555 5.41939 24.662 4.12596C23.3686 2.83253 21.8624 1.81694 20.1847 1.10735C18.4471 0.372529 16.602 0 14.701 0C12.8 0 10.9549 0.372529 9.21727 1.10735C7.53961 1.81694 6.03341 2.83253 4.73998 4.12596C3.44655 5.41939 2.43096 6.92559 1.72136 8.60325C0.986542 10.3405 0.614014 12.1856 0.614014 14.087C0.614014 15.549 1.05966 17.2814 1.97654 19.3832C2.71867 21.085 3.7774 23.0247 5.12274 25.1484C7.49464 28.8931 10.2775 32.471 12.1946 34.8126C12.812 35.5672 13.726 36 14.7014 36C15.6767 36 16.5903 35.5672 17.2082 34.8126C18.8814 32.7682 21.2146 29.7822 23.3584 26.5654L33.3859 16.5379L33.3106 16.2494H33.3099ZM15.5974 33.4947C15.3766 33.7645 15.0498 33.9191 14.7006 33.9191C14.3515 33.9191 14.0247 33.7645 13.8039 33.4947C11.9237 31.1973 9.19606 27.6914 6.87973 24.0349C4.14152 19.7122 2.69418 16.2721 2.69418 14.087C2.69418 10.8801 3.94301 7.86514 6.21072 5.59743C8.47842 3.32973 11.4934 2.0809 14.7003 2.0809C17.9072 2.0809 20.9225 3.32973 23.1898 5.59743C25.4506 7.85819 26.6987 10.8618 26.706 14.0581L18.3287 22.4354L18.2928 22.5718C18.0603 23.4591 17.6406 25.8474 17.4707 26.833C17.4301 27.0692 17.5039 27.3141 17.6688 27.4885C17.8136 27.6417 18.0168 27.728 18.2256 27.728C18.2545 27.728 18.283 27.7265 18.3119 27.7228C18.7549 27.6717 19.4613 27.5894 20.1869 27.4998C18.529 29.833 16.8689 31.9406 15.5967 33.495L15.5974 33.4947ZM26.6782 20.9654L21.945 25.639L21.4259 25.711L19.2159 26.0181L19.7526 23.2807L26.1697 16.8636L28.7862 14.2471L29.1773 13.8559C29.4091 13.9828 29.8559 14.3049 30.4594 14.915C31.0107 15.4725 31.3635 15.9431 31.5072 16.1979L26.6786 20.9654H26.6782Z" fill="url(#paint0_linear_633_864)"/>
<path id="Vector_2" d="M21.5195 14.087C21.5195 10.3274 18.4607 7.26855 14.701 7.26855C10.9414 7.26855 7.88257 10.3274 7.88257 14.087C7.88257 17.8467 10.9414 20.9055 14.701 20.9055C18.4607 20.9055 21.5195 17.8467 21.5195 14.087ZM14.701 18.825C12.0886 18.825 9.9631 16.6995 9.9631 14.087C9.9631 11.4746 12.0886 9.34908 14.701 9.34908C17.3135 9.34908 19.439 11.4746 19.439 14.087C19.439 16.6995 17.3135 18.825 14.701 18.825Z" fill="url(#paint1_linear_633_864)"/>
</g>
<defs>
<linearGradient id="paint0_linear_633_864" x1="0.614014" y1="18.15" x2="33.3859" y2="18.15" gradientUnits="userSpaceOnUse">
<stop stop-color="#A97FF1"/>
<stop offset="1" stop-color="#6621DD"/>
</linearGradient>
<linearGradient id="paint1_linear_633_864" x1="7.88257" y1="14.1439" x2="21.5195" y2="14.1439" gradientUnits="userSpaceOnUse">
<stop stop-color="#A97FF1"/>
<stop offset="1" stop-color="#6621DD"/>
</linearGradient>
</defs>
</svg>
