<svg width="32" height="36" viewBox="0 0 32 36" fill="none" xmlns="http://www.w3.org/2000/svg">
<g id="Group">
<path id="Vector" d="M7.00171 15.8875C7.00171 19.3383 9.80905 22.146 13.2598 22.146C16.7106 22.146 19.5183 19.3386 19.5183 15.8875C19.5183 12.4364 16.7109 9.62939 13.2598 9.62939C9.80868 9.62939 7.00171 12.4367 7.00171 15.8875ZM17.6088 15.8875C17.6088 18.2854 15.6581 20.2361 13.2602 20.2361C10.8623 20.2361 8.91153 18.2854 8.91153 15.8875C8.91153 13.4896 10.8623 11.5389 13.2602 11.5389C15.6581 11.5389 17.6088 13.4896 17.6088 15.8875Z" fill="url(#paint0_linear_633_871)"/>
<path id="Vector_2" d="M30.8853 6.60797C28.5057 5.47538 27.6363 4.28065 26.8404 1.05033C26.6858 0.422252 26.1626 0 25.5389 0C24.9153 0 24.3921 0.422252 24.2375 1.05033C23.6032 3.62552 22.9217 4.9069 21.466 5.89471C20.5067 5.10505 19.4439 4.46125 18.293 3.97465C16.6983 3.30015 15.005 2.95832 13.26 2.95832C11.5151 2.95832 9.82167 3.30015 8.22698 3.97465C6.68713 4.62576 5.30449 5.55801 4.11743 6.74506C2.93037 7.93212 1.99813 9.31477 1.34702 10.8546C0.672145 12.4493 0.330322 14.1427 0.330322 15.8876C0.330322 17.2297 0.739413 18.8196 1.58063 20.7485C2.26208 22.3103 3.23344 24.0907 4.46839 26.04C6.64546 29.4772 9.19981 32.7609 10.959 34.9102C11.526 35.603 12.3643 36 13.2596 36C14.155 36 14.9936 35.6026 15.5603 34.9102C17.3195 32.7605 19.8738 29.4768 22.0509 26.04C23.2855 24.0907 24.2572 22.3103 24.9387 20.7485C25.7802 18.8196 26.189 17.2297 26.189 15.8876C26.189 15.7889 26.1879 15.6902 26.1857 15.5915C26.5037 15.4124 26.7436 15.1009 26.8401 14.709C27.636 11.4787 28.5053 10.2839 30.8849 9.15135C31.369 8.92103 31.6698 8.43371 31.6698 7.87948C31.6698 7.32525 31.369 6.83829 30.8849 6.6076L30.8853 6.60797ZM20.4379 25.0182C18.312 28.3742 15.8085 31.5921 14.0826 33.7008C13.88 33.9483 13.5799 34.0905 13.2596 34.0905C12.9394 34.0905 12.6392 33.9483 12.4367 33.7008C10.7108 31.5921 8.20724 28.3742 6.08136 25.0182C3.56832 21.0505 2.23978 17.8932 2.23978 15.8876C2.23978 12.9443 3.38589 10.1768 5.46754 8.09554C7.54882 6.01426 10.3163 4.86778 13.2596 4.86778C15.6173 4.86778 17.8613 5.6037 19.7309 6.96588C19.5247 7.21338 19.4073 7.53363 19.4073 7.87984C19.4073 8.43371 19.7082 8.92103 20.1923 9.15172C22.536 10.2671 23.4145 11.4432 24.2009 14.565C24.2528 15.0007 24.2795 15.4424 24.2795 15.888C24.2795 17.8936 22.951 21.0512 20.4379 25.0185V25.0182ZM27.0203 10.1523C26.5264 10.8203 26.1308 11.6063 25.7791 12.6423C25.6969 12.8847 25.6172 13.1406 25.5389 13.4119C25.1266 11.9803 24.6667 10.976 24.0576 10.1523C23.3758 9.23032 22.513 8.53827 21.213 7.87948C21.7665 7.59907 22.2403 7.31245 22.6548 7.005C23.2142 6.59006 23.6657 6.13636 24.0572 5.607C24.6667 4.78296 25.1262 3.77906 25.5386 2.34743C25.951 3.77906 26.4109 4.78333 27.0199 5.607C27.7018 6.529 28.5645 7.22106 29.8646 7.87984C28.5645 8.53863 27.7021 9.23069 27.0199 10.1527L27.0203 10.1523Z" fill="url(#paint1_linear_633_871)"/>
<path id="Vector_3" d="M19.4556 12.0412C20.1363 12.3651 20.408 12.7234 20.635 13.6451C20.6734 13.8015 20.8752 13.8015 20.9139 13.6451C21.141 12.7234 21.4126 12.3651 22.0933 12.0412C22.2096 11.986 22.2096 11.8051 22.0933 11.7495C21.4126 11.4256 21.141 11.0673 20.9139 10.1457C20.8755 9.9892 20.6737 9.9892 20.635 10.1457C20.408 11.0673 20.1363 11.4256 19.4556 11.7495C19.3393 11.8047 19.3393 11.9857 19.4556 12.0412Z" fill="url(#paint2_linear_633_871)"/>
<path id="Vector_4" d="M19.7033 3.21647C20.4619 3.555 20.7646 3.929 21.0179 4.89159C21.0607 5.055 21.2859 5.055 21.3287 4.89159C21.5817 3.929 21.8847 3.55464 22.6433 3.21647C22.7731 3.15871 22.7731 2.9697 22.6433 2.91194C21.8847 2.5734 21.582 2.19941 21.3287 1.23682C21.2859 1.0734 21.0607 1.0734 21.0179 1.23682C20.765 2.19941 20.4619 2.57377 19.7033 2.91194C19.5735 2.9697 19.5735 3.15871 19.7033 3.21647Z" fill="url(#paint3_linear_633_871)"/>
</g>
<defs>
<linearGradient id="paint0_linear_633_871" x1="7.00171" y1="15.9398" x2="19.5183" y2="15.9398" gradientUnits="userSpaceOnUse">
<stop stop-color="#A97FF1"/>
<stop offset="1" stop-color="#6621DD"/>
</linearGradient>
<linearGradient id="paint1_linear_633_871" x1="0.330322" y1="18.15" x2="31.6698" y2="18.15" gradientUnits="userSpaceOnUse">
<stop stop-color="#A97FF1"/>
<stop offset="1" stop-color="#6621DD"/>
</linearGradient>
<linearGradient id="paint2_linear_633_871" x1="19.3684" y1="11.9109" x2="22.1805" y2="11.9109" gradientUnits="userSpaceOnUse">
<stop stop-color="#A97FF1"/>
<stop offset="1" stop-color="#6621DD"/>
</linearGradient>
<linearGradient id="paint3_linear_633_871" x1="19.606" y1="3.08045" x2="22.7407" y2="3.08045" gradientUnits="userSpaceOnUse">
<stop stop-color="#A97FF1"/>
<stop offset="1" stop-color="#6621DD"/>
</linearGradient>
</defs>
</svg>
