<svg width="36" height="30" viewBox="0 0 36 30" fill="none" xmlns="http://www.w3.org/2000/svg">
<g id="JvH0B0">
<path id="Vector" d="M6.85512 29.8441C5.24734 29.6079 3.88357 28.2579 3.50955 26.7076C1.06325 26.7076 0.0408315 26.931 0.0408315 25.464L0 2.68295C0.136214 1.16173 1.0577 0.292838 2.55769 0.142578H20.7705C21.839 0.142252 22.2133 0.420559 22.6879 0.919684C22.9111 1.15422 23.4677 1.57168 23.4677 2.54347V9.60536H28.4952C28.9185 9.60536 29.9654 10.3932 30.2457 10.7682L36 17.9046V25.4761C35.3431 26.9349 34.1714 26.6161 32.8138 26.6605C32.3964 28.4747 31.0767 29.5086 29.2964 29.8441H28.5677C26.891 29.5021 25.6167 28.4339 25.2326 26.7268L11.1695 26.6318C10.7338 28.3441 9.45135 29.5001 7.72891 29.8441C7.44832 29.817 7.1233 29.8836 6.85447 29.8441H6.85512ZM22.0108 18.9238V2.7558C22.0108 1.91957 21.3967 1.5756 20.779 1.58997L2.40285 1.58932C2.16864 1.47173 1.4634 2.19232 1.4634 2.2521V18.9238H22.0108ZM28.0584 10.9156H23.468V25.3304L25.2002 25.3131C26.1315 21.0784 31.8362 21.0839 32.8151 25.3101C33.3633 25.2932 34.1351 25.5179 34.5435 25.1119V19.7972H26.0515C25.6562 19.7972 25.2819 19.4559 25.2384 19.0244C25.194 18.5811 25.2496 14.0586 25.2476 13.5314C25.2463 13.159 25.6278 12.6625 26.0701 12.6625H29.8802C29.4689 12.0455 28.8408 11.0537 28.0584 10.9152V10.9156ZM34.3974 18.3413L31.16 14.3497C31.0417 14.2036 30.8637 14.119 30.6759 14.119H26.858C26.5284 14.119 26.5284 14.3376 26.5284 14.6946V14.3376V18.1986C26.5284 18.2777 26.5924 18.3417 26.6715 18.3417H34.3974V18.3413ZM22.0108 20.3797H1.46307V25.1217C1.46307 25.2118 3.37007 25.1952 3.55985 25.1952C3.55985 25.1952 3.50824 24.6898 4.16808 23.7376C6.08618 20.9702 10.6505 21.9786 11.081 25.3301H22.0105V20.3797H22.0108ZM5.59424 24.2165C3.35766 26.3388 6.65913 29.9983 9.0267 27.7185C11.3185 25.512 7.96639 21.9656 5.59424 24.2165ZM27.3071 27.7548C29.6316 29.931 33.0471 26.3747 30.6801 24.1665C28.3946 22.0345 24.9124 25.513 27.3071 27.7548Z" fill="url(#paint0_linear_633_839)"/>
</g>
<defs>
<linearGradient id="paint0_linear_633_839" x1="-7.25009e-08" y1="15.1236" x2="36" y2="15.1236" gradientUnits="userSpaceOnUse">
<stop stop-color="#A97FF1"/>
<stop offset="1" stop-color="#6621DD"/>
</linearGradient>
</defs>
</svg>
